SplineFontDB: 3.2
FontName: Grotesk-01Extrafin
FullName: Grotesk 01 Extrafin
FamilyName: Grotesk 01 Extrafin
Weight: Thin
Copyright: Copyright \\(c\\) 2010-2023 by Frank Adebiaye. Certains droits r_serv_s
Version: 003.001
ItalicAngle: 0
UnderlinePosition: -125
UnderlineWidth: 50
Ascent: 800
Descent: 200
InvalidEm: 0
sfntRevision: 0x00030000
LayerCount: 2
Layer: 0 0 "Arri+AOgA-re" 1
Layer: 1 0 "Avant" 0
XUID: [1021 92 -1557539766 5267962]
StyleMap: 0x0040
FSType: 8
OS2Version: 4
OS2_WeightWidthSlopeOnly: 0
OS2_UseTypoMetrics: 1
CreationTime: 1673544023
ModificationTime: 1746888334
PfmFamily: 81
TTFWeight: 100
TTFWidth: 5
LineGap: 90
VLineGap: 0
Panose: 0 0 0 0 0 0 0 0 0 0
OS2TypoAscent: 800
OS2TypoAOffset: 0
OS2TypoDescent: -200
OS2TypoDOffset: 0
OS2TypoLinegap: 90
OS2WinAscent: 1000
OS2WinAOffset: 0
OS2WinDescent: 200
OS2WinDOffset: 0
HheadAscent: 1000
HheadAOffset: 0
HheadDescent: -200
HheadDOffset: 0
OS2SubXSize: 650
OS2SubYSize: 600
OS2SubXOff: 0
OS2SubYOff: 75
OS2SupXSize: 650
OS2SupYSize: 600
OS2SupXOff: 0
OS2SupYOff: 350
OS2StrikeYSize: 50
OS2StrikeYPos: 260
OS2CapHeight: 650
OS2XHeight: 520
OS2Vendor: 'VTF '
OS2CodePages: 20000097.00000000
OS2UnicodeRanges: a000026f.00002042.00000000.00000004
Lookup: 1 0 0 "'aalt' Access All Alternates in Latin lookup 0" { "'aalt' Access All Alternates in Latin lookup 0 subtable"  } ['aalt' ('DFLT' <'dflt' > 'latn' <'AZE ' 'CAT ' 'CRT ' 'KAZ ' 'MOL ' 'NLD ' 'ROM ' 'TAT ' 'TRK ' 'dflt' > ) ]
Lookup: 3 0 0 "'aalt' Access All Alternates in Latin lookup 1" { "'aalt' Access All Alternates in Latin lookup 1 subtable"  } ['aalt' ('DFLT' <'dflt' > 'latn' <'AZE ' 'CAT ' 'CRT ' 'KAZ ' 'MOL ' 'NLD ' 'ROM ' 'TAT ' 'TRK ' 'dflt' > ) ]

StartChar: .notdef
Encoding: 65536 -1 0
Width: 980
GlyphClass: 1
Flags: W
LayerCount: 2
Fore
SplineSet
505 700 m 1
 950 700 l 1
 950 600 l 1
 505 600 l 1
 505 700 l 1
30 -150 m 1
 30 -135 l 1
 45 -135 l 1
 45 -150 l 1
 30 -150 l 1
35 90 m 1
 35 100 l 1
 60 100 l 1
 60 70 l 1
 75 70 l 1
 75 40 l 1
 95 40 l 1
 95 70 l 1
 110 70 l 1
 110 100 l 1
 135 100 l 1
 135 90 l 1
 120 90 l 1
 120 60 l 1
 105 60 l 1
 105 30 l 1
 90 30 l 1
 90 0 l 1
 80 0 l 1
 80 30 l 1
 65 30 l 1
 65 60 l 1
 50 60 l 1
 50 90 l 1
 35 90 l 1
40 150 m 1
 40 250 l 1
 105 250 l 1
 105 240 l 1
 50 240 l 1
 50 160 l 1
 105 160 l 1
 105 150 l 1
 40 150 l 1
40 300 m 1
 40 400 l 1
 110 400 l 1
 110 390 l 1
 50 390 l 1
 50 355 l 1
 90 355 l 1
 90 345 l 1
 50 345 l 1
 50 300 l 1
 40 300 l 1
40 450 m 1
 40 550 l 1
 50 550 l 1
 50 460 l 1
 80 460 l 1
 80 515 l 1
 90 515 l 1
 90 460 l 1
 120 460 l 1
 120 550 l 1
 130 550 l 1
 130 450 l 1
 40 450 l 1
40 600 m 1
 40 700 l 1
 50 700 l 1
 50 600 l 1
 40 600 l 1
70 -150 m 1
 70 -50 l 1
 140 -50 l 1
 140 -60 l 1
 80 -60 l 1
 80 -95 l 1
 120 -95 l 1
 120 -105 l 1
 80 -105 l 1
 80 -150 l 1
 70 -150 l 1
80 600 m 1
 80 700 l 1
 150 700 l 1
 150 690 l 1
 90 690 l 1
 90 655 l 1
 130 655 l 1
 130 645 l 1
 90 645 l 1
 90 600 l 1
 80 600 l 1
130 150 m 1
 130 250 l 1
 205 250 l 1
 205 150 l 1
 130 150 l 1
130 300 m 1
 130 400 l 1
 205 400 l 1
 205 300 l 1
 130 300 l 1
140 160 m 1
 195 160 l 1
 195 240 l 1
 140 240 l 1
 140 160 l 1
140 310 m 1
 195 310 l 1
 195 390 l 1
 140 390 l 1
 140 310 l 1
155 0 m 1
 155 100 l 1
 225 100 l 1
 225 90 l 1
 165 90 l 1
 165 55 l 1
 205 55 l 1
 205 45 l 1
 165 45 l 1
 165 10 l 1
 225 10 l 1
 225 0 l 1
 155 0 l 1
155 450 m 1
 155 490 l 1
 170 490 l 1
 170 520 l 1
 185 520 l 1
 185 550 l 1
 220 550 l 1
 220 520 l 1
 235 520 l 1
 235 490 l 1
 250 490 l 1
 250 450 l 1
 240 450 l 1
 240 480 l 1
 165 480 l 1
 165 450 l 1
 155 450 l 1
165 -150 m 1
 165 -50 l 1
 220 -50 l 1
 220 -100 l 1
 250 -100 l 1
 250 -150 l 1
 240 -150 l 1
 240 -110 l 1
 175 -110 l 1
 175 -150 l 1
 165 -150 l 1
175 -100 m 1
 210 -100 l 1
 210 -60 l 1
 175 -60 l 1
 175 -100 l 1
180 490 m 1
 225 490 l 1
 225 510 l 1
 210 510 l 1
 210 540 l 1
 195 540 l 1
 195 510 l 1
 180 510 l 1
 180 490 l 1
180 645 m 1
 180 700 l 1
 190 700 l 1
 190 655 l 1
 250 655 l 1
 250 700 l 1
 260 700 l 1
 260 645 l 1
 225 645 l 1
 225 600 l 1
 215 600 l 1
 215 645 l 1
 180 645 l 1
235 150 m 1
 235 250 l 1
 265 250 l 1
 265 220 l 1
 280 220 l 1
 280 190 l 1
 295 190 l 1
 295 160 l 1
 305 160 l 1
 305 250 l 1
 315 250 l 1
 315 150 l 1
 285 150 l 1
 285 180 l 1
 270 180 l 1
 270 210 l 1
 255 210 l 1
 255 240 l 1
 245 240 l 1
 245 150 l 1
 235 150 l 1
235 300 m 1
 235 400 l 1
 290 400 l 1
 290 350 l 1
 320 350 l 1
 320 300 l 1
 310 300 l 1
 310 340 l 1
 245 340 l 1
 245 300 l 1
 235 300 l 1
245 350 m 1
 280 350 l 1
 280 390 l 1
 245 390 l 1
 245 350 l 1
255 0 m 1
 255 100 l 1
 265 100 l 1
 265 10 l 1
 325 10 l 1
 325 0 l 1
 255 0 l 1
275 450 m 1
 275 550 l 1
 305 550 l 1
 305 520 l 1
 320 520 l 1
 320 490 l 1
 335 490 l 1
 335 460 l 1
 345 460 l 1
 345 550 l 1
 355 550 l 1
 355 450 l 1
 325 450 l 1
 325 480 l 1
 310 480 l 1
 310 510 l 1
 295 510 l 1
 295 540 l 1
 285 540 l 1
 285 450 l 1
 275 450 l 1
285 -150 m 1
 285 -50 l 1
 950 -50 l 1
 950 -150 l 1
 285 -150 l 1
290 600 m 1
 290 700 l 1
 365 700 l 1
 365 600 l 1
 290 600 l 1
300 610 m 1
 355 610 l 1
 355 690 l 1
 300 690 l 1
 300 610 l 1
310 90 m 1
 310 100 l 1
 335 100 l 1
 335 70 l 1
 350 70 l 1
 350 40 l 1
 370 40 l 1
 370 70 l 1
 385 70 l 1
 385 100 l 1
 410 100 l 1
 410 90 l 1
 395 90 l 1
 395 60 l 1
 380 60 l 1
 380 30 l 1
 365 30 l 1
 365 0 l 1
 355 0 l 1
 355 30 l 1
 340 30 l 1
 340 60 l 1
 325 60 l 1
 325 90 l 1
 310 90 l 1
330 240 m 1
 330 250 l 1
 410 250 l 1
 410 240 l 1
 375 240 l 1
 375 150 l 1
 365 150 l 1
 365 240 l 1
 330 240 l 1
345 300 m 1
 345 400 l 1
 355 400 l 1
 355 355 l 1
 370 355 l 1
 370 370 l 1
 395 370 l 1
 395 400 l 1
 420 400 l 1
 420 390 l 1
 405 390 l 1
 405 360 l 1
 380 360 l 1
 380 340 l 1
 405 340 l 1
 405 310 l 1
 420 310 l 1
 420 300 l 1
 395 300 l 1
 395 330 l 1
 370 330 l 1
 370 345 l 1
 355 345 l 1
 355 300 l 1
 345 300 l 1
375 540 m 1
 375 550 l 1
 455 550 l 1
 455 540 l 1
 420 540 l 1
 420 450 l 1
 410 450 l 1
 410 540 l 1
 375 540 l 1
395 600 m 1
 395 700 l 1
 405 700 l 1
 405 610 l 1
 465 610 l 1
 465 700 l 1
 475 700 l 1
 475 600 l 1
 395 600 l 1
410 150 m 1
 410 190 l 1
 425 190 l 1
 425 220 l 1
 440 220 l 1
 440 250 l 1
 475 250 l 1
 475 220 l 1
 490 220 l 1
 490 190 l 1
 505 190 l 1
 505 150 l 1
 495 150 l 1
 495 180 l 1
 420 180 l 1
 420 150 l 1
 410 150 l 1
430 0 m 1
 430 100 l 1
 500 100 l 1
 500 90 l 1
 440 90 l 1
 440 55 l 1
 480 55 l 1
 480 45 l 1
 440 45 l 1
 440 10 l 1
 500 10 l 1
 500 0 l 1
 430 0 l 1
435 190 m 1
 480 190 l 1
 480 210 l 1
 465 210 l 1
 465 240 l 1
 450 240 l 1
 450 210 l 1
 435 210 l 1
 435 190 l 1
485 300 m 1
 485 400 l 1
 515 400 l 1
 515 370 l 1
 530 370 l 1
 530 340 l 1
 550 340 l 1
 550 370 l 1
 565 370 l 1
 565 400 l 1
 595 400 l 1
 595 300 l 1
 585 300 l 1
 585 390 l 1
 575 390 l 1
 575 360 l 1
 560 360 l 1
 560 330 l 1
 545 330 l 1
 545 300 l 1
 535 300 l 1
 535 330 l 1
 520 330 l 1
 520 360 l 1
 505 360 l 1
 505 390 l 1
 495 390 l 1
 495 300 l 1
 485 300 l 1
495 450 m 1
 495 550 l 1
 525 550 l 1
 525 520 l 1
 540 520 l 1
 540 490 l 1
 560 490 l 1
 560 520 l 1
 575 520 l 1
 575 550 l 1
 605 550 l 1
 605 450 l 1
 595 450 l 1
 595 540 l 1
 585 540 l 1
 585 510 l 1
 570 510 l 1
 570 480 l 1
 555 480 l 1
 555 450 l 1
 545 450 l 1
 545 480 l 1
 530 480 l 1
 530 510 l 1
 515 510 l 1
 515 540 l 1
 505 540 l 1
 505 450 l 1
 495 450 l 1
520 90 m 1
 520 100 l 1
 600 100 l 1
 600 90 l 1
 565 90 l 1
 565 0 l 1
 555 0 l 1
 555 90 l 1
 520 90 l 1
525 150 m 1
 525 250 l 1
 590 250 l 1
 590 240 l 1
 535 240 l 1
 535 160 l 1
 590 160 l 1
 590 150 l 1
 525 150 l 1
610 240 m 1
 610 250 l 1
 690 250 l 1
 690 240 l 1
 655 240 l 1
 655 150 l 1
 645 150 l 1
 645 240 l 1
 610 240 l 1
620 45 m 1
 620 100 l 1
 630 100 l 1
 630 55 l 1
 690 55 l 1
 690 100 l 1
 700 100 l 1
 700 45 l 1
 665 45 l 1
 665 0 l 1
 655 0 l 1
 655 45 l 1
 620 45 l 1
630 300 m 1
 630 400 l 1
 700 400 l 1
 700 390 l 1
 640 390 l 1
 640 355 l 1
 680 355 l 1
 680 345 l 1
 640 345 l 1
 640 310 l 1
 700 310 l 1
 700 300 l 1
 630 300 l 1
635 450 m 1
 635 550 l 1
 710 550 l 1
 710 450 l 1
 635 450 l 1
645 460 m 1
 700 460 l 1
 700 540 l 1
 645 540 l 1
 645 460 l 1
710 150 m 1
 710 250 l 1
 950 250 l 1
 950 150 l 1
 710 150 l 1
720 0 m 1
 720 100 l 1
 750 100 l 1
 750 70 l 1
 765 70 l 1
 765 40 l 1
 780 40 l 1
 780 10 l 1
 790 10 l 1
 790 100 l 1
 800 100 l 1
 800 0 l 1
 770 0 l 1
 770 30 l 1
 755 30 l 1
 755 60 l 1
 740 60 l 1
 740 90 l 1
 730 90 l 1
 730 0 l 1
 720 0 l 1
735 450 m 1
 735 550 l 1
 790 550 l 1
 790 500 l 1
 820 500 l 1
 820 450 l 1
 810 450 l 1
 810 490 l 1
 745 490 l 1
 745 450 l 1
 735 450 l 1
745 500 m 1
 780 500 l 1
 780 540 l 1
 745 540 l 1
 745 500 l 1
760 300 m 1
 760 400 l 1
 835 400 l 1
 835 300 l 1
 760 300 l 1
770 310 m 1
 825 310 l 1
 825 390 l 1
 770 390 l 1
 770 310 l 1
825 0 m 1
 825 100 l 1
 895 100 l 1
 895 90 l 1
 835 90 l 1
 835 55 l 1
 875 55 l 1
 875 45 l 1
 835 45 l 1
 835 10 l 1
 895 10 l 1
 895 0 l 1
 825 0 l 1
840 450 m 1
 840 550 l 1
 910 550 l 1
 910 540 l 1
 850 540 l 1
 850 505 l 1
 890 505 l 1
 890 495 l 1
 850 495 l 1
 850 460 l 1
 910 460 l 1
 910 450 l 1
 840 450 l 1
865 300 m 1
 865 400 l 1
 920 400 l 1
 920 350 l 1
 950 350 l 1
 950 300 l 1
 940 300 l 1
 940 340 l 1
 875 340 l 1
 875 300 l 1
 865 300 l 1
875 350 m 1
 910 350 l 1
 910 390 l 1
 875 390 l 1
 875 350 l 1
930 450 m 1
 930 465 l 1
 945 465 l 1
 945 435 l 1
 935 435 l 1
 935 450 l 1
 930 450 l 1
EndSplineSet
EndChar

StartChar: A
Encoding: 65 65 2
Width: 640
GlyphClass: 2
Flags: MW
HStem: 210 12<142 499 142 503 137 499> 638 12<289 352 289 289>
VStem: 50 540<0 0>
AnchorPoint: "Anchor-7" 320 650 basechar 0
AnchorPoint: "Anchor-6" 583 0 basechar 0
AnchorPoint: "Anchor-5" 320 0 basechar 0
LayerCount: 2
Fore
SplineSet
590 0 m 1
 577 0 l 1
 503 210 l 1
 137 210 l 1
 63 0 l 1
 50 0 l 1
 280 650 l 1
 360 650 l 1
 590 0 l 1
142 222 m 1
 499 222 l 1
 352 638 l 1
 289 638 l 1
 142 222 l 1
EndSplineSet
EndChar

StartChar: Aacute
Encoding: 193 193 3
Width: 640
GlyphClass: 2
Flags: MW
HStem: 210 12<142 499 142 503 137 499> 638 12<289 352 289 289>
VStem: 50 540<0 0>
AnchorPoint: "Anchor-7" 320 801 basechar 0
AnchorPoint: "Anchor-6" 583 0 basechar 0
AnchorPoint: "Anchor-5" 320 0 basechar 0
LayerCount: 2
Fore
SplineSet
590 0 m 1
 577 0 l 1
 503 210 l 1
 137 210 l 1
 63 0 l 1
 50 0 l 1
 280 650 l 1
 360 650 l 1
 590 0 l 1
142 222 m 1
 499 222 l 1
 352 638 l 1
 289 638 l 1
 142 222 l 1
315 701 m 1
 371 801 l 1
 385 801 l 1
 329 701 l 1
 315 701 l 1
EndSplineSet
EndChar

StartChar: Abreve
Encoding: 258 258 4
Width: 640
GlyphClass: 2
Flags: MW
HStem: 210 12<142 499 142 503 137 499> 638 12<289 352 289 289> 699 12<293.5 346.5 293.5 349.5>
VStem: 221 12<773 800 773 800> 407 12<773 800>
AnchorPoint: "Anchor-7" 320 800 basechar 0
AnchorPoint: "Anchor-6" 583 0 basechar 0
AnchorPoint: "Anchor-5" 320 0 basechar 0
LayerCount: 2
Fore
SplineSet
590 0 m 1
 577 0 l 1
 503 210 l 1
 137 210 l 1
 63 0 l 1
 50 0 l 1
 280 650 l 1
 360 650 l 1
 590 0 l 1
142 222 m 1
 499 222 l 1
 352 638 l 1
 289 638 l 1
 142 222 l 1
221 800 m 1
 233 800 l 1
 233 746 267 711 320 711 c 0
 373 711 407 746 407 800 c 1
 419 800 l 1
 419 739 379 699 320 699 c 0
 261 699 221 739 221 800 c 1
EndSplineSet
EndChar

StartChar: Acircumflex
Encoding: 194 194 5
Width: 640
GlyphClass: 2
Flags: MW
HStem: 210 12<142 499 142 503 137 499> 638 12<289 352 289 289> 793 8<320 320>
VStem: 50 540<0 0>
AnchorPoint: "Anchor-7" 320 801 basechar 0
AnchorPoint: "Anchor-6" 583 0 basechar 0
AnchorPoint: "Anchor-5" 320 0 basechar 0
LayerCount: 2
Fore
SplineSet
590 0 m 1
 577 0 l 1
 503 210 l 1
 137 210 l 1
 63 0 l 1
 50 0 l 1
 280 650 l 1
 360 650 l 1
 590 0 l 1
142 222 m 1
 499 222 l 1
 352 638 l 1
 289 638 l 1
 142 222 l 1
195 702 m 1
 311 801 l 1
 329 801 l 1
 445 702 l 1
 427 702 l 1
 320 793 l 1
 213 702 l 1
 195 702 l 1
EndSplineSet
EndChar

StartChar: Adieresis
Encoding: 196 196 6
Width: 640
GlyphClass: 2
Flags: MW
HStem: 210 12<142 499 142 503 137 499> 638 12<289 352 289 289> 741 42<234 246 394 406>
VStem: 219 42<756 768> 379 42<756 768>
AnchorPoint: "Anchor-7" 320 822 basechar 0
AnchorPoint: "Anchor-6" 583 0 basechar 0
AnchorPoint: "Anchor-5" 320 0 basechar 0
LayerCount: 2
Fore
SplineSet
590 0 m 1
 577 0 l 1
 503 210 l 1
 137 210 l 1
 63 0 l 1
 50 0 l 1
 280 650 l 1
 360 650 l 1
 590 0 l 1
142 222 m 1
 499 222 l 1
 352 638 l 1
 289 638 l 1
 142 222 l 1
219 762 m 0
 219 774 228 783 240 783 c 0
 252 783 261 774 261 762 c 0
 261 750 252 741 240 741 c 0
 228 741 219 750 219 762 c 0
379 762 m 0
 379 774 388 783 400 783 c 0
 412 783 421 774 421 762 c 0
 421 750 412 741 400 741 c 0
 388 741 379 750 379 762 c 0
EndSplineSet
EndChar

StartChar: Agrave
Encoding: 192 192 7
Width: 640
GlyphClass: 2
Flags: MW
HStem: 210 12<142 499 142 503 137 499> 638 12<289 352 289 289>
VStem: 50 540<0 0>
AnchorPoint: "Anchor-7" 320 801 basechar 0
AnchorPoint: "Anchor-6" 583 0 basechar 0
AnchorPoint: "Anchor-5" 320 0 basechar 0
LayerCount: 2
Fore
SplineSet
590 0 m 1
 577 0 l 1
 503 210 l 1
 137 210 l 1
 63 0 l 1
 50 0 l 1
 280 650 l 1
 360 650 l 1
 590 0 l 1
142 222 m 1
 499 222 l 1
 352 638 l 1
 289 638 l 1
 142 222 l 1
255 801 m 1
 269 801 l 1
 325 701 l 1
 311 701 l 1
 255 801 l 1
EndSplineSet
EndChar

StartChar: Amacron
Encoding: 256 256 8
Width: 640
GlyphClass: 2
Flags: MW
HStem: 210 12<142 499 142 503 137 499> 638 12<289 352 289 289> 754 12<155 485 155 485>
VStem: 50 540<0 0>
AnchorPoint: "Anchor-7" 320 766 basechar 0
AnchorPoint: "Anchor-6" 583 0 basechar 0
AnchorPoint: "Anchor-5" 320 0 basechar 0
LayerCount: 2
Fore
SplineSet
590 0 m 1
 577 0 l 1
 503 210 l 1
 137 210 l 1
 63 0 l 1
 50 0 l 1
 280 650 l 1
 360 650 l 1
 590 0 l 1
142 222 m 1
 499 222 l 1
 352 638 l 1
 289 638 l 1
 142 222 l 1
155 754 m 1
 155 766 l 1
 485 766 l 1
 485 754 l 1
 155 754 l 1
EndSplineSet
EndChar

StartChar: Aogonek
Encoding: 260 260 9
Width: 640
GlyphClass: 2
Flags: MW
HStem: -200 12<502 687 502 687> 210 12<142 499 142 503 137 499> 638 12<289 352 289 289>
VStem: 50 637<-200 0>
AnchorPoint: "Anchor-7" 320 650 basechar 0
AnchorPoint: "Anchor-6" 583 0 basechar 0
AnchorPoint: "Anchor-5" 320 0 basechar 0
LayerCount: 2
Fore
SplineSet
590 0 m 1
 502 -188 l 1
 687 -188 l 1
 687 -200 l 1
 483 -200 l 1
 577 0 l 1
 503 210 l 1
 137 210 l 1
 63 0 l 1
 50 0 l 1
 280 650 l 1
 360 650 l 1
 590 0 l 1
142 222 m 1
 499 222 l 1
 352 638 l 1
 289 638 l 1
 142 222 l 1
EndSplineSet
EndChar

StartChar: Aring
Encoding: 197 197 10
Width: 640
GlyphClass: 2
Flags: MW
HStem: 210 12<142 499 142 503 137 499> 638 12<289 352 289 289> 699 11<302.5 338 302.5 340.5> 838 11<302.5 338>
VStem: 245 11<774 774> 383 12<774 774>
AnchorPoint: "Anchor-7" 320 849 basechar 0
AnchorPoint: "Anchor-6" 583 0 basechar 0
AnchorPoint: "Anchor-5" 320 0 basechar 0
LayerCount: 2
Fore
SplineSet
590 0 m 1
 577 0 l 1
 503 210 l 1
 137 210 l 1
 63 0 l 1
 50 0 l 1
 280 650 l 1
 360 650 l 1
 590 0 l 1
142 222 m 1
 499 222 l 1
 352 638 l 1
 289 638 l 1
 142 222 l 1
245 774 m 0
 245 816 277 849 320 849 c 0
 361 849 395 816 395 774 c 0
 395 732 361 699 320 699 c 0
 277 699 245 732 245 774 c 0
256 774 m 0
 257 738 285 710 320 710 c 0
 356 710 384 738 383 774 c 0
 384 810 356 838 320 838 c 0
 285 838 257 810 256 774 c 0
EndSplineSet
EndChar

StartChar: Atilde
Encoding: 195 195 11
Width: 640
GlyphClass: 2
Flags: MW
HStem: 210 12<142 499 142 503 137 499> 638 12<289 352 289 289> 698 12<373 413.5 373 417.5> 793 12<229.5 273>
VStem: 178 12<701 729.5 701 734> 455 12<770 800>
AnchorPoint: "Anchor-7" 320 800 basechar 0
AnchorPoint: "Anchor-6" 583 0 basechar 0
AnchorPoint: "Anchor-5" 320 0 basechar 0
LayerCount: 2
Fore
SplineSet
590 0 m 1
 577 0 l 1
 503 210 l 1
 137 210 l 1
 63 0 l 1
 50 0 l 1
 280 650 l 1
 360 650 l 1
 590 0 l 1
142 222 m 1
 499 222 l 1
 352 638 l 1
 289 638 l 1
 142 222 l 1
178 701 m 1
 178 767 207 805 246 805 c 0
 310 805 347 710 399 710 c 0
 428 710 455 740 455 800 c 1
 467 800 l 1
 467 732 435 698 400 698 c 0
 342 698 300 793 246 793 c 0
 213 793 190 758 190 701 c 1
 178 701 l 1
EndSplineSet
EndChar

StartChar: AE
Encoding: 198 198 12
Width: 795
GlyphClass: 1
Flags: MW
HStem: 0 12<441 695 441 695> 0 222<50 429 50 429 170 429 170 695> 210 12<170 429 170 429 165 429> 318 12<441 645 441 645> 638 12<372 429 372 372 441 695 441 441>
VStem: 429 12<12 210 210 210 222 318 330 638>
LayerCount: 2
Fore
SplineSet
50 0 m 1x5c
 364 650 l 1
 695 650 l 1
 695 638 l 1
 441 638 l 1
 441 330 l 1
 645 330 l 1
 645 318 l 1
 441 318 l 1
 441 12 l 1
 695 12 l 1
 695 0 l 1
 429 0 l 1
 429 210 l 1
 165 210 l 1xbc
 63 0 l 1
 50 0 l 1x5c
170 222 m 1
 429 222 l 1
 429 638 l 1
 372 638 l 1
 170 222 l 1
EndSplineSet
EndChar

StartChar: B
Encoding: 66 66 13
Width: 582
GlyphClass: 2
Flags: MW
HStem: 0 12<132 315 132 315> 220 12<132 215 132 215> 638 12<132 215 132 132>
VStem: 120 12<12 12 12 220 232 638> 418 12<430.5 496.5> 520 12<159 256 155.5 259.5>
AnchorPoint: "Anchor-7" 318 649 basechar 0
AnchorPoint: "Anchor-6" 115 0 basechar 0
AnchorPoint: "Anchor-5" 318 0 basechar 0
LayerCount: 2
Fore
SplineSet
120 0 m 1
 120 650 l 1
 215 650 l 2
 344 650 430 564 430 435 c 0
 430 426 430 417 429 408 c 1
 498 368 532 294 532 218 c 0
 532 93 443 0 315 0 c 2
 120 0 l 1
132 12 m 1
 315 12 l 2
 436 12 520 100 520 218 c 0
 520 301 478 365 427 395 c 1
 411 289 330 220 215 220 c 2
 132 220 l 1
 132 12 l 1
132 232 m 1
 215 232 l 2
 338 232 418 312 418 435 c 0
 418 558 338 638 215 638 c 2
 132 638 l 1
 132 232 l 1
EndSplineSet
EndChar

StartChar: C
Encoding: 67 67 14
Width: 565
GlyphClass: 2
Flags: MW
HStem: 0 12<300.5 515 395 515> 638 12<304.5 515 395 515>
VStem: 80 12<231 420 231 422>
AnchorPoint: "Anchor-7" 410 650 basechar 0
AnchorPoint: "Anchor-5" 410 0 basechar 0
LayerCount: 2
Fore
SplineSet
395 0 m 2
 206 0 80 130 80 325 c 0
 80 519 206 650 395 650 c 2
 515 650 l 1
 515 638 l 1
 395 638 l 2
 214 638 92 515 92 325 c 0
 92 137 213 12 395 12 c 2
 515 12 l 1
 515 0 l 1
 395 0 l 2
EndSplineSet
EndChar

StartChar: Cacute
Encoding: 262 262 15
Width: 615
GlyphClass: 2
Flags: MW
HStem: 0 12<300.5 515 395 515> 638 12<304.5 515 395 515>
VStem: 80 12<231 420 231 422>
AnchorPoint: "Anchor-7" 410 801 basechar 0
AnchorPoint: "Anchor-5" 410 0 basechar 0
LayerCount: 2
Fore
SplineSet
395 0 m 2
 206 0 80 130 80 325 c 0
 80 519 206 650 395 650 c 2
 515 650 l 1
 515 638 l 1
 395 638 l 2
 214 638 92 515 92 325 c 0
 92 137 213 12 395 12 c 2
 515 12 l 1
 515 0 l 1
 395 0 l 2
405 701 m 1
 461 801 l 1
 475 801 l 1
 419 701 l 1
 405 701 l 1
EndSplineSet
EndChar

StartChar: Ccaron
Encoding: 268 268 16
Width: 615
GlyphClass: 2
Flags: MW
HStem: 0 12<300.5 515 395 515> 638 12<304.5 515 395 515> 701 8<410 410 410 419>
VStem: 80 12<231 420 231 422>
AnchorPoint: "Anchor-7" 410 800 basechar 0
AnchorPoint: "Anchor-5" 410 0 basechar 0
LayerCount: 2
Fore
SplineSet
395 0 m 2
 206 0 80 130 80 325 c 0
 80 519 206 650 395 650 c 2
 515 650 l 1
 515 638 l 1
 395 638 l 2
 214 638 92 515 92 325 c 0
 92 137 213 12 395 12 c 2
 515 12 l 1
 515 0 l 1
 395 0 l 2
285 800 m 1
 303 800 l 1
 410 709 l 1
 517 800 l 1
 535 800 l 1
 419 701 l 1
 401 701 l 1
 285 800 l 1
EndSplineSet
EndChar

StartChar: Ccedilla
Encoding: 199 199 17
Width: 615
GlyphClass: 2
Flags: MW
HStem: -229 12<389 416 389 419.5> -43 12<389 416> 0 12<300.5 515 395 515> 638 12<304.5 515 395 515>
VStem: 80 12<231 420 231 422> 478 12<-156.5 -103.5>
AnchorPoint: "Anchor-7" 410 650 basechar 0
AnchorPoint: "Anchor-5" 389 -229 basechar 0
LayerCount: 2
Fore
SplineSet
395 0 m 2
 206 0 80 130 80 325 c 0
 80 519 206 650 395 650 c 2
 515 650 l 1
 515 638 l 1
 395 638 l 2
 214 638 92 515 92 325 c 0
 92 137 213 12 395 12 c 2
 515 12 l 1
 515 0 l 1
 395 0 l 2
389 -229 m 1
 389 -217 l 1
 443 -217 478 -183 478 -130 c 0
 478 -77 443 -43 389 -43 c 1
 389 -31 l 1
 450 -31 490 -71 490 -130 c 0
 490 -189 450 -229 389 -229 c 1
EndSplineSet
EndChar

StartChar: Cdotaccent
Encoding: 266 266 18
Width: 615
GlyphClass: 2
Flags: MW
HStem: 0 12<300.5 515 395 515> 638 12<304.5 515 395 515> 741 42<404 416>
VStem: 80 12<231 420 231 422> 389 42<756 768>
AnchorPoint: "Anchor-7" 410 650 basechar 0
AnchorPoint: "Anchor-5" 410 0 basechar 0
LayerCount: 2
Fore
SplineSet
395 0 m 2
 206 0 80 130 80 325 c 0
 80 519 206 650 395 650 c 2
 515 650 l 1
 515 638 l 1
 395 638 l 2
 214 638 92 515 92 325 c 0
 92 137 213 12 395 12 c 2
 515 12 l 1
 515 0 l 1
 395 0 l 2
389 762 m 0
 389 774 398 783 410 783 c 0
 422 783 431 774 431 762 c 0
 431 750 422 741 410 741 c 0
 398 741 389 750 389 762 c 0
EndSplineSet
EndChar

StartChar: D
Encoding: 68 68 19
Width: 635
GlyphClass: 2
Flags: MW
HStem: 0 12<132 240 132 240> 638 12<132 240 132 132>
VStem: 120 12<12 12 12 638> 543 12<231 420>
AnchorPoint: "Anchor-7" 220 649 basechar 0
AnchorPoint: "Anchor-5" 323 0 basechar 0
LayerCount: 2
Fore
SplineSet
120 0 m 1
 120 650 l 1
 240 650 l 2
 429 650 555 519 555 325 c 0
 555 130 429 0 240 0 c 2
 120 0 l 1
132 12 m 1
 240 12 l 2
 422 12 543 137 543 325 c 0
 543 515 421 638 240 638 c 2
 132 638 l 1
 132 12 l 1
EndSplineSet
EndChar

StartChar: Eth
Encoding: 208 208 20
Width: 655
GlyphClass: 1
Flags: MW
HStem: 0 12<152 260 152 260> 318 12<120 140 120 140 152 316> 638 12<152 260 152 152>
VStem: 140 12<12 12 12 318 330 638> 563 12<231 420>
LayerCount: 2
Fore
SplineSet
120 318 m 1
 120 330 l 1
 140 330 l 1
 140 650 l 1
 260 650 l 2
 449 650 575 519 575 325 c 0
 575 130 449 0 260 0 c 2
 140 0 l 1
 140 318 l 1
 120 318 l 1
152 12 m 1
 260 12 l 2
 442 12 563 137 563 325 c 0
 563 515 441 638 260 638 c 2
 152 638 l 1
 152 330 l 1
 316 330 l 1
 316 318 l 1
 152 318 l 1
 152 12 l 1
EndSplineSet
EndChar

StartChar: Dcaron
Encoding: 270 270 21
Width: 645
GlyphClass: 2
Flags: MW
HStem: 0 12<132 240 132 240> 638 12<132 240 132 132> 700 8<220 220 220 229>
VStem: 120 12<12 12 12 638> 543 12<231 420>
AnchorPoint: "Anchor-7" 220 799 basechar 0
AnchorPoint: "Anchor-5" 323 0 basechar 0
LayerCount: 2
Fore
SplineSet
120 0 m 1
 120 650 l 1
 240 650 l 2
 429 650 555 519 555 325 c 0
 555 130 429 0 240 0 c 2
 120 0 l 1
95 799 m 1
 113 799 l 1
 220 708 l 1
 327 799 l 1
 345 799 l 1
 229 700 l 1
 211 700 l 1
 95 799 l 1
132 12 m 1
 240 12 l 2
 422 12 543 137 543 325 c 0
 543 515 421 638 240 638 c 2
 132 638 l 1
 132 12 l 1
EndSplineSet
EndChar

StartChar: Dcroat
Encoding: 272 272 22
Width: 655
GlyphClass: 1
Flags: MW
HStem: 0 12<152 260 152 260> 318 12<120 140 120 140 152 316> 638 12<152 260 152 152>
VStem: 140 12<12 12 12 318 330 638> 563 12<231 420>
LayerCount: 2
Fore
SplineSet
120 318 m 1
 120 330 l 1
 140 330 l 1
 140 650 l 1
 260 650 l 2
 449 650 575 519 575 325 c 0
 575 130 449 0 260 0 c 2
 140 0 l 1
 140 318 l 1
 120 318 l 1
152 12 m 1
 260 12 l 2
 442 12 563 137 563 325 c 0
 563 515 441 638 260 638 c 2
 152 638 l 1
 152 330 l 1
 316 330 l 1
 316 318 l 1
 152 318 l 1
 152 12 l 1
EndSplineSet
EndChar

StartChar: E
Encoding: 69 69 23
Width: 520
GlyphClass: 2
Flags: MW
HStem: 0 12<132 420 132 420> 318 12<132 370 132 370> 638 12<132 420 132 132>
VStem: 120 12<12 318 330 638>
AnchorPoint: "Anchor-7" 275 650 basechar 0
AnchorPoint: "Anchor-6" 403 0 basechar 0
AnchorPoint: "Anchor-5" 275 0 basechar 0
LayerCount: 2
Fore
SplineSet
120 650 m 1
 420 650 l 1
 420 638 l 1
 132 638 l 1
 132 330 l 1
 370 330 l 1
 370 318 l 1
 132 318 l 1
 132 12 l 1
 420 12 l 1
 420 0 l 1
 120 0 l 1
 120 650 l 1
EndSplineSet
EndChar

StartChar: Eacute
Encoding: 201 201 24
Width: 520
GlyphClass: 2
Flags: MW
HStem: 0 12<132 420 132 420> 318 12<132 370 132 370> 638 12<132 420 132 132>
VStem: 120 12<12 318 330 638>
AnchorPoint: "Anchor-7" 275 801 basechar 0
AnchorPoint: "Anchor-6" 403 0 basechar 0
AnchorPoint: "Anchor-5" 275 0 basechar 0
LayerCount: 2
Fore
SplineSet
120 650 m 1
 420 650 l 1
 420 638 l 1
 132 638 l 1
 132 330 l 1
 370 330 l 1
 370 318 l 1
 132 318 l 1
 132 12 l 1
 420 12 l 1
 420 0 l 1
 120 0 l 1
 120 650 l 1
270 701 m 1
 326 801 l 1
 340 801 l 1
 284 701 l 1
 270 701 l 1
EndSplineSet
EndChar

StartChar: Ecaron
Encoding: 282 282 25
Width: 520
GlyphClass: 2
Flags: MW
HStem: 0 12<132 420 132 420> 318 12<132 370 132 370> 638 12<132 420 132 132> 638 162<150 168 382 400 132 168> 701 8<275 275 275 284>
VStem: 120 12<12 318 330 638>
AnchorPoint: "Anchor-7" 275 800 basechar 0
AnchorPoint: "Anchor-6" 403 0 basechar 0
AnchorPoint: "Anchor-5" 275 0 basechar 0
LayerCount: 2
Fore
SplineSet
120 650 m 1xe4
 420 650 l 1
 420 638 l 1
 132 638 l 1
 132 330 l 1
 370 330 l 1
 370 318 l 1
 132 318 l 1
 132 12 l 1
 420 12 l 1
 420 0 l 1
 120 0 l 1
 120 650 l 1xe4
150 800 m 1xd4
 168 800 l 1xd4
 275 709 l 1xec
 382 800 l 1
 400 800 l 1xd4
 284 701 l 1
 266 701 l 1xec
 150 800 l 1xd4
EndSplineSet
EndChar

StartChar: Ecircumflex
Encoding: 202 202 26
Width: 520
GlyphClass: 2
Flags: MW
HStem: 0 12<132 420 132 420> 318 12<132 370 132 370> 638 12<132 420 132 132> 793 8<275 275>
VStem: 120 12<12 318 330 638>
AnchorPoint: "Anchor-7" 275 801 basechar 0
AnchorPoint: "Anchor-6" 403 0 basechar 0
AnchorPoint: "Anchor-5" 275 0 basechar 0
LayerCount: 2
Fore
SplineSet
120 650 m 1
 420 650 l 1
 420 638 l 1
 132 638 l 1
 132 330 l 1
 370 330 l 1
 370 318 l 1
 132 318 l 1
 132 12 l 1
 420 12 l 1
 420 0 l 1
 120 0 l 1
 120 650 l 1
150 702 m 1
 266 801 l 1
 284 801 l 1
 400 702 l 1
 382 702 l 1
 275 793 l 1
 168 702 l 1
 150 702 l 1
EndSplineSet
EndChar

StartChar: Edieresis
Encoding: 203 203 27
Width: 520
GlyphClass: 2
Flags: MW
HStem: 0 12<132 420 132 420> 318 12<132 370 132 370> 638 12<132 420 132 132> 741 42<189 201 349 361>
VStem: 120 12<12 318 330 638> 174 42<756 768> 334 42<756 768>
AnchorPoint: "Anchor-7" 275 822 basechar 0
AnchorPoint: "Anchor-6" 403 0 basechar 0
AnchorPoint: "Anchor-5" 275 0 basechar 0
LayerCount: 2
Fore
SplineSet
120 650 m 1
 420 650 l 1
 420 638 l 1
 132 638 l 1
 132 330 l 1
 370 330 l 1
 370 318 l 1
 132 318 l 1
 132 12 l 1
 420 12 l 1
 420 0 l 1
 120 0 l 1
 120 650 l 1
174 762 m 0
 174 774 183 783 195 783 c 0
 207 783 216 774 216 762 c 0
 216 750 207 741 195 741 c 0
 183 741 174 750 174 762 c 0
334 762 m 0
 334 774 343 783 355 783 c 0
 367 783 376 774 376 762 c 0
 376 750 367 741 355 741 c 0
 343 741 334 750 334 762 c 0
EndSplineSet
EndChar

StartChar: Edotaccent
Encoding: 278 278 28
Width: 520
GlyphClass: 2
Flags: MW
HStem: 0 12<132 420 132 420> 318 12<132 370 132 370> 638 12<132 420 132 132> 741 42<269 281>
VStem: 120 12<12 318 330 638> 254 42<756 768>
AnchorPoint: "Anchor-7" 275 650 basechar 0
AnchorPoint: "Anchor-6" 403 0 basechar 0
AnchorPoint: "Anchor-5" 275 0 basechar 0
LayerCount: 2
Fore
SplineSet
120 650 m 1
 420 650 l 1
 420 638 l 1
 132 638 l 1
 132 330 l 1
 370 330 l 1
 370 318 l 1
 132 318 l 1
 132 12 l 1
 420 12 l 1
 420 0 l 1
 120 0 l 1
 120 650 l 1
254 762 m 0
 254 774 263 783 275 783 c 0
 287 783 296 774 296 762 c 0
 296 750 287 741 275 741 c 0
 263 741 254 750 254 762 c 0
EndSplineSet
EndChar

StartChar: Egrave
Encoding: 200 200 29
Width: 520
GlyphClass: 2
Flags: MW
HStem: 0 12<132 420 132 420> 318 12<132 370 132 370> 638 12<132 420 132 132>
VStem: 120 12<12 318 330 638>
AnchorPoint: "Anchor-7" 275 801 basechar 0
AnchorPoint: "Anchor-6" 403 0 basechar 0
AnchorPoint: "Anchor-5" 275 0 basechar 0
LayerCount: 2
Fore
SplineSet
120 650 m 1
 420 650 l 1
 420 638 l 1
 132 638 l 1
 132 330 l 1
 370 330 l 1
 370 318 l 1
 132 318 l 1
 132 12 l 1
 420 12 l 1
 420 0 l 1
 120 0 l 1
 120 650 l 1
210 801 m 1
 224 801 l 1
 280 701 l 1
 266 701 l 1
 210 801 l 1
EndSplineSet
EndChar

StartChar: Emacron
Encoding: 274 274 30
Width: 520
GlyphClass: 2
Flags: MW
HStem: 0 12<132 420 132 420> 318 12<132 370 132 370> 638 12<132 420 132 132> 754 12<110 440 110 440>
VStem: 120 12<12 318 330 638>
AnchorPoint: "Anchor-7" 275 766 basechar 0
AnchorPoint: "Anchor-6" 403 0 basechar 0
AnchorPoint: "Anchor-5" 275 0 basechar 0
LayerCount: 2
Fore
SplineSet
120 650 m 1
 420 650 l 1
 420 638 l 1
 132 638 l 1
 132 330 l 1
 370 330 l 1
 370 318 l 1
 132 318 l 1
 132 12 l 1
 420 12 l 1
 420 0 l 1
 120 0 l 1
 120 650 l 1
110 754 m 1
 110 766 l 1
 440 766 l 1
 440 754 l 1
 110 754 l 1
EndSplineSet
EndChar

StartChar: Eogonek
Encoding: 280 280 31
Width: 520
GlyphClass: 2
Flags: MW
HStem: -200 12<322 507 322 507> 0 12<132 397 410 420 410 410> 318 12<132 370 132 370> 638 12<132 420 132 132>
VStem: 120 12<12 318 330 638>
AnchorPoint: "Anchor-7" 275 650 basechar 0
AnchorPoint: "Anchor-6" 403 0 basechar 0
AnchorPoint: "Anchor-5" 275 0 basechar 0
LayerCount: 2
Fore
SplineSet
120 650 m 1
 420 650 l 1
 420 638 l 1
 132 638 l 1
 132 330 l 1
 370 330 l 1
 370 318 l 1
 132 318 l 1
 132 12 l 1
 420 12 l 1
 420 0 l 1
 410 0 l 1
 322 -188 l 1
 507 -188 l 1
 507 -200 l 1
 303 -200 l 1
 397 0 l 1
 120 0 l 1
 120 650 l 1
EndSplineSet
EndChar

StartChar: uni1EBC
Encoding: 7868 7868 32
Width: 520
GlyphClass: 2
Flags: MW
HStem: 0 12<132 420 132 420> 318 12<132 370 132 370> 638 12<132 420 132 132> 698 12<328 368.5 328 372.5> 793 12<184.5 228>
VStem: 120 12<12 318 330 638> 133 12<701 729.5 701 734> 410 12<770 800>
AnchorPoint: "Anchor-7" 275 800 basechar 0
AnchorPoint: "Anchor-6" 403 0 basechar 0
AnchorPoint: "Anchor-5" 275 0 basechar 0
LayerCount: 2
Fore
SplineSet
120 650 m 1
 420 650 l 1
 420 638 l 1
 132 638 l 1
 132 330 l 1
 370 330 l 1
 370 318 l 1
 132 318 l 1
 132 12 l 1
 420 12 l 1
 420 0 l 1
 120 0 l 1
 120 650 l 1
133 701 m 1xfb
 133 767 162 805 201 805 c 0
 265 805 302 710 354 710 c 0
 383 710 410 740 410 800 c 1
 422 800 l 1
 422 732 390 698 355 698 c 0
 297 698 255 793 201 793 c 0
 168 793 145 758 145 701 c 1
 133 701 l 1xfb
EndSplineSet
EndChar

StartChar: F
Encoding: 70 70 33
Width: 520
GlyphClass: 2
Flags: MW
HStem: 314 12<132 420 132 420> 638 12<132 420 132 132>
VStem: 120 12<0 314 326 638>
AnchorPoint: "Anchor-7" 260 650 basechar 0
AnchorPoint: "Anchor-5" 260 0 basechar 0
LayerCount: 2
Fore
SplineSet
120 650 m 1
 420 650 l 1
 420 638 l 1
 132 638 l 1
 132 326 l 1
 420 326 l 1
 420 314 l 1
 132 314 l 1
 132 0 l 1
 120 0 l 1
 120 650 l 1
EndSplineSet
EndChar

StartChar: G
Encoding: 71 71 34
Width: 605
GlyphClass: 2
Flags: MW
HStem: 0 12<300.5 513 395 513 395 525> 638 12<304.5 515 395 515>
VStem: 80 12<231 420 231 422> 513 12<12 330 0 330>
AnchorPoint: "Anchor-7" 405 649 basechar 0
AnchorPoint: "Anchor-5" 405 0 basechar 0
LayerCount: 2
Fore
SplineSet
395 0 m 2
 206 0 80 130 80 325 c 0
 80 519 206 650 395 650 c 2
 515 650 l 1
 515 638 l 1
 395 638 l 2
 214 638 92 515 92 325 c 0
 92 137 213 12 395 12 c 2
 513 12 l 1
 513 330 l 1
 525 330 l 1
 525 0 l 1
 395 0 l 2
EndSplineSet
EndChar

StartChar: Gbreve
Encoding: 286 286 35
Width: 605
GlyphClass: 2
Flags: MW
HStem: 0 12<300.5 513 395 513 395 525> 638 12<304.5 515 395 515> 698 12<378.5 431.5 378.5 434.5>
VStem: 80 12<231 420 231 422> 306 12<772 799 772 799> 492 12<772 799> 513 12<12 330 0 330>
AnchorPoint: "Anchor-7" 405 799 basechar 0
AnchorPoint: "Anchor-5" 405 0 basechar 0
LayerCount: 2
Fore
SplineSet
395 0 m 2
 206 0 80 130 80 325 c 0
 80 519 206 650 395 650 c 2
 515 650 l 1
 515 638 l 1
 395 638 l 2
 214 638 92 515 92 325 c 0
 92 137 213 12 395 12 c 2
 513 12 l 1
 513 330 l 1
 525 330 l 1
 525 0 l 1
 395 0 l 2
306 799 m 1
 318 799 l 1
 318 745 352 710 405 710 c 0
 458 710 492 745 492 799 c 1
 504 799 l 1xfe
 504 738 464 698 405 698 c 0
 346 698 306 738 306 799 c 1
EndSplineSet
EndChar

StartChar: uni0122
Encoding: 290 290 36
Width: 605
GlyphClass: 2
Flags: MW
HStem: 0 12<300.5 513 395 513 395 525> 638 12<304.5 515 395 515>
VStem: 80 12<231 420 231 422> 513 12<12 330 0 330>
AnchorPoint: "Anchor-7" 405 649 basechar 0
AnchorPoint: "Anchor-5" 365 -200 basechar 0
LayerCount: 2
Fore
SplineSet
395 0 m 2
 206 0 80 130 80 325 c 0
 80 519 206 650 395 650 c 2
 515 650 l 1
 515 638 l 1
 395 638 l 2
 214 638 92 515 92 325 c 0
 92 137 213 12 395 12 c 2
 513 12 l 1
 513 330 l 1
 525 330 l 1
 525 0 l 1
 395 0 l 2
326 -200 m 1
 398 -46 l 1
 411 -46 l 1
 339 -200 l 1
 326 -200 l 1
EndSplineSet
EndChar

StartChar: Gdotaccent
Encoding: 288 288 37
Width: 605
GlyphClass: 2
Flags: MW
HStem: 0 12<300.5 513 395 513 395 525> 638 12<304.5 515 395 515> 740 42<399 411>
VStem: 80 12<231 420 231 422> 384 42<755 767> 513 12<12 330 0 330>
AnchorPoint: "Anchor-7" 405 649 basechar 0
AnchorPoint: "Anchor-5" 405 0 basechar 0
LayerCount: 2
Fore
SplineSet
395 0 m 2
 206 0 80 130 80 325 c 0
 80 519 206 650 395 650 c 2
 515 650 l 1
 515 638 l 1
 395 638 l 2
 214 638 92 515 92 325 c 0
 92 137 213 12 395 12 c 2
 513 12 l 1
 513 330 l 1
 525 330 l 1
 525 0 l 1
 395 0 l 2
384 761 m 0
 384 773 393 782 405 782 c 0
 417 782 426 773 426 761 c 0
 426 749 417 740 405 740 c 0
 393 740 384 749 384 761 c 0
EndSplineSet
EndChar

StartChar: H
Encoding: 72 72 38
Width: 635
GlyphClass: 2
Flags: MW
HStem: 320 12<132 503 132 503>
VStem: 120 12<0 320 332 650> 503 12<0 320 320 320 332 650 0 650>
AnchorPoint: "Anchor-7" 318 650 basechar 0
AnchorPoint: "Anchor-5" 318 0 basechar 0
LayerCount: 2
Fore
SplineSet
120 650 m 1
 132 650 l 1
 132 332 l 1
 503 332 l 1
 503 650 l 1
 515 650 l 1
 515 0 l 1
 503 0 l 1
 503 320 l 1
 132 320 l 1
 132 0 l 1
 120 0 l 1
 120 650 l 1
EndSplineSet
EndChar

StartChar: Hbar
Encoding: 294 294 39
Width: 635
GlyphClass: 2
Flags: MW
HStem: 320 12<132 503 132 503> 520 12<30 120 30 120 132 503 515 605> 520 130<30 132 30 132 120 132 120 503>
VStem: 120 12<0 320 332 520 532 650> 503 12<0 320 320 320 332 520 0 520 532 650>
AnchorPoint: "Anchor-7" 318 650 basechar 0
AnchorPoint: "Anchor-6" 508 0 basechar 0
AnchorPoint: "Anchor-5" 318 0 basechar 0
LayerCount: 2
Fore
SplineSet
30 532 m 1xd8
 120 532 l 1xd8
 120 650 l 1
 132 650 l 1xb8
 132 532 l 1
 503 532 l 1xd8
 503 650 l 1
 515 650 l 1xb8
 515 532 l 1
 605 532 l 1
 605 520 l 1
 515 520 l 1
 515 0 l 1
 503 0 l 1
 503 320 l 1
 132 320 l 1
 132 0 l 1
 120 0 l 1
 120 520 l 1
 30 520 l 1
 30 532 l 1xd8
132 332 m 1
 503 332 l 1
 503 520 l 1
 132 520 l 1
 132 332 l 1
EndSplineSet
EndChar

StartChar: I
Encoding: 73 73 40
Width: 300
GlyphClass: 2
Flags: MW
HStem: 0 650<144 156 144 156>
VStem: 144 12<0 650 0 650>
AnchorPoint: "Anchor-7" 150 649 basechar 0
AnchorPoint: "Anchor-6" 149 0 basechar 0
AnchorPoint: "Anchor-5" 150 0 basechar 0
LayerCount: 2
Fore
SplineSet
144 0 m 1
 144 650 l 1
 156 650 l 1
 156 0 l 1
 144 0 l 1
EndSplineSet
EndChar

StartChar: IJ
Encoding: 306 306 41
AltUni2: 000133.ffffffff.0 000133.ffffffff.0
Width: 536
GlyphClass: 1
Flags: MW
HStem: -10 12<230.5 305.5 230.5 308.5>
VStem: 120 12<150 181 300 649> 404 12<150 649>
LayerCount: 2
Fore
SplineSet
120 300 m 1
 120 649 l 1
 132 649 l 1
 132 300 l 1
 120 300 l 1
120 150 m 2
 120 181 l 1
 132 181 l 1
 132 150 l 2
 132 60 193 2 268 2 c 0
 343 2 404 60 404 150 c 2
 404 649 l 1
 416 649 l 1
 416 150 l 2
 416 54 349 -10 268 -10 c 0
 187 -10 120 54 120 150 c 2
EndSplineSet
EndChar

StartChar: Iacute
Encoding: 205 205 42
Width: 300
GlyphClass: 2
Flags: MW
HStem: 0 800<144 215 144 215>
VStem: 144 12<0 650 0 650>
AnchorPoint: "Anchor-7" 150 800 basechar 0
AnchorPoint: "Anchor-6" 149 0 basechar 0
AnchorPoint: "Anchor-5" 150 0 basechar 0
LayerCount: 2
Fore
SplineSet
144 0 m 1
 144 650 l 1
 156 650 l 1
 156 0 l 1
 144 0 l 1
145 700 m 1
 201 800 l 1
 215 800 l 1
 159 700 l 1
 145 700 l 1
EndSplineSet
EndChar

StartChar: Icircumflex
Encoding: 206 206 43
Width: 300
GlyphClass: 2
Flags: MW
HStem: 792 8<150 150>
VStem: 144 12<0 650 0 650>
AnchorPoint: "Anchor-7" 150 800 basechar 0
AnchorPoint: "Anchor-6" 149 0 basechar 0
AnchorPoint: "Anchor-5" 150 0 basechar 0
LayerCount: 2
Fore
SplineSet
144 0 m 1
 144 650 l 1
 156 650 l 1
 156 0 l 1
 144 0 l 1
25 701 m 1
 141 800 l 1
 159 800 l 1
 275 701 l 1
 257 701 l 1
 150 792 l 1
 43 701 l 1
 25 701 l 1
EndSplineSet
EndChar

StartChar: Idieresis
Encoding: 207 207 44
Width: 300
GlyphClass: 2
Flags: MW
HStem: 740 42<64 76 224 236>
VStem: 49 42<755 767> 144 12<0 650 0 650> 209 42<755 767>
AnchorPoint: "Anchor-7" 150 821 basechar 0
AnchorPoint: "Anchor-6" 149 0 basechar 0
AnchorPoint: "Anchor-5" 150 0 basechar 0
LayerCount: 2
Fore
SplineSet
144 0 m 1
 144 650 l 1
 156 650 l 1
 156 0 l 1
 144 0 l 1
49 761 m 0
 49 773 58 782 70 782 c 0
 82 782 91 773 91 761 c 0
 91 749 82 740 70 740 c 0
 58 740 49 749 49 761 c 0
209 761 m 0
 209 773 218 782 230 782 c 0
 242 782 251 773 251 761 c 0
 251 749 242 740 230 740 c 0
 218 740 209 749 209 761 c 0
EndSplineSet
EndChar

StartChar: Idotaccent
Encoding: 304 304 45
Width: 300
GlyphClass: 2
Flags: MW
HStem: 740 42<144 156>
VStem: 129 42<755 767> 144 12<0 650 0 650>
AnchorPoint: "Anchor-7" 150 649 basechar 0
AnchorPoint: "Anchor-6" 149 0 basechar 0
AnchorPoint: "Anchor-5" 150 0 basechar 0
LayerCount: 2
Fore
SplineSet
144 0 m 1xa0
 144 650 l 1
 156 650 l 1
 156 0 l 1
 144 0 l 1xa0
129 761 m 0xc0
 129 773 138 782 150 782 c 0
 162 782 171 773 171 761 c 0
 171 749 162 740 150 740 c 0
 138 740 129 749 129 761 c 0xc0
EndSplineSet
EndChar

StartChar: Igrave
Encoding: 204 204 46
Width: 300
GlyphClass: 2
Flags: MW
HStem: 0 800<85 144 85 156>
VStem: 144 12<0 650 0 650>
AnchorPoint: "Anchor-7" 150 800 basechar 0
AnchorPoint: "Anchor-6" 149 0 basechar 0
AnchorPoint: "Anchor-5" 150 0 basechar 0
LayerCount: 2
Fore
SplineSet
144 0 m 1
 144 650 l 1
 156 650 l 1
 156 0 l 1
 144 0 l 1
85 800 m 1
 99 800 l 1
 155 700 l 1
 141 700 l 1
 85 800 l 1
EndSplineSet
EndChar

StartChar: Imacron
Encoding: 298 298 47
Width: 300
GlyphClass: 2
Flags: MW
HStem: 754 12<15 285 15 285>
VStem: 144 12<0 650 0 650>
AnchorPoint: "Anchor-7" 150 800 basechar 0
AnchorPoint: "Anchor-6" 149 0 basechar 0
AnchorPoint: "Anchor-5" 150 0 basechar 0
LayerCount: 2
Fore
SplineSet
144 0 m 1
 144 650 l 1
 156 650 l 1
 156 0 l 1
 144 0 l 1
15 754 m 1
 15 766 l 1
 285 766 l 1
 285 754 l 1
 15 754 l 1
EndSplineSet
EndChar

StartChar: Iogonek
Encoding: 302 302 48
Width: 300
GlyphClass: 2
Flags: MW
HStem: -200 12<68 253 68 253>
VStem: 144 12<2 650 0 650>
AnchorPoint: "Anchor-7" 150 649 basechar 0
AnchorPoint: "Anchor-6" 149 0 basechar 0
AnchorPoint: "Anchor-5" 150 0 basechar 0
LayerCount: 2
Fore
SplineSet
49 -200 m 1
 144 2 l 1
 144 650 l 1
 156 650 l 1
 156 0 l 1
 68 -188 l 1
 253 -188 l 1
 253 -200 l 1
 49 -200 l 1
EndSplineSet
EndChar

StartChar: Itilde
Encoding: 296 296 49
Width: 300
GlyphClass: 2
Flags: MW
HStem: 697 12<203 243.5 203 247.5> 792 12<59.5 103>
VStem: 8 12<700 728.5 700 733> 144 12<0 650 0 650> 285 12<769 799>
AnchorPoint: "Anchor-7" 150 799 basechar 0
AnchorPoint: "Anchor-6" 149 0 basechar 0
AnchorPoint: "Anchor-5" 150 0 basechar 0
LayerCount: 2
Fore
SplineSet
144 0 m 1
 144 650 l 1
 156 650 l 1
 156 0 l 1
 144 0 l 1
8 700 m 1
 8 766 37 804 76 804 c 0
 140 804 177 709 229 709 c 0
 258 709 285 739 285 799 c 1
 297 799 l 1
 297 731 265 697 230 697 c 0
 172 697 130 792 76 792 c 0
 43 792 20 757 20 700 c 1
 8 700 l 1
EndSplineSet
EndChar

StartChar: J
Encoding: 74 74 50
Width: 486
GlyphClass: 2
Flags: MW
HStem: -10 12<180.5 255.5 180.5 258.5>
VStem: 70 12<150 276> 354 12<150 650>
AnchorPoint: "Anchor-7" 360 650 basechar 0
AnchorPoint: "Anchor-5" 218 0 basechar 0
LayerCount: 2
Fore
SplineSet
218 -10 m 0
 137 -10 70 54 70 150 c 2
 70 276 l 1
 82 276 l 1
 82 150 l 2
 82 60 143 2 218 2 c 0
 293 2 354 60 354 150 c 2
 354 650 l 1
 366 650 l 1
 366 150 l 2
 366 54 299 -10 218 -10 c 0
EndSplineSet
Substitution2: "Single Substitution lookup 16 subtable" uni004A0301
Substitution2: "'aalt' Access All Alternates in Latin lookup 0 subtable" uni004A0301
EndChar

StartChar: uni004A0301
Encoding: 65537 -1 51
Width: 486
GlyphClass: 2
Flags: MW
HStem: -10 12<180.5 255.5 180.5 258.5>
VStem: 70 12<150 276> 354 12<150 650>
AnchorPoint: "Anchor-7" 360 801 basechar 0
AnchorPoint: "Anchor-5" 218 0 basechar 0
LayerCount: 2
Fore
SplineSet
218 -10 m 0
 137 -10 70 54 70 150 c 2
 70 276 l 1
 82 276 l 1
 82 150 l 2
 82 60 143 2 218 2 c 0
 293 2 354 60 354 150 c 2
 354 650 l 1
 366 650 l 1
 366 150 l 2
 366 54 299 -10 218 -10 c 0
355 701 m 1
 411 801 l 1
 425 801 l 1
 369 701 l 1
 355 701 l 1
EndSplineSet
EndChar

StartChar: K
Encoding: 75 75 52
Width: 590
GlyphClass: 2
Flags: MW
HStem: 306 12<132 371 132 371 132 376>
VStem: 120 12<0 306 318 650>
AnchorPoint: "Anchor-7" 308 649 basechar 0
AnchorPoint: "Anchor-5" 308 0 basechar 0
LayerCount: 2
Fore
SplineSet
132 306 m 1
 132 0 l 1
 120 0 l 1
 120 650 l 1
 132 650 l 1
 132 318 l 1
 371 318 l 1
 509 650 l 1
 522 650 l 1
 384 318 l 1
 540 0 l 1
 529 0 l 1
 376 306 l 1
 132 306 l 1
EndSplineSet
Substitution2: "'ss02' Style Set 2 in Latin lookup 10 subtable" K.ss02
Substitution2: "'aalt' Access All Alternates in Latin lookup 0 subtable" K.ss02
EndChar

StartChar: uni0136
Encoding: 310 310 53
Width: 590
GlyphClass: 2
Flags: MW
HStem: 306 12<132 371 132 371 132 376>
VStem: 120 12<0 306 318 650>
AnchorPoint: "Anchor-7" 308 649 basechar 0
AnchorPoint: "Anchor-5" 268 -200 basechar 0
LayerCount: 2
Fore
SplineSet
132 306 m 1
 132 0 l 1
 120 0 l 1
 120 650 l 1
 132 650 l 1
 132 318 l 1
 371 318 l 1
 509 650 l 1
 522 650 l 1
 384 318 l 1
 540 0 l 1
 529 0 l 1
 376 306 l 1
 132 306 l 1
229 -200 m 1
 301 -46 l 1
 314 -46 l 1
 242 -200 l 1
 229 -200 l 1
EndSplineSet
EndChar

StartChar: L
Encoding: 76 76 54
Width: 535
GlyphClass: 2
Flags: MW
HStem: 0 12<132 485 132 485>
VStem: 120 12<12 650 12 650 12 650>
AnchorPoint: "Anchor-7" 126 649 basechar 0
AnchorPoint: "Anchor-5" 283 0 basechar 0
LayerCount: 2
Fore
SplineSet
120 0 m 1
 120 650 l 1
 132 650 l 1
 132 12 l 1
 485 12 l 1
 485 0 l 1
 120 0 l 1
EndSplineSet
EndChar

StartChar: Lacute
Encoding: 313 313 55
Width: 535
GlyphClass: 2
Flags: MW
HStem: 0 12<132 485 132 485>
VStem: 120 12<12 650 12 650 12 650>
AnchorPoint: "Anchor-7" 126 800 basechar 0
AnchorPoint: "Anchor-5" 283 0 basechar 0
LayerCount: 2
Fore
SplineSet
120 0 m 1
 120 650 l 1
 132 650 l 1
 132 12 l 1
 485 12 l 1
 485 0 l 1
 120 0 l 1
121 700 m 1
 177 800 l 1
 191 800 l 1
 135 700 l 1
 121 700 l 1
EndSplineSet
EndChar

StartChar: Lcaron
Encoding: 317 317 56
Width: 535
GlyphClass: 2
Flags: MW
HStem: 0 12<132 485 132 485> 700 8<126 126 126 135>
VStem: 120 12<12 650 12 650 12 650>
AnchorPoint: "Anchor-7" 126 799 basechar 0
AnchorPoint: "Anchor-5" 283 0 basechar 0
LayerCount: 2
Fore
SplineSet
120 0 m 1
 120 650 l 1
 132 650 l 1
 132 12 l 1
 485 12 l 1
 485 0 l 1
 120 0 l 1
1 799 m 1
 19 799 l 1
 126 708 l 1
 233 799 l 1
 251 799 l 1
 135 700 l 1
 117 700 l 1
 1 799 l 1
EndSplineSet
EndChar

StartChar: uni013B
Encoding: 315 315 57
Width: 535
GlyphClass: 2
Flags: MW
HStem: 0 12<132 485 132 485>
VStem: 120 12<12 650 12 650 12 650>
AnchorPoint: "Anchor-7" 126 649 basechar 0
AnchorPoint: "Anchor-5" 243 -200 basechar 0
LayerCount: 2
Fore
SplineSet
120 0 m 1
 120 650 l 1
 132 650 l 1
 132 12 l 1
 485 12 l 1
 485 0 l 1
 120 0 l 1
204 -200 m 1
 276 -46 l 1
 289 -46 l 1
 217 -200 l 1
 204 -200 l 1
EndSplineSet
EndChar

StartChar: Ldot
Encoding: 319 319 58
Width: 535
GlyphClass: 2
Flags: MW
HStem: 0 12<132 485 132 485> 280 100<411.5 439>
VStem: 120 12<12 650 12 650 12 650> 375 100<316.5 344>
AnchorPoint: "Anchor-7" 126 649 basechar 0
AnchorPoint: "Anchor-5" 283 0 basechar 0
LayerCount: 2
Fore
SplineSet
120 0 m 1
 120 650 l 1
 132 650 l 1
 132 12 l 1
 485 12 l 1
 485 0 l 1
 120 0 l 1
375 330 m 0
 375 358 398 380 425 380 c 0
 453 380 475 358 475 330 c 0
 475 303 453 280 425 280 c 0
 398 280 375 303 375 330 c 0
EndSplineSet
Ligature2: "Ligature Substitution lookup 15 subtable" L periodcentered
EndChar

StartChar: Lslash
Encoding: 321 321 59
Width: 535
GlyphClass: 2
Flags: MW
HStem: 0 12<132 485 132 485>
VStem: 120 12<12 277 277 277 302 650>
AnchorPoint: "Anchor-7" 126 649 basechar 0
AnchorPoint: "Anchor-5" 283 0 basechar 0
LayerCount: 2
Fore
SplineSet
50 224 m 1
 50 240 l 1
 120 293 l 1
 120 650 l 1
 132 650 l 1
 132 302 l 1
 325 448 l 1
 325 433 l 1
 132 286 l 1
 132 12 l 1
 485 12 l 1
 485 0 l 1
 120 0 l 1
 120 277 l 1
 50 224 l 1
EndSplineSet
EndChar

StartChar: M
Encoding: 77 77 60
Width: 836
GlyphClass: 2
Flags: MW
HStem: 311 12<378 451 385 451 385 458> 638 12<132 194 132 132 642 642 642 704>
VStem: 120 12<0 638 0 650> 704 12<0 638 638 638>
AnchorPoint: "Anchor-7" 418 650 basechar 0
AnchorPoint: "Anchor-6" 699 0 basechar 0
AnchorPoint: "Anchor-5" 418 0 basechar 0
LayerCount: 2
Fore
SplineSet
378 311 m 1
 194 638 l 1
 132 638 l 1
 132 0 l 1
 120 0 l 1
 120 650 l 1
 201 650 l 1
 385 323 l 1
 451 323 l 1
 635 650 l 1
 716 650 l 1
 716 0 l 1
 704 0 l 1
 704 638 l 1
 642 638 l 1
 458 311 l 1
 378 311 l 1
EndSplineSet
EndChar

StartChar: N
Encoding: 78 78 61
Width: 635
GlyphClass: 2
Flags: MW
HStem: 311 12<435 503 441 503 441 503> 638 12<132 194 132 132>
VStem: 120 12<0 638 0 650> 503 12<0 311 311 311 323 650 0 650>
AnchorPoint: "Anchor-7" 318 650 basechar 0
AnchorPoint: "Anchor-5" 318 0 basechar 0
LayerCount: 2
Fore
SplineSet
435 311 m 1
 194 638 l 1
 132 638 l 1
 132 0 l 1
 120 0 l 1
 120 650 l 1
 200 650 l 1
 441 323 l 1
 503 323 l 1
 503 650 l 1
 515 650 l 1
 515 0 l 1
 503 0 l 1
 503 311 l 1
 435 311 l 1
EndSplineSet
EndChar

StartChar: Nacute
Encoding: 323 323 62
Width: 635
GlyphClass: 2
Flags: MW
HStem: 311 12<435 503 441 503 441 503> 638 12<132 194 132 132>
VStem: 120 12<0 638 0 650> 503 12<0 311 311 311 323 650 0 650>
AnchorPoint: "Anchor-7" 318 801 basechar 0
AnchorPoint: "Anchor-5" 318 0 basechar 0
LayerCount: 2
Fore
SplineSet
435 311 m 1
 194 638 l 1
 132 638 l 1
 132 0 l 1
 120 0 l 1
 120 650 l 1
 200 650 l 1
 441 323 l 1
 503 323 l 1
 503 650 l 1
 515 650 l 1
 515 0 l 1
 503 0 l 1
 503 311 l 1
 435 311 l 1
313 701 m 1
 369 801 l 1
 383 801 l 1
 327 701 l 1
 313 701 l 1
EndSplineSet
EndChar

StartChar: Ncaron
Encoding: 327 327 63
Width: 635
GlyphClass: 2
Flags: MW
HStem: 311 12<435 503 441 503 441 503> 638 12<132 194 132 132> 701 8<318 318 318 327>
VStem: 120 12<0 638 0 650> 503 12<0 311 311 311 323 650 0 650>
AnchorPoint: "Anchor-7" 318 800 basechar 0
AnchorPoint: "Anchor-5" 318 0 basechar 0
LayerCount: 2
Fore
SplineSet
435 311 m 1
 194 638 l 1
 132 638 l 1
 132 0 l 1
 120 0 l 1
 120 650 l 1
 200 650 l 1
 441 323 l 1
 503 323 l 1
 503 650 l 1
 515 650 l 1
 515 0 l 1
 503 0 l 1
 503 311 l 1
 435 311 l 1
193 800 m 1
 211 800 l 1
 318 709 l 1
 425 800 l 1
 443 800 l 1
 327 701 l 1
 309 701 l 1
 193 800 l 1
EndSplineSet
EndChar

StartChar: uni0145
Encoding: 325 325 64
Width: 635
GlyphClass: 2
Flags: MW
HStem: 311 12<435 503 441 503 441 503> 638 12<132 194 132 132>
VStem: 120 12<0 638 0 650> 503 12<0 311 311 311 323 650 0 650>
AnchorPoint: "Anchor-7" 318 650 basechar 0
AnchorPoint: "Anchor-5" 278 -200 basechar 0
LayerCount: 2
Fore
SplineSet
435 311 m 1
 194 638 l 1
 132 638 l 1
 132 0 l 1
 120 0 l 1
 120 650 l 1
 200 650 l 1
 441 323 l 1
 503 323 l 1
 503 650 l 1
 515 650 l 1
 515 0 l 1
 503 0 l 1
 503 311 l 1
 435 311 l 1
239 -200 m 1
 311 -46 l 1
 324 -46 l 1
 252 -200 l 1
 239 -200 l 1
EndSplineSet
EndChar

StartChar: Ntilde
Encoding: 209 209 65
Width: 635
GlyphClass: 2
Flags: MW
HStem: 311 12<435 503 441 503 441 503> 638 12<132 194 132 132> 698 12<371 411.5 371 415.5> 793 12<227.5 271>
VStem: 120 12<0 638 0 650> 176 12<701 729.5 701 734> 453 12<770 800> 503 12<0 311 311 311 323 650 0 650>
AnchorPoint: "Anchor-7" 318 800 basechar 0
AnchorPoint: "Anchor-5" 318 0 basechar 0
LayerCount: 2
Fore
SplineSet
435 311 m 1
 194 638 l 1
 132 638 l 1
 132 0 l 1
 120 0 l 1
 120 650 l 1
 200 650 l 1
 441 323 l 1
 503 323 l 1
 503 650 l 1
 515 650 l 1
 515 0 l 1
 503 0 l 1
 503 311 l 1
 435 311 l 1
176 701 m 1
 176 767 205 805 244 805 c 0
 308 805 345 710 397 710 c 0
 426 710 453 740 453 800 c 1
 465 800 l 1
 465 732 433 698 398 698 c 0
 340 698 298 793 244 793 c 0
 211 793 188 758 188 701 c 1
 176 701 l 1
EndSplineSet
EndChar

StartChar: Eng
Encoding: 330 330 66
Width: 635
GlyphClass: 2
Flags: MW
HStem: -200 12<359 503 359 515 359 503> 310 12<435 503 441 503 441 503> 637 12<132 194 132 200>
VStem: 120 12<0 637 649 650> 359 156<-200 -188 -188 -188> 503 12<-188 310 310 310 322 649 -200 649>
AnchorPoint: "Anchor-7" 126 649 basechar 0
AnchorPoint: "Anchor-6" 125 0 basechar 0
AnchorPoint: "Anchor-5" 126 0 basechar 0
LayerCount: 2
Fore
SplineSet
435 310 m 1xf4
 194 637 l 1
 132 637 l 1
 132 0 l 1
 120 0 l 1
 120 650 l 1
 132 650 l 1
 132 649 l 1
 200 649 l 1
 441 322 l 1
 503 322 l 1
 503 649 l 1
 515 649 l 1
 515 -200 l 1xf4
 359 -200 l 1
 359 -188 l 1xf8
 503 -188 l 1
 503 310 l 1
 435 310 l 1xf4
EndSplineSet
EndChar

StartChar: O
Encoding: 79 79 67
Width: 840
GlyphClass: 2
Flags: MW
HStem: -16 12<329 509.5 329 514> 652 12<329 511>
VStem: 80 12<233 415 233 418> 748 12<233 415>
AnchorPoint: "Anchor-7" 420 648 basechar 0
AnchorPoint: "Anchor-6" 746 10 basechar 0
AnchorPoint: "Anchor-5" 420 0 basechar 0
LayerCount: 2
Fore
SplineSet
420 -16 m 0
 232 -16 80 136 80 324 c 0
 80 512 232 664 420 664 c 0
 608 664 760 512 760 324 c 0
 760 136 608 -16 420 -16 c 0
92 324 m 0
 92 142 238 -4 420 -4 c 0
 599 -4 748 142 748 324 c 0
 748 506 602 652 420 652 c 0
 238 652 92 506 92 324 c 0
EndSplineSet
Substitution2: "'ss05' Style Set 5 in Latin lookup 13 subtable" O.ss05
Substitution2: "'ss04' Style Set 4 in Latin lookup 12 subtable" O.ss04
AlternateSubs2: "'aalt' Access All Alternates in Latin lookup 1 subtable" O.ss04 O.ss05
EndChar

StartChar: Oacute
Encoding: 211 211 68
Width: 840
GlyphClass: 2
Flags: MW
HStem: -16 12<329 509.5 329 514> 652 12<329 511>
VStem: 80 12<233 415 233 418> 748 12<233 415>
AnchorPoint: "Anchor-7" 420 799 basechar 0
AnchorPoint: "Anchor-6" 746 10 basechar 0
AnchorPoint: "Anchor-5" 420 0 basechar 0
LayerCount: 2
Fore
SplineSet
420 -16 m 0
 232 -16 80 136 80 324 c 0
 80 512 232 664 420 664 c 0
 608 664 760 512 760 324 c 0
 760 136 608 -16 420 -16 c 0
92 324 m 0
 92 142 238 -4 420 -4 c 0
 599 -4 748 142 748 324 c 0
 748 506 602 652 420 652 c 0
 238 652 92 506 92 324 c 0
415 699 m 1
 471 799 l 1
 485 799 l 1
 429 699 l 1
 415 699 l 1
EndSplineSet
Substitution2: "'ss05' Style Set 5 in Latin lookup 13 subtable" Oacute.ss05
Substitution2: "'ss04' Style Set 4 in Latin lookup 12 subtable" Oacute.ss04
AlternateSubs2: "'aalt' Access All Alternates in Latin lookup 1 subtable" Oacute.ss04 Oacute.ss05
EndChar

StartChar: Ocircumflex
Encoding: 212 212 69
Width: 840
GlyphClass: 2
Flags: MW
HStem: -16 12<329 509.5 329 514> 652 12<329 511> 791 8<420 420>
VStem: 80 12<233 415 233 418> 748 12<233 415>
AnchorPoint: "Anchor-7" 420 799 basechar 0
AnchorPoint: "Anchor-6" 746 10 basechar 0
AnchorPoint: "Anchor-5" 420 0 basechar 0
LayerCount: 2
Fore
SplineSet
420 -16 m 0
 232 -16 80 136 80 324 c 0
 80 512 232 664 420 664 c 0
 608 664 760 512 760 324 c 0
 760 136 608 -16 420 -16 c 0
92 324 m 0
 92 142 238 -4 420 -4 c 0
 599 -4 748 142 748 324 c 0
 748 506 602 652 420 652 c 0
 238 652 92 506 92 324 c 0
295 700 m 1
 411 799 l 1
 429 799 l 1
 545 700 l 1
 527 700 l 1
 420 791 l 1
 313 700 l 1
 295 700 l 1
EndSplineSet
Substitution2: "'ss05' Style Set 5 in Latin lookup 13 subtable" Ocircumflex.ss05
Substitution2: "'ss04' Style Set 4 in Latin lookup 12 subtable" Ocircumflex.ss04
AlternateSubs2: "'aalt' Access All Alternates in Latin lookup 1 subtable" Ocircumflex.ss04 Ocircumflex.ss05
EndChar

StartChar: Odieresis
Encoding: 214 214 70
Width: 840
GlyphClass: 2
Flags: MW
HStem: -16 12<329 509.5 329 514> 652 12<329 511> 739 42<334 346 494 506>
VStem: 80 12<233 415 233 418> 319 42<754 766> 479 42<754 766> 748 12<233 415>
AnchorPoint: "Anchor-7" 420 820 basechar 0
AnchorPoint: "Anchor-6" 746 10 basechar 0
AnchorPoint: "Anchor-5" 420 0 basechar 0
LayerCount: 2
Fore
SplineSet
420 -16 m 0
 232 -16 80 136 80 324 c 0
 80 512 232 664 420 664 c 0
 608 664 760 512 760 324 c 0
 760 136 608 -16 420 -16 c 0
92 324 m 0
 92 142 238 -4 420 -4 c 0
 599 -4 748 142 748 324 c 0
 748 506 602 652 420 652 c 0
 238 652 92 506 92 324 c 0
319 760 m 0
 319 772 328 781 340 781 c 0
 352 781 361 772 361 760 c 0
 361 748 352 739 340 739 c 0
 328 739 319 748 319 760 c 0
479 760 m 0
 479 772 488 781 500 781 c 0
 512 781 521 772 521 760 c 0
 521 748 512 739 500 739 c 0
 488 739 479 748 479 760 c 0
EndSplineSet
Substitution2: "'ss05' Style Set 5 in Latin lookup 13 subtable" Odieresis.ss05
Substitution2: "'ss04' Style Set 4 in Latin lookup 12 subtable" Odieresis.ss04
AlternateSubs2: "'aalt' Access All Alternates in Latin lookup 1 subtable" Odieresis.ss04 Odieresis.ss05
EndChar

StartChar: Ograve
Encoding: 210 210 71
Width: 840
GlyphClass: 2
Flags: MW
HStem: -16 12<329 509.5 329 514> 652 12<329 511>
VStem: 80 12<233 415 233 418> 748 12<233 415>
AnchorPoint: "Anchor-7" 420 799 basechar 0
AnchorPoint: "Anchor-6" 746 10 basechar 0
AnchorPoint: "Anchor-5" 420 0 basechar 0
LayerCount: 2
Fore
SplineSet
420 -16 m 0
 232 -16 80 136 80 324 c 0
 80 512 232 664 420 664 c 0
 608 664 760 512 760 324 c 0
 760 136 608 -16 420 -16 c 0
92 324 m 0
 92 142 238 -4 420 -4 c 0
 599 -4 748 142 748 324 c 0
 748 506 602 652 420 652 c 0
 238 652 92 506 92 324 c 0
355 799 m 1
 369 799 l 1
 425 699 l 1
 411 699 l 1
 355 799 l 1
EndSplineSet
Substitution2: "'ss05' Style Set 5 in Latin lookup 13 subtable" Ograve.ss05
Substitution2: "'ss04' Style Set 4 in Latin lookup 12 subtable" Ograve.ss04
AlternateSubs2: "'aalt' Access All Alternates in Latin lookup 1 subtable" Ograve.ss04 Ograve.ss05
EndChar

StartChar: Ohungarumlaut
Encoding: 336 336 72
Width: 840
GlyphClass: 2
Flags: MW
HStem: -16 12<329 509.5 329 514> 652 12<329 511>
VStem: 80 12<233 415 233 418> 748 12<233 415>
AnchorPoint: "Anchor-7" 420 879 basechar 0
AnchorPoint: "Anchor-6" 746 10 basechar 0
AnchorPoint: "Anchor-5" 420 0 basechar 0
LayerCount: 2
Fore
SplineSet
420 -16 m 0
 232 -16 80 136 80 324 c 0
 80 512 232 664 420 664 c 0
 608 664 760 512 760 324 c 0
 760 136 608 -16 420 -16 c 0
92 324 m 0
 92 142 238 -4 420 -4 c 0
 599 -4 748 142 748 324 c 0
 748 506 602 652 420 652 c 0
 238 652 92 506 92 324 c 0
325 699 m 1
 381 879 l 1
 394 879 l 1
 338 699 l 1
 325 699 l 1
506 699 m 1
 562 879 l 1
 575 879 l 1
 519 699 l 1
 506 699 l 1
EndSplineSet
Substitution2: "'ss05' Style Set 5 in Latin lookup 13 subtable" Ohungarumlaut.ss05
Substitution2: "'ss04' Style Set 4 in Latin lookup 12 subtable" Ohungarumlaut.ss04
AlternateSubs2: "'aalt' Access All Alternates in Latin lookup 1 subtable" Ohungarumlaut.ss04 Ohungarumlaut.ss05
EndChar

StartChar: Omacron
Encoding: 332 332 73
Width: 840
GlyphClass: 2
Flags: MW
HStem: -16 12<329 509.5 329 514> 652 12<329 511> 752 12<255 585 255 585>
VStem: 80 12<233 415 233 418> 748 12<233 415>
AnchorPoint: "Anchor-7" 420 764 basechar 0
AnchorPoint: "Anchor-6" 746 10 basechar 0
AnchorPoint: "Anchor-5" 420 0 basechar 0
LayerCount: 2
Fore
SplineSet
420 -16 m 0
 232 -16 80 136 80 324 c 0
 80 512 232 664 420 664 c 0
 608 664 760 512 760 324 c 0
 760 136 608 -16 420 -16 c 0
92 324 m 0
 92 142 238 -4 420 -4 c 0
 599 -4 748 142 748 324 c 0
 748 506 602 652 420 652 c 0
 238 652 92 506 92 324 c 0
255 752 m 1
 255 764 l 1
 585 764 l 1
 585 752 l 1
 255 752 l 1
EndSplineSet
Substitution2: "'ss05' Style Set 5 in Latin lookup 13 subtable" Omacron.ss05
Substitution2: "'ss04' Style Set 4 in Latin lookup 12 subtable" Omacron.ss04
AlternateSubs2: "'aalt' Access All Alternates in Latin lookup 1 subtable" Omacron.ss04 Omacron.ss05
EndChar

StartChar: Oslash
Encoding: 216 216 74
Width: 860
GlyphClass: 1
Flags: MW
HStem: -16 12<389.5 522 389.5 525> 652 12<338 470.5>
VStem: 90 12<275 416 275 419> 758 12<232 373.5>
LayerCount: 2
Fore
SplineSet
141 0 m 1
 202 70 l 1
 133 132 90 222 90 324 c 0
 90 514 240 664 430 664 c 0
 513 664 589 635 648 586 c 1
 702 649 l 1
 718 649 l 1
 657 579 l 1
 727 517 770 426 770 324 c 0
 770 134 620 -16 430 -16 c 0
 346 -16 270 13 211 62 c 1
 157 0 l 1
 141 0 l 1
102 324 m 0
 102 226 143 139 209 79 c 1
 640 578 l 1
 584 624 511 652 430 652 c 0
 246 652 102 508 102 324 c 0
219 71 m 1
 275 24 349 -4 430 -4 c 0
 614 -4 758 140 758 324 c 0
 758 423 716 510 649 570 c 1
 219 71 l 1
EndSplineSet
Substitution2: "'ss05' Style Set 5 in Latin lookup 13 subtable" Oslash.ss05
Substitution2: "'ss04' Style Set 4 in Latin lookup 12 subtable" Oslash.ss04
AlternateSubs2: "'aalt' Access All Alternates in Latin lookup 1 subtable" Oslash.ss04 Oslash.ss05
EndChar

StartChar: Otilde
Encoding: 213 213 75
Width: 840
GlyphClass: 2
Flags: MW
HStem: -16 12<329 509.5 329 514> 652 12<329 511> 696 12<473 513.5 473 517.5> 791 12<329.5 373>
VStem: 80 12<233 415 233 418> 278 12<699 727.5 699 732> 555 12<768 798> 748 12<233 415>
AnchorPoint: "Anchor-7" 420 798 basechar 0
AnchorPoint: "Anchor-6" 746 10 basechar 0
AnchorPoint: "Anchor-5" 420 0 basechar 0
LayerCount: 2
Fore
SplineSet
420 -16 m 0
 232 -16 80 136 80 324 c 0
 80 512 232 664 420 664 c 0
 608 664 760 512 760 324 c 0
 760 136 608 -16 420 -16 c 0
92 324 m 0
 92 142 238 -4 420 -4 c 0
 599 -4 748 142 748 324 c 0
 748 506 602 652 420 652 c 0
 238 652 92 506 92 324 c 0
278 699 m 1
 278 765 307 803 346 803 c 0
 410 803 447 708 499 708 c 0
 528 708 555 738 555 798 c 1
 567 798 l 1
 567 730 535 696 500 696 c 0
 442 696 400 791 346 791 c 0
 313 791 290 756 290 699 c 1
 278 699 l 1
EndSplineSet
Substitution2: "'ss05' Style Set 5 in Latin lookup 13 subtable" Otilde.ss05
Substitution2: "'ss04' Style Set 4 in Latin lookup 12 subtable" Otilde.ss04
AlternateSubs2: "'aalt' Access All Alternates in Latin lookup 1 subtable" Otilde.ss04 Otilde.ss05
EndChar

StartChar: OE
Encoding: 338 338 76
Width: 825
GlyphClass: 1
Flags: MW
HStem: 0 12<300.5 469 395 469 481 725> 318 12<481 675 481 675> 638 12<304.5 725 395 469 481 481 481 725>
VStem: 80 12<231 420 231 422> 469 12<12 318 330 638>
LayerCount: 2
Fore
SplineSet
469 638 m 1
 395 638 l 2
 214 638 92 515 92 325 c 0
 92 137 213 12 395 12 c 2
 469 12 l 1
 469 638 l 1
80 325 m 0
 80 519 206 650 395 650 c 2
 725 650 l 1
 725 638 l 1
 481 638 l 1
 481 330 l 1
 675 330 l 1
 675 318 l 1
 481 318 l 1
 481 12 l 1
 725 12 l 1
 725 0 l 1
 395 0 l 2
 206 0 80 130 80 325 c 0
EndSplineSet
EndChar

StartChar: P
Encoding: 80 80 77
Width: 605
GlyphClass: 2
Flags: MW
HStem: 214 12<132 320 132 320> 638 12<132 320 132 132>
VStem: 120 12<0 214 226 638> 523 12<369.5 494.5>
AnchorPoint: "Anchor-7" 313 650 basechar 0
AnchorPoint: "Anchor-5" 313 0 basechar 0
LayerCount: 2
Fore
SplineSet
120 650 m 1
 320 650 l 2
 449 650 535 563 535 432 c 0
 535 301 449 214 320 214 c 2
 132 214 l 1
 132 0 l 1
 120 0 l 1
 120 650 l 1
132 226 m 1
 320 226 l 2
 443 226 523 307 523 432 c 0
 523 557 443 638 320 638 c 2
 132 638 l 1
 132 226 l 1
EndSplineSet
EndChar

StartChar: Thorn
Encoding: 222 222 78
Width: 600
GlyphClass: 2
Flags: MW
HStem: 113 12<132 315 315 320 132 315> 537 12<132 315 132 320>
VStem: 120 12<0 113 125 537 549 701> 523 12<267.5 394.5>
AnchorPoint: "Anchor-7" 313 649 basechar 0
AnchorPoint: "Anchor-5" 313 0 basechar 0
LayerCount: 2
Fore
SplineSet
120 701 m 1
 132 701 l 1
 132 549 l 1
 320 549 l 2
 449 549 535 462 535 331 c 0
 535 200 449 113 320 113 c 2
 132 113 l 1
 132 0 l 1
 120 0 l 1
 120 701 l 1
132 125 m 1
 315 125 l 2
 443 125 523 204 523 331 c 0
 523 458 443 537 315 537 c 2
 132 537 l 1
 132 125 l 1
EndSplineSet
EndChar

StartChar: Q
Encoding: 81 81 79
Width: 875
GlyphClass: 2
Flags: MW
HStem: -16 12<329 461 329 463> 652 12<329 511>
VStem: 80 12<233 415 233 418> 748 12<277 415>
AnchorPoint: "Anchor-7" 420 664 basechar 0
AnchorPoint: "Anchor-5" 420 -16 basechar 0
LayerCount: 2
Fore
SplineSet
712 0 m 1
 645 69 l 1
 585 16 506 -16 420 -16 c 0
 232 -16 80 136 80 324 c 0
 80 512 232 664 420 664 c 0
 608 664 760 512 760 324 c 0
 760 226 719 138 653 76 c 1
 727 0 l 1
 712 0 l 1
92 324 m 0
 92 142 238 -4 420 -4 c 0
 502 -4 578 27 636 78 c 1
 507 210 l 1
 515 219 l 1
 644 85 l 1
 708 145 748 230 748 324 c 0
 748 506 602 652 420 652 c 0
 238 652 92 506 92 324 c 0
EndSplineSet
Substitution2: "'ss05' Style Set 5 in Latin lookup 13 subtable" Q.ss05
Substitution2: "'ss04' Style Set 4 in Latin lookup 12 subtable" Q.ss04
AlternateSubs2: "'aalt' Access All Alternates in Latin lookup 1 subtable" Q.ss04 Q.ss05
EndChar

StartChar: R
Encoding: 82 82 80
Width: 617
GlyphClass: 2
Flags: MW
HStem: 214 12<132 312 132 312> 219 7<361 361> 638 12<132 312 132 132>
VStem: 120 12<0 214 226 638> 515 12<375 494.5>
AnchorPoint: "Anchor-7" 289 649 basechar 0
AnchorPoint: "Anchor-5" 319 0 basechar 0
LayerCount: 2
Fore
SplineSet
456 0 m 1xb8
 349 217 l 1
 337 215 325 214 312 214 c 2
 132 214 l 1xb8
 132 0 l 1
 120 0 l 1
 120 650 l 1
 312 650 l 2
 441 650 527 563 527 432 c 0
 527 318 462 238 361 219 c 1x78
 469 0 l 1
 456 0 l 1xb8
132 226 m 1
 312 226 l 2
 435 226 515 307 515 432 c 0
 515 557 435 638 312 638 c 2
 132 638 l 1
 132 226 l 1
EndSplineSet
EndChar

StartChar: Racute
Encoding: 340 340 81
Width: 617
GlyphClass: 2
Flags: MW
HStem: 214 12<132 312 132 312> 219 7<361 361> 638 12<132 312 132 132>
VStem: 120 12<0 214 226 638> 515 12<375 494.5>
AnchorPoint: "Anchor-7" 289 800 basechar 0
AnchorPoint: "Anchor-5" 319 0 basechar 0
LayerCount: 2
Fore
SplineSet
456 0 m 1xb8
 349 217 l 1
 337 215 325 214 312 214 c 2
 132 214 l 1xb8
 132 0 l 1
 120 0 l 1
 120 650 l 1
 312 650 l 2
 441 650 527 563 527 432 c 0
 527 318 462 238 361 219 c 1x78
 469 0 l 1
 456 0 l 1xb8
132 226 m 1
 312 226 l 2
 435 226 515 307 515 432 c 0
 515 557 435 638 312 638 c 2
 132 638 l 1
 132 226 l 1
284 700 m 1
 340 800 l 1
 354 800 l 1
 298 700 l 1
 284 700 l 1
EndSplineSet
EndChar

StartChar: Rcaron
Encoding: 344 344 82
Width: 617
GlyphClass: 2
Flags: MW
HStem: 214 12<132 312 132 312> 219 7<361 361> 638 12<132 312 132 132> 700 8<289 289 289 298>
VStem: 120 12<0 214 226 638> 515 12<375 494.5>
AnchorPoint: "Anchor-7" 289 799 basechar 0
AnchorPoint: "Anchor-5" 319 0 basechar 0
LayerCount: 2
Fore
SplineSet
456 0 m 1xac
 349 217 l 1
 337 215 325 214 312 214 c 2
 132 214 l 1xbc
 132 0 l 1
 120 0 l 1
 120 650 l 1
 312 650 l 2
 441 650 527 563 527 432 c 0
 527 318 462 238 361 219 c 1x6c
 469 0 l 1
 456 0 l 1xac
132 226 m 1
 312 226 l 2
 435 226 515 307 515 432 c 0
 515 557 435 638 312 638 c 2
 132 638 l 1
 132 226 l 1
164 799 m 1
 182 799 l 1
 289 708 l 1
 396 799 l 1
 414 799 l 1
 298 700 l 1
 280 700 l 1
 164 799 l 1
EndSplineSet
EndChar

StartChar: uni0156
Encoding: 342 342 83
Width: 617
GlyphClass: 2
Flags: MW
HStem: 214 12<132 312 132 312> 219 7<361 361> 638 12<132 312 132 132>
VStem: 120 12<0 214 226 638> 515 12<375 494.5>
AnchorPoint: "Anchor-7" 289 649 basechar 0
AnchorPoint: "Anchor-5" 279 -200 basechar 0
LayerCount: 2
Fore
SplineSet
456 0 m 1xb8
 349 217 l 1
 337 215 325 214 312 214 c 2
 132 214 l 1xb8
 132 0 l 1
 120 0 l 1
 120 650 l 1
 312 650 l 2
 441 650 527 563 527 432 c 0
 527 318 462 238 361 219 c 1x78
 469 0 l 1
 456 0 l 1xb8
132 226 m 1
 312 226 l 2
 435 226 515 307 515 432 c 0
 515 557 435 638 312 638 c 2
 132 638 l 1
 132 226 l 1
240 -200 m 1
 312 -46 l 1
 325 -46 l 1
 253 -200 l 1
 240 -200 l 1
EndSplineSet
EndChar

StartChar: S
Encoding: 83 83 84
Width: 560
GlyphClass: 2
Flags: MW
HStem: 0 12<136 265 136 265> 268 12<223.5 302 295 302> 370 12<258 265 258 265> 638 12<227.5 393 295 393>
VStem: 80 12<413.5 503 413.5 505> 468 12<147 236.5>
AnchorPoint: "Anchor-7" 280 650 basechar 0
AnchorPoint: "Anchor-5" 280 0 basechar 0
LayerCount: 2
Fore
SplineSet
136 0 m 1
 136 12 l 1
 265 12 l 2
 400 12 468 102 468 192 c 0
 468 281 401 370 265 370 c 2
 258 370 l 1
 258 382 l 1
 265 382 l 2
 409 382 480 288 480 193 c 0
 480 97 407 0 265 0 c 2
 136 0 l 1
80 457 m 0
 80 553 152 650 295 650 c 2
 393 650 l 1
 393 638 l 1
 295 638 l 2
 160 638 92 548 92 458 c 0
 92 369 160 280 295 280 c 2
 302 280 l 1
 302 268 l 1
 295 268 l 2
 152 268 80 362 80 457 c 0
EndSplineSet
EndChar

StartChar: Sacute
Encoding: 346 346 85
Width: 560
GlyphClass: 2
Flags: MW
HStem: 0 12<136 265 136 265> 268 12<223.5 302 295 302> 370 12<258 265 258 265> 638 12<227.5 393 295 393>
VStem: 80 12<413.5 503 413.5 505> 468 12<147 236.5>
AnchorPoint: "Anchor-7" 280 801 basechar 0
AnchorPoint: "Anchor-5" 280 0 basechar 0
LayerCount: 2
Fore
SplineSet
136 0 m 1
 136 12 l 1
 265 12 l 2
 400 12 468 102 468 192 c 0
 468 281 401 370 265 370 c 2
 258 370 l 1
 258 382 l 1
 265 382 l 2
 409 382 480 288 480 193 c 0
 480 97 407 0 265 0 c 2
 136 0 l 1
80 457 m 0
 80 553 152 650 295 650 c 2
 393 650 l 1
 393 638 l 1
 295 638 l 2
 160 638 92 548 92 458 c 0
 92 369 160 280 295 280 c 2
 302 280 l 1
 302 268 l 1
 295 268 l 2
 152 268 80 362 80 457 c 0
275 701 m 1
 331 801 l 1
 345 801 l 1
 289 701 l 1
 275 701 l 1
EndSplineSet
EndChar

StartChar: Scaron
Encoding: 352 352 86
Width: 560
GlyphClass: 2
Flags: MW
HStem: 0 12<136 265 136 265> 268 12<223.5 302 295 302> 370 12<258 265 258 265> 638 12<227.5 393 295 393> 701 8<280 280 280 289>
VStem: 80 12<413.5 503 413.5 505> 468 12<147 236.5>
AnchorPoint: "Anchor-7" 280 800 basechar 0
AnchorPoint: "Anchor-5" 280 0 basechar 0
LayerCount: 2
Fore
SplineSet
136 0 m 1
 136 12 l 1
 265 12 l 2
 400 12 468 102 468 192 c 0
 468 281 401 370 265 370 c 2
 258 370 l 1
 258 382 l 1
 265 382 l 2
 409 382 480 288 480 193 c 0
 480 97 407 0 265 0 c 2
 136 0 l 1
80 457 m 0
 80 553 152 650 295 650 c 2
 393 650 l 1
 393 638 l 1
 295 638 l 2
 160 638 92 548 92 458 c 0
 92 369 160 280 295 280 c 2
 302 280 l 1
 302 268 l 1
 295 268 l 2
 152 268 80 362 80 457 c 0
155 800 m 1
 173 800 l 1
 280 709 l 1
 387 800 l 1
 405 800 l 1
 289 701 l 1
 271 701 l 1
 155 800 l 1
EndSplineSet
EndChar

StartChar: Scedilla
Encoding: 350 350 87
Width: 560
GlyphClass: 2
Flags: MW
HStem: -229 12<259 286 259 289.5> -43 12<259 286> 0 12<136 265 136 265> 268 12<223.5 302 295 302> 370 12<258 265 258 265> 638 12<227.5 393 295 393>
VStem: 80 12<413.5 503 413.5 505> 348 12<-156.5 -103.5> 468 12<147 236.5>
AnchorPoint: "Anchor-7" 280 650 basechar 0
AnchorPoint: "Anchor-5" 259 -229 basechar 0
LayerCount: 2
Fore
SplineSet
136 0 m 1
 136 12 l 1
 265 12 l 2
 400 12 468 102 468 192 c 0
 468 281 401 370 265 370 c 2
 258 370 l 1
 258 382 l 1
 265 382 l 2
 409 382 480 288 480 193 c 0
 480 97 407 0 265 0 c 2
 136 0 l 1
80 457 m 0
 80 553 152 650 295 650 c 2
 393 650 l 1
 393 638 l 1
 295 638 l 2
 160 638 92 548 92 458 c 0
 92 369 160 280 295 280 c 2
 302 280 l 1
 302 268 l 1
 295 268 l 2
 152 268 80 362 80 457 c 0
259 -229 m 1
 259 -217 l 1
 313 -217 348 -183 348 -130 c 0
 348 -77 313 -43 259 -43 c 1
 259 -31 l 1
 320 -31 360 -71 360 -130 c 0
 360 -189 320 -229 259 -229 c 1
EndSplineSet
Substitution2: "'locl' Localized Forms in Latin lookup 4 subtable" uni0218
Substitution2: "'aalt' Access All Alternates in Latin lookup 0 subtable" uni0218
EndChar

StartChar: uni0218
Encoding: 536 536 88
Width: 560
GlyphClass: 2
Flags: MW
HStem: 0 12<136 265 136 265> 268 12<223.5 302 295 302> 370 12<258 265 258 265> 638 12<227.5 393 295 393>
VStem: 80 12<413.5 503 413.5 505> 468 12<147 236.5>
AnchorPoint: "Anchor-7" 280 650 basechar 0
AnchorPoint: "Anchor-5" 240 -200 basechar 0
LayerCount: 2
Fore
SplineSet
136 0 m 1
 136 12 l 1
 265 12 l 2
 400 12 468 102 468 192 c 0
 468 281 401 370 265 370 c 2
 258 370 l 1
 258 382 l 1
 265 382 l 2
 409 382 480 288 480 193 c 0
 480 97 407 0 265 0 c 2
 136 0 l 1
80 457 m 0
 80 553 152 650 295 650 c 2
 393 650 l 1
 393 638 l 1
 295 638 l 2
 160 638 92 548 92 458 c 0
 92 369 160 280 295 280 c 2
 302 280 l 1
 302 268 l 1
 295 268 l 2
 152 268 80 362 80 457 c 0
201 -200 m 1
 273 -46 l 1
 286 -46 l 1
 214 -200 l 1
 201 -200 l 1
EndSplineSet
EndChar

StartChar: uni1E9E
Encoding: 7838 7838 89
Width: 615
GlyphClass: 1
Flags: MW
HStem: 0 12<290 349 290 349> 424 12<343 361> 638 12<274 451 274 433>
VStem: 120 12<0 475 0 528> 553 12<160.5 276.5 157 277>
LayerCount: 2
Fore
SplineSet
274 638 m 2
 189 640 132 575 132 475 c 2
 132 0 l 1
 120 0 l 1
 120 475 l 2
 120 581 180 650 274 650 c 2
 451 650 l 1
 361 436 l 1
 479 429 565 335 565 218 c 0
 565 96 470 0 349 0 c 2
 290 0 l 1
 290 12 l 1
 349 12 l 2
 463 12 553 103 553 218 c 0
 553 336 467 420 352 424 c 1
 343 424 l 1
 433 638 l 1
 274 638 l 2
EndSplineSet
EndChar

StartChar: T
Encoding: 84 84 90
Width: 535
GlyphClass: 2
Flags: MW
HStem: 638 12<50 485 50 262 274 274 274 485>
VStem: 262 12<0 638 0 638>
AnchorPoint: "Anchor-7" 268 650 basechar 0
AnchorPoint: "Anchor-5" 268 0 basechar 0
LayerCount: 2
Fore
SplineSet
50 638 m 1
 50 650 l 1
 485 650 l 1
 485 638 l 1
 274 638 l 1
 274 0 l 1
 262 0 l 1
 262 638 l 1
 50 638 l 1
EndSplineSet
EndChar

StartChar: Tbar
Encoding: 358 358 91
Width: 535
GlyphClass: 2
Flags: MW
HStem: 270 12<113 262 113 262 274 423> 638 12<50 262 50 485 274 274 274 485>
VStem: 262 12<0 270 0 270 282 638>
AnchorPoint: "Anchor-7" 268 650 basechar 0
AnchorPoint: "Anchor-5" 268 0 basechar 0
LayerCount: 2
Fore
SplineSet
113 282 m 1
 262 282 l 1
 262 638 l 1
 50 638 l 1
 50 650 l 1
 485 650 l 1
 485 638 l 1
 274 638 l 1
 274 282 l 1
 423 282 l 1
 423 270 l 1
 274 270 l 1
 274 0 l 1
 262 0 l 1
 262 270 l 1
 113 270 l 1
 113 282 l 1
EndSplineSet
EndChar

StartChar: Tcaron
Encoding: 356 356 92
Width: 535
GlyphClass: 2
Flags: MW
HStem: 638 12<50 485 50 262 274 274 274 485> 701 8<268 268 268 277>
VStem: 262 12<0 638 0 638>
AnchorPoint: "Anchor-7" 268 800 basechar 0
AnchorPoint: "Anchor-5" 268 0 basechar 0
LayerCount: 2
Fore
SplineSet
50 638 m 1
 50 650 l 1
 485 650 l 1
 485 638 l 1
 274 638 l 1
 274 0 l 1
 262 0 l 1
 262 638 l 1
 50 638 l 1
143 800 m 1
 161 800 l 1
 268 709 l 1
 375 800 l 1
 393 800 l 1
 277 701 l 1
 259 701 l 1
 143 800 l 1
EndSplineSet
EndChar

StartChar: uni0162
Encoding: 354 354 93
Width: 535
GlyphClass: 2
Flags: MW
HStem: -229 12<247 274 247 277.5> -43 12<247 274> 638 12<50 485 50 262 274 274 274 485>
VStem: 247 27 262 12<0 638 0 638> 336 12<-156.5 -103.5>
AnchorPoint: "Anchor-7" 268 650 basechar 0
AnchorPoint: "Anchor-5" 247 -229 basechar 0
LayerCount: 2
Fore
SplineSet
50 638 m 1xec
 50 650 l 1
 485 650 l 1
 485 638 l 1
 274 638 l 1
 274 0 l 1
 262 0 l 1
 262 638 l 1
 50 638 l 1xec
247 -229 m 1
 247 -217 l 1
 301 -217 336 -183 336 -130 c 0
 336 -77 301 -43 247 -43 c 1
 247 -31 l 1xf4
 308 -31 348 -71 348 -130 c 0
 348 -189 308 -229 247 -229 c 1
EndSplineSet
Substitution2: "'locl' Localized Forms in Latin lookup 4 subtable" uni021A
Substitution2: "'aalt' Access All Alternates in Latin lookup 0 subtable" uni021A
EndChar

StartChar: uni021A
Encoding: 538 538 94
Width: 535
GlyphClass: 2
Flags: MW
HStem: 638 12<50 485 50 262 274 274 274 485>
VStem: 262 12<0 638>
AnchorPoint: "Anchor-7" 268 650 basechar 0
AnchorPoint: "Anchor-5" 228 -200 basechar 0
LayerCount: 2
Fore
SplineSet
50 638 m 1
 50 650 l 1
 485 650 l 1
 485 638 l 1
 274 638 l 1
 274 0 l 1
 262 0 l 1
 262 638 l 1
 50 638 l 1
189 -200 m 1
 261 -46 l 1
 274 -46 l 1
 202 -200 l 1
 189 -200 l 1
EndSplineSet
EndChar

StartChar: U
Encoding: 85 85 95
Width: 690
GlyphClass: 2
Flags: MW
HStem: -10 12<281.5 408.5>
VStem: 120 12<205 650> 558 12<205 650>
AnchorPoint: "Anchor-7" 345 649 basechar 0
AnchorPoint: "Anchor-6" 397 0 basechar 0
AnchorPoint: "Anchor-5" 345 0 basechar 0
LayerCount: 2
Fore
SplineSet
345 2 m 0
 475 2 558 81 558 205 c 2
 558 650 l 1
 570 650 l 1
 570 205 l 2
 570 64 472 -10 345 -10 c 0
 218 -10 120 64 120 205 c 2
 120 650 l 1
 132 650 l 1
 132 205 l 2
 132 81 215 2 345 2 c 0
EndSplineSet
EndChar

StartChar: Uacute
Encoding: 218 218 96
Width: 690
GlyphClass: 2
Flags: MW
HStem: -10 12<281.5 408.5>
VStem: 120 12<205 650> 558 12<205 650>
AnchorPoint: "Anchor-7" 345 800 basechar 0
AnchorPoint: "Anchor-6" 397 0 basechar 0
AnchorPoint: "Anchor-5" 345 0 basechar 0
LayerCount: 2
Fore
SplineSet
345 2 m 0
 475 2 558 81 558 205 c 2
 558 650 l 1
 570 650 l 1
 570 205 l 2
 570 64 472 -10 345 -10 c 0
 218 -10 120 64 120 205 c 2
 120 650 l 1
 132 650 l 1
 132 205 l 2
 132 81 215 2 345 2 c 0
340 700 m 1
 396 800 l 1
 410 800 l 1
 354 700 l 1
 340 700 l 1
EndSplineSet
EndChar

StartChar: Ucircumflex
Encoding: 219 219 97
Width: 690
GlyphClass: 2
Flags: MW
HStem: -10 12<281.5 408.5> 792 8<345 345>
VStem: 120 12<205 650> 558 12<205 650>
AnchorPoint: "Anchor-7" 345 800 basechar 0
AnchorPoint: "Anchor-6" 397 0 basechar 0
AnchorPoint: "Anchor-5" 345 0 basechar 0
LayerCount: 2
Fore
SplineSet
345 2 m 0
 475 2 558 81 558 205 c 2
 558 650 l 1
 570 650 l 1
 570 205 l 2
 570 64 472 -10 345 -10 c 0
 218 -10 120 64 120 205 c 2
 120 650 l 1
 132 650 l 1
 132 205 l 2
 132 81 215 2 345 2 c 0
220 701 m 1
 336 800 l 1
 354 800 l 1
 470 701 l 1
 452 701 l 1
 345 792 l 1
 238 701 l 1
 220 701 l 1
EndSplineSet
EndChar

StartChar: Udieresis
Encoding: 220 220 98
Width: 690
GlyphClass: 2
Flags: MW
HStem: -10 12<281.5 408.5> 740 42<259 271 419 431>
VStem: 120 12<205 650> 244 42<755 767> 404 42<755 767> 558 12<205 650>
AnchorPoint: "Anchor-7" 345 821 basechar 0
AnchorPoint: "Anchor-6" 397 0 basechar 0
AnchorPoint: "Anchor-5" 345 0 basechar 0
LayerCount: 2
Fore
SplineSet
345 2 m 0
 475 2 558 81 558 205 c 2
 558 650 l 1
 570 650 l 1
 570 205 l 2
 570 64 472 -10 345 -10 c 0
 218 -10 120 64 120 205 c 2
 120 650 l 1
 132 650 l 1
 132 205 l 2
 132 81 215 2 345 2 c 0
244 761 m 0
 244 773 253 782 265 782 c 0
 277 782 286 773 286 761 c 0
 286 749 277 740 265 740 c 0
 253 740 244 749 244 761 c 0
404 761 m 0
 404 773 413 782 425 782 c 0
 437 782 446 773 446 761 c 0
 446 749 437 740 425 740 c 0
 413 740 404 749 404 761 c 0
EndSplineSet
EndChar

StartChar: Ugrave
Encoding: 217 217 99
Width: 690
GlyphClass: 2
Flags: MW
HStem: -10 12<281.5 408.5>
VStem: 120 12<205 650> 558 12<205 650>
AnchorPoint: "Anchor-7" 345 800 basechar 0
AnchorPoint: "Anchor-6" 397 0 basechar 0
AnchorPoint: "Anchor-5" 345 0 basechar 0
LayerCount: 2
Fore
SplineSet
345 2 m 0
 475 2 558 81 558 205 c 2
 558 650 l 1
 570 650 l 1
 570 205 l 2
 570 64 472 -10 345 -10 c 0
 218 -10 120 64 120 205 c 2
 120 650 l 1
 132 650 l 1
 132 205 l 2
 132 81 215 2 345 2 c 0
280 800 m 1
 294 800 l 1
 350 700 l 1
 336 700 l 1
 280 800 l 1
EndSplineSet
EndChar

StartChar: Uhungarumlaut
Encoding: 368 368 100
Width: 690
GlyphClass: 2
Flags: MW
HStem: -10 12<281.5 408.5>
VStem: 120 12<205 650> 558 12<205 650>
AnchorPoint: "Anchor-7" 345 880 basechar 0
AnchorPoint: "Anchor-6" 397 0 basechar 0
AnchorPoint: "Anchor-5" 345 0 basechar 0
LayerCount: 2
Fore
SplineSet
345 2 m 0
 475 2 558 81 558 205 c 2
 558 650 l 1
 570 650 l 1
 570 205 l 2
 570 64 472 -10 345 -10 c 0
 218 -10 120 64 120 205 c 2
 120 650 l 1
 132 650 l 1
 132 205 l 2
 132 81 215 2 345 2 c 0
250 700 m 1
 306 880 l 1
 319 880 l 1
 263 700 l 1
 250 700 l 1
431 700 m 1
 487 880 l 1
 500 880 l 1
 444 700 l 1
 431 700 l 1
EndSplineSet
EndChar

StartChar: Umacron
Encoding: 362 362 101
Width: 690
GlyphClass: 2
Flags: MW
HStem: -10 12<281.5 408.5> 753 12<180 510 180 510>
VStem: 120 12<205 650> 558 12<205 650>
AnchorPoint: "Anchor-7" 345 765 basechar 0
AnchorPoint: "Anchor-6" 397 0 basechar 0
AnchorPoint: "Anchor-5" 345 0 basechar 0
LayerCount: 2
Fore
SplineSet
345 2 m 0
 475 2 558 81 558 205 c 2
 558 650 l 1
 570 650 l 1
 570 205 l 2
 570 64 472 -10 345 -10 c 0
 218 -10 120 64 120 205 c 2
 120 650 l 1
 132 650 l 1
 132 205 l 2
 132 81 215 2 345 2 c 0
180 753 m 1
 180 765 l 1
 510 765 l 1
 510 753 l 1
 180 753 l 1
EndSplineSet
EndChar

StartChar: Uogonek
Encoding: 370 370 102
Width: 690
GlyphClass: 2
Flags: MW
HStem: -200 12<316 501 316 501> -10 12<281.5 352.5>
VStem: 120 12<205 650> 558 12<205 650>
AnchorPoint: "Anchor-7" 345 649 basechar 0
AnchorPoint: "Anchor-6" 397 0 basechar 0
AnchorPoint: "Anchor-5" 345 0 basechar 0
LayerCount: 2
Fore
SplineSet
345 2 m 0
 475 2 558 81 558 205 c 2
 558 650 l 1
 570 650 l 1
 570 205 l 2
 570 86 500 15 402 -5 c 1
 316 -188 l 1
 501 -188 l 1
 501 -200 l 1
 297 -200 l 1
 388 -7 l 1
 374 -9 360 -10 345 -10 c 0
 218 -10 120 64 120 205 c 2
 120 650 l 1
 132 650 l 1
 132 205 l 2
 132 81 215 2 345 2 c 0
EndSplineSet
EndChar

StartChar: Uring
Encoding: 366 366 103
Width: 690
GlyphClass: 2
Flags: MW
HStem: -10 12<281.5 408.5> 698 11<327.5 363 327.5 365.5> 837 11<327.5 363>
VStem: 120 12<205 650> 270 11<773 773> 408 12<773 773> 558 12<205 650>
AnchorPoint: "Anchor-7" 345 848 basechar 0
AnchorPoint: "Anchor-6" 397 0 basechar 0
AnchorPoint: "Anchor-5" 345 0 basechar 0
LayerCount: 2
Fore
SplineSet
345 2 m 0
 475 2 558 81 558 205 c 2
 558 650 l 1
 570 650 l 1
 570 205 l 2
 570 64 472 -10 345 -10 c 0
 218 -10 120 64 120 205 c 2
 120 650 l 1
 132 650 l 1
 132 205 l 2
 132 81 215 2 345 2 c 0
270 773 m 0
 270 815 302 848 345 848 c 0
 386 848 420 815 420 773 c 0
 420 731 386 698 345 698 c 0
 302 698 270 731 270 773 c 0
281 773 m 0
 282 737 310 709 345 709 c 0
 381 709 409 737 408 773 c 0
 409 809 381 837 345 837 c 0
 310 837 282 809 281 773 c 0
EndSplineSet
EndChar

StartChar: Utilde
Encoding: 360 360 104
Width: 690
GlyphClass: 2
Flags: MW
HStem: -10 12<281.5 408.5> 697 12<398 438.5 398 442.5> 792 12<254.5 298>
VStem: 120 12<205 650> 203 12<700 728.5 700 733> 480 12<769 799> 558 12<205 650>
AnchorPoint: "Anchor-7" 345 799 basechar 0
AnchorPoint: "Anchor-6" 397 0 basechar 0
AnchorPoint: "Anchor-5" 345 0 basechar 0
LayerCount: 2
Fore
SplineSet
345 2 m 0
 475 2 558 81 558 205 c 2
 558 650 l 1
 570 650 l 1
 570 205 l 2
 570 64 472 -10 345 -10 c 0
 218 -10 120 64 120 205 c 2
 120 650 l 1
 132 650 l 1
 132 205 l 2
 132 81 215 2 345 2 c 0
203 700 m 1
 203 766 232 804 271 804 c 0
 335 804 372 709 424 709 c 0
 453 709 480 739 480 799 c 1
 492 799 l 1
 492 731 460 697 425 697 c 0
 367 697 325 792 271 792 c 0
 238 792 215 757 215 700 c 1
 203 700 l 1
EndSplineSet
EndChar

StartChar: V
Encoding: 86 86 105
Width: 640
GlyphClass: 2
Flags: MW
HStem: 0 12<289 352 289 360 280 352>
VStem: 50 540<650 650>
AnchorPoint: "Anchor-7" 320 650 basechar 0
AnchorPoint: "Anchor-5" 320 0 basechar 0
LayerCount: 2
Fore
SplineSet
590 650 m 1
 360 0 l 1
 280 0 l 1
 50 650 l 1
 63 650 l 1
 289 12 l 1
 352 12 l 1
 577 650 l 1
 590 650 l 1
EndSplineSet
EndChar

StartChar: W
Encoding: 87 87 106
Width: 880
GlyphClass: 2
Flags: MW
HStem: 0 12<280 352 288 352 288 360 528 592>
VStem: 50 780<650 650>
AnchorPoint: "Anchor-7" 440 650 basechar 0
AnchorPoint: "Anchor-5" 440 0 basechar 0
LayerCount: 2
Fore
SplineSet
280 0 m 1
 50 650 l 1
 62 650 l 1
 288 12 l 1
 352 12 l 1
 433 265 l 1
 309 650 l 1
 322 650 l 1
 440 285 l 1
 557 650 l 1
 570 650 l 1
 446 266 l 1
 528 12 l 1
 592 12 l 1
 817 650 l 1
 830 650 l 1
 600 0 l 1
 519 0 l 1
 440 246 l 1
 360 0 l 1
 280 0 l 1
EndSplineSet
Substitution2: "'ss03' Style Set 3 in Latin lookup 11 subtable" W.ss03
Substitution2: "'aalt' Access All Alternates in Latin lookup 0 subtable" W.ss03
EndChar

StartChar: Wacute
Encoding: 7810 7810 107
Width: 880
GlyphClass: 2
Flags: MW
HStem: 0 12<280 352 288 352 288 360 528 592>
VStem: 50 780<650 650>
AnchorPoint: "Anchor-7" 440 801 basechar 0
AnchorPoint: "Anchor-5" 440 0 basechar 0
LayerCount: 2
Fore
SplineSet
280 0 m 1
 50 650 l 1
 62 650 l 1
 288 12 l 1
 352 12 l 1
 433 265 l 1
 309 650 l 1
 322 650 l 1
 440 285 l 1
 557 650 l 1
 570 650 l 1
 446 266 l 1
 528 12 l 1
 592 12 l 1
 817 650 l 1
 830 650 l 1
 600 0 l 1
 519 0 l 1
 440 246 l 1
 360 0 l 1
 280 0 l 1
435 701 m 1
 491 801 l 1
 505 801 l 1
 449 701 l 1
 435 701 l 1
EndSplineSet
Substitution2: "'ss03' Style Set 3 in Latin lookup 11 subtable" Wacute.ss03
Substitution2: "'aalt' Access All Alternates in Latin lookup 0 subtable" Wacute.ss03
EndChar

StartChar: Wcircumflex
Encoding: 372 372 108
Width: 880
GlyphClass: 2
Flags: MW
HStem: 0 12<280 352 288 352 288 360 528 592> 793 8<440 440>
VStem: 50 780<650 650>
AnchorPoint: "Anchor-7" 440 801 basechar 0
AnchorPoint: "Anchor-5" 440 0 basechar 0
LayerCount: 2
Fore
SplineSet
280 0 m 1
 50 650 l 1
 62 650 l 1
 288 12 l 1
 352 12 l 1
 433 265 l 1
 309 650 l 1
 322 650 l 1
 440 285 l 1
 557 650 l 1
 570 650 l 1
 446 266 l 1
 528 12 l 1
 592 12 l 1
 817 650 l 1
 830 650 l 1
 600 0 l 1
 519 0 l 1
 440 246 l 1
 360 0 l 1
 280 0 l 1
315 702 m 1
 431 801 l 1
 449 801 l 1
 565 702 l 1
 547 702 l 1
 440 793 l 1
 333 702 l 1
 315 702 l 1
EndSplineSet
Substitution2: "'ss03' Style Set 3 in Latin lookup 11 subtable" Wcircumflex.ss03
Substitution2: "'aalt' Access All Alternates in Latin lookup 0 subtable" Wcircumflex.ss03
EndChar

StartChar: Wdieresis
Encoding: 7812 7812 109
Width: 880
GlyphClass: 2
Flags: MW
HStem: 0 12<280 352 288 352 288 360 528 592> 741 42<354 366 514 526>
VStem: 339 42<756 768> 499 42<756 768>
AnchorPoint: "Anchor-7" 440 822 basechar 0
AnchorPoint: "Anchor-5" 440 0 basechar 0
LayerCount: 2
Fore
SplineSet
280 0 m 1
 50 650 l 1
 62 650 l 1
 288 12 l 1
 352 12 l 1
 433 265 l 1
 309 650 l 1
 322 650 l 1
 440 285 l 1
 557 650 l 1
 570 650 l 1
 446 266 l 1
 528 12 l 1
 592 12 l 1
 817 650 l 1
 830 650 l 1
 600 0 l 1
 519 0 l 1
 440 246 l 1
 360 0 l 1
 280 0 l 1
339 762 m 0
 339 774 348 783 360 783 c 0
 372 783 381 774 381 762 c 0
 381 750 372 741 360 741 c 0
 348 741 339 750 339 762 c 0
499 762 m 0
 499 774 508 783 520 783 c 0
 532 783 541 774 541 762 c 0
 541 750 532 741 520 741 c 0
 508 741 499 750 499 762 c 0
EndSplineSet
Substitution2: "'ss03' Style Set 3 in Latin lookup 11 subtable" Wdieresis.ss03
Substitution2: "'aalt' Access All Alternates in Latin lookup 0 subtable" Wdieresis.ss03
EndChar

StartChar: Wgrave
Encoding: 7808 7808 110
Width: 880
GlyphClass: 2
Flags: MW
HStem: 0 12<280 352 288 352 288 360 528 592>
VStem: 50 780<650 650>
AnchorPoint: "Anchor-7" 440 801 basechar 0
AnchorPoint: "Anchor-5" 440 0 basechar 0
LayerCount: 2
Fore
SplineSet
280 0 m 1
 50 650 l 1
 62 650 l 1
 288 12 l 1
 352 12 l 1
 433 265 l 1
 309 650 l 1
 322 650 l 1
 440 285 l 1
 557 650 l 1
 570 650 l 1
 446 266 l 1
 528 12 l 1
 592 12 l 1
 817 650 l 1
 830 650 l 1
 600 0 l 1
 519 0 l 1
 440 246 l 1
 360 0 l 1
 280 0 l 1
375 801 m 1
 389 801 l 1
 445 701 l 1
 431 701 l 1
 375 801 l 1
EndSplineSet
Substitution2: "'ss03' Style Set 3 in Latin lookup 11 subtable" Wgrave.ss03
Substitution2: "'aalt' Access All Alternates in Latin lookup 0 subtable" Wgrave.ss03
EndChar

StartChar: X
Encoding: 88 88 111
Width: 538
GlyphClass: 2
Flags: MW
HStem: 0 650<50 64 50 64 474 488 50 474>
VStem: 50 438<0 0>
AnchorPoint: "Anchor-7" 269 650 basechar 0
AnchorPoint: "Anchor-5" 269 0 basechar 0
LayerCount: 2
Fore
SplineSet
276 325 m 1
 488 0 l 1
 474 0 l 1
 269 314 l 1
 64 0 l 1
 50 0 l 1
 262 325 l 1
 50 650 l 1
 64 650 l 1
 269 336 l 1
 474 650 l 1
 488 650 l 1
 276 325 l 1
EndSplineSet
EndChar

StartChar: Y
Encoding: 89 89 112
Width: 517
GlyphClass: 2
Flags: MW
HStem: 286 12<226 253 218 291 265 265 265 291 226 299>
VStem: 253 12<0 286 0 286>
AnchorPoint: "Anchor-7" 259 650 basechar 0
AnchorPoint: "Anchor-5" 259 0 basechar 0
LayerCount: 2
Fore
SplineSet
253 0 m 1
 253 286 l 1
 218 286 l 1
 40 650 l 1
 53 650 l 1
 226 298 l 1
 291 298 l 1
 464 650 l 1
 477 650 l 1
 299 286 l 1
 265 286 l 1
 265 0 l 1
 253 0 l 1
EndSplineSet
EndChar

StartChar: Yacute
Encoding: 221 221 113
Width: 517
GlyphClass: 2
Flags: MW
HStem: 286 12<226 253 218 291 265 265 265 291 226 299>
VStem: 253 12<0 286 0 286>
AnchorPoint: "Anchor-7" 259 801 basechar 0
AnchorPoint: "Anchor-5" 259 0 basechar 0
LayerCount: 2
Fore
SplineSet
253 0 m 1
 253 286 l 1
 218 286 l 1
 40 650 l 1
 53 650 l 1
 226 298 l 1
 291 298 l 1
 464 650 l 1
 477 650 l 1
 299 286 l 1
 265 286 l 1
 265 0 l 1
 253 0 l 1
254 701 m 1
 310 801 l 1
 324 801 l 1
 268 701 l 1
 254 701 l 1
EndSplineSet
EndChar

StartChar: Ycircumflex
Encoding: 374 374 114
Width: 517
GlyphClass: 2
Flags: MW
HStem: 286 12<226 253 218 291 265 265 265 291 226 299> 793 8<259 259>
VStem: 253 12<0 286 0 286>
AnchorPoint: "Anchor-7" 259 801 basechar 0
AnchorPoint: "Anchor-5" 259 0 basechar 0
LayerCount: 2
Fore
SplineSet
253 0 m 1
 253 286 l 1
 218 286 l 1
 40 650 l 1
 53 650 l 1
 226 298 l 1
 291 298 l 1
 464 650 l 1
 477 650 l 1
 299 286 l 1
 265 286 l 1
 265 0 l 1
 253 0 l 1
134 702 m 1
 250 801 l 1
 268 801 l 1
 384 702 l 1
 366 702 l 1
 259 793 l 1
 152 702 l 1
 134 702 l 1
EndSplineSet
EndChar

StartChar: Ydieresis
Encoding: 376 376 115
Width: 517
GlyphClass: 2
Flags: MW
HStem: 286 12<226 253 218 291 265 265 265 291 226 299> 741 42<173 185 333 345>
VStem: 158 42<756 768> 253 12<0 286 0 286> 318 42<756 768>
AnchorPoint: "Anchor-7" 259 822 basechar 0
AnchorPoint: "Anchor-5" 259 0 basechar 0
LayerCount: 2
Fore
SplineSet
253 0 m 1
 253 286 l 1
 218 286 l 1
 40 650 l 1
 53 650 l 1
 226 298 l 1
 291 298 l 1
 464 650 l 1
 477 650 l 1
 299 286 l 1
 265 286 l 1
 265 0 l 1
 253 0 l 1
158 762 m 0
 158 774 167 783 179 783 c 0
 191 783 200 774 200 762 c 0
 200 750 191 741 179 741 c 0
 167 741 158 750 158 762 c 0
318 762 m 0
 318 774 327 783 339 783 c 0
 351 783 360 774 360 762 c 0
 360 750 351 741 339 741 c 0
 327 741 318 750 318 762 c 0
EndSplineSet
EndChar

StartChar: Ygrave
Encoding: 7922 7922 116
Width: 517
GlyphClass: 2
Flags: MW
HStem: 286 12<226 253 218 291 265 265 265 291 226 299>
VStem: 253 12<0 286 0 286>
AnchorPoint: "Anchor-7" 259 801 basechar 0
AnchorPoint: "Anchor-5" 259 0 basechar 0
LayerCount: 2
Fore
SplineSet
253 0 m 1
 253 286 l 1
 218 286 l 1
 40 650 l 1
 53 650 l 1
 226 298 l 1
 291 298 l 1
 464 650 l 1
 477 650 l 1
 299 286 l 1
 265 286 l 1
 265 0 l 1
 253 0 l 1
194 801 m 1
 208 801 l 1
 264 701 l 1
 250 701 l 1
 194 801 l 1
EndSplineSet
EndChar

StartChar: uni1EF8
Encoding: 7928 7928 117
Width: 517
GlyphClass: 2
Flags: MW
HStem: 286 12<226 253 218 291 265 265 265 291 226 299> 698 12<312 352.5 312 356.5> 793 12<168.5 212>
VStem: 117 12<701 729.5 701 734> 253 12<0 286 0 286> 394 12<770 800>
AnchorPoint: "Anchor-7" 259 800 basechar 0
AnchorPoint: "Anchor-5" 259 0 basechar 0
LayerCount: 2
Fore
SplineSet
253 0 m 1
 253 286 l 1
 218 286 l 1
 40 650 l 1
 53 650 l 1
 226 298 l 1
 291 298 l 1
 464 650 l 1
 477 650 l 1
 299 286 l 1
 265 286 l 1
 265 0 l 1
 253 0 l 1
117 701 m 1
 117 767 146 805 185 805 c 0
 249 805 286 710 338 710 c 0
 367 710 394 740 394 800 c 1
 406 800 l 1
 406 732 374 698 339 698 c 0
 281 698 239 793 185 793 c 0
 152 793 129 758 129 701 c 1
 117 701 l 1
EndSplineSet
EndChar

StartChar: Z
Encoding: 90 90 118
Width: 544
GlyphClass: 2
Flags: MW
HStem: 0 12<81 484 81 484> 638 12<70 453 70 474>
VStem: 60 424<0 12>
AnchorPoint: "Anchor-7" 272 650 basechar 0
AnchorPoint: "Anchor-5" 272 0 basechar 0
LayerCount: 2
Fore
SplineSet
60 0 m 1
 453 638 l 1
 70 638 l 1
 70 650 l 1
 474 650 l 1
 81 12 l 1
 484 12 l 1
 484 0 l 1
 60 0 l 1
EndSplineSet
EndChar

StartChar: Zacute
Encoding: 377 377 119
Width: 544
GlyphClass: 2
Flags: MW
HStem: 0 12<81 484 81 484> 638 12<70 453 70 474>
VStem: 60 424<0 12>
AnchorPoint: "Anchor-7" 272 801 basechar 0
AnchorPoint: "Anchor-5" 272 0 basechar 0
LayerCount: 2
Fore
SplineSet
60 0 m 1
 453 638 l 1
 70 638 l 1
 70 650 l 1
 474 650 l 1
 81 12 l 1
 484 12 l 1
 484 0 l 1
 60 0 l 1
267 701 m 1
 323 801 l 1
 337 801 l 1
 281 701 l 1
 267 701 l 1
EndSplineSet
EndChar

StartChar: Zcaron
Encoding: 381 381 120
Width: 544
GlyphClass: 2
Flags: MW
HStem: 0 12<81 484 81 484> 638 12<70 453 70 474> 638 162<147 165 379 397 70 165> 701 8<272 272 272 281>
VStem: 60 424<0 12>
AnchorPoint: "Anchor-7" 272 800 basechar 0
AnchorPoint: "Anchor-5" 272 0 basechar 0
LayerCount: 2
Fore
SplineSet
60 0 m 1xc8
 453 638 l 1
 70 638 l 1
 70 650 l 1
 474 650 l 1
 81 12 l 1
 484 12 l 1
 484 0 l 1
 60 0 l 1xc8
147 800 m 1xa8
 165 800 l 1xa8
 272 709 l 1xd8
 379 800 l 1
 397 800 l 1xa8
 281 701 l 1
 263 701 l 1xd8
 147 800 l 1xa8
EndSplineSet
EndChar

StartChar: Zdotaccent
Encoding: 379 379 121
Width: 544
GlyphClass: 2
Flags: MW
HStem: 0 12<81 484 81 484> 638 12<70 453 70 474> 741 42<266 278>
VStem: 251 42<756 768>
AnchorPoint: "Anchor-7" 272 650 basechar 0
AnchorPoint: "Anchor-5" 272 0 basechar 0
LayerCount: 2
Fore
SplineSet
60 0 m 1
 453 638 l 1
 70 638 l 1
 70 650 l 1
 474 650 l 1
 81 12 l 1
 484 12 l 1
 484 0 l 1
 60 0 l 1
251 762 m 0
 251 774 260 783 272 783 c 0
 284 783 293 774 293 762 c 0
 293 750 284 741 272 741 c 0
 260 741 251 750 251 762 c 0
EndSplineSet
EndChar

StartChar: K.ss02
Encoding: 65538 -1 122
Width: 590
GlyphClass: 2
Flags: MW
HStem: 306 12<132 311 324 405 132 311> 637 12<417 531 417 417>
VStem: 120 12<0 306 318 650>
AnchorPoint: "Anchor-7" 308 649 basechar 0
AnchorPoint: "Anchor-5" 308 0 basechar 0
LayerCount: 2
Fore
SplineSet
120 650 m 1
 132 650 l 1
 132 318 l 1
 311 318 l 1
 407 649 l 1
 531 649 l 1
 531 637 l 1
 417 637 l 1
 324 318 l 1
 414 318 l 1
 540 0 l 1
 529 0 l 1
 405 306 l 1
 132 306 l 1
 132 0 l 1
 120 0 l 1
 120 650 l 1
EndSplineSet
EndChar

StartChar: W.ss03
Encoding: 65539 -1 123
Width: 880
GlyphClass: 2
Flags: MW
HStem: 0 12<233 296 233 305 224 296 584 648> 508 12<409 471 409 409>
VStem: 50 780<649 649>
AnchorPoint: "Anchor-7" 440 650 basechar 0
AnchorPoint: "Anchor-5" 440 0 basechar 0
LayerCount: 2
Fore
SplineSet
50 649 m 1
 63 649 l 1
 233 12 l 1
 296 12 l 1
 399 520 l 1
 481 520 l 1
 584 12 l 1
 648 12 l 1
 818 649 l 1
 830 649 l 1
 656 0 l 1
 575 0 l 1
 471 508 l 1
 409 508 l 1
 305 0 l 1
 224 0 l 1
 50 649 l 1
EndSplineSet
EndChar

StartChar: Wacute.ss03
Encoding: 65540 -1 124
Width: 880
GlyphClass: 2
Flags: MW
HStem: 0 12<233 296 233 305 224 296 584 648> 508 12<409 471 409 409>
VStem: 50 780<649 649>
AnchorPoint: "Anchor-7" 440 801 basechar 0
AnchorPoint: "Anchor-5" 440 0 basechar 0
LayerCount: 2
Fore
SplineSet
50 649 m 1
 63 649 l 1
 233 12 l 1
 296 12 l 1
 399 520 l 1
 481 520 l 1
 584 12 l 1
 648 12 l 1
 818 649 l 1
 830 649 l 1
 656 0 l 1
 575 0 l 1
 471 508 l 1
 409 508 l 1
 305 0 l 1
 224 0 l 1
 50 649 l 1
435 701 m 1
 491 801 l 1
 505 801 l 1
 449 701 l 1
 435 701 l 1
EndSplineSet
EndChar

StartChar: Wcircumflex.ss03
Encoding: 65541 -1 125
Width: 880
GlyphClass: 2
Flags: MW
HStem: 0 12<233 296 233 305 224 296 584 648> 508 12<409 471 409 409> 793 8<440 440>
VStem: 50 780<649 649>
AnchorPoint: "Anchor-7" 440 801 basechar 0
AnchorPoint: "Anchor-5" 440 0 basechar 0
LayerCount: 2
Fore
SplineSet
50 649 m 1
 63 649 l 1
 233 12 l 1
 296 12 l 1
 399 520 l 1
 481 520 l 1
 584 12 l 1
 648 12 l 1
 818 649 l 1
 830 649 l 1
 656 0 l 1
 575 0 l 1
 471 508 l 1
 409 508 l 1
 305 0 l 1
 224 0 l 1
 50 649 l 1
315 702 m 1
 431 801 l 1
 449 801 l 1
 565 702 l 1
 547 702 l 1
 440 793 l 1
 333 702 l 1
 315 702 l 1
EndSplineSet
EndChar

StartChar: Wdieresis.ss03
Encoding: 65542 -1 126
Width: 880
GlyphClass: 2
Flags: MW
HStem: 0 12<233 296 233 305 224 296 584 648> 508 12<409 471 409 409> 741 42<354 366 514 526>
VStem: 339 42<756 768> 499 42<756 768>
AnchorPoint: "Anchor-7" 440 822 basechar 0
AnchorPoint: "Anchor-5" 440 0 basechar 0
LayerCount: 2
Fore
SplineSet
50 649 m 1
 63 649 l 1
 233 12 l 1
 296 12 l 1
 399 520 l 1
 481 520 l 1
 584 12 l 1
 648 12 l 1
 818 649 l 1
 830 649 l 1
 656 0 l 1
 575 0 l 1
 471 508 l 1
 409 508 l 1
 305 0 l 1
 224 0 l 1
 50 649 l 1
339 762 m 0
 339 774 348 783 360 783 c 0
 372 783 381 774 381 762 c 0
 381 750 372 741 360 741 c 0
 348 741 339 750 339 762 c 0
499 762 m 0
 499 774 508 783 520 783 c 0
 532 783 541 774 541 762 c 0
 541 750 532 741 520 741 c 0
 508 741 499 750 499 762 c 0
EndSplineSet
EndChar

StartChar: Wgrave.ss03
Encoding: 65543 -1 127
Width: 880
GlyphClass: 2
Flags: MW
HStem: 0 12<233 296 233 305 224 296 584 648> 508 12<409 471 409 409>
VStem: 50 780<649 649>
AnchorPoint: "Anchor-7" 440 801 basechar 0
AnchorPoint: "Anchor-5" 440 0 basechar 0
LayerCount: 2
Fore
SplineSet
50 649 m 1
 63 649 l 1
 233 12 l 1
 296 12 l 1
 399 520 l 1
 481 520 l 1
 584 12 l 1
 648 12 l 1
 818 649 l 1
 830 649 l 1
 656 0 l 1
 575 0 l 1
 471 508 l 1
 409 508 l 1
 305 0 l 1
 224 0 l 1
 50 649 l 1
375 801 m 1
 389 801 l 1
 445 701 l 1
 431 701 l 1
 375 801 l 1
EndSplineSet
EndChar

StartChar: O.ss04
Encoding: 65544 -1 128
Width: 800
GlyphClass: 2
Flags: MW
HStem: -16 12<314 486 314 489.5> 652 12<314 486>
VStem: 80 12<232 416 232 419> 708 12<232 416>
AnchorPoint: "Anchor-7" 400 649 basechar 0
AnchorPoint: "Anchor-6" 482 10 basechar 0
AnchorPoint: "Anchor-5" 400 0 basechar 0
LayerCount: 2
Fore
SplineSet
400 -16 m 0
 222 -16 80 134 80 324 c 0
 80 514 221 664 400 664 c 0
 579 664 720 514 720 324 c 0
 720 134 579 -16 400 -16 c 0
92 324 m 0
 92 140 228 -4 400 -4 c 0
 572 -4 708 140 708 324 c 0
 708 508 572 652 400 652 c 0
 228 652 92 508 92 324 c 0
EndSplineSet
EndChar

StartChar: Oacute.ss04
Encoding: 65545 -1 129
Width: 800
GlyphClass: 2
Flags: MW
HStem: -16 12<314 486 314 489.5> 652 12<314 486>
VStem: 80 12<232 416 232 419> 708 12<232 416>
AnchorPoint: "Anchor-7" 400 800 basechar 0
AnchorPoint: "Anchor-6" 482 10 basechar 0
AnchorPoint: "Anchor-5" 400 0 basechar 0
LayerCount: 2
Fore
SplineSet
400 -16 m 0
 222 -16 80 134 80 324 c 0
 80 514 221 664 400 664 c 0
 579 664 720 514 720 324 c 0
 720 134 579 -16 400 -16 c 0
92 324 m 0
 92 140 228 -4 400 -4 c 0
 572 -4 708 140 708 324 c 0
 708 508 572 652 400 652 c 0
 228 652 92 508 92 324 c 0
395 700 m 1
 451 800 l 1
 465 800 l 1
 409 700 l 1
 395 700 l 1
EndSplineSet
EndChar

StartChar: Ocircumflex.ss04
Encoding: 65546 -1 130
Width: 800
GlyphClass: 2
Flags: MW
HStem: -16 12<314 486 314 489.5> 652 12<314 486> 792 8<400 400>
VStem: 80 12<232 416 232 419> 708 12<232 416>
AnchorPoint: "Anchor-7" 400 800 basechar 0
AnchorPoint: "Anchor-6" 482 10 basechar 0
AnchorPoint: "Anchor-5" 400 0 basechar 0
LayerCount: 2
Fore
SplineSet
400 -16 m 0
 222 -16 80 134 80 324 c 0
 80 514 221 664 400 664 c 0
 579 664 720 514 720 324 c 0
 720 134 579 -16 400 -16 c 0
92 324 m 0
 92 140 228 -4 400 -4 c 0
 572 -4 708 140 708 324 c 0
 708 508 572 652 400 652 c 0
 228 652 92 508 92 324 c 0
275 701 m 1
 391 800 l 1
 409 800 l 1
 525 701 l 1
 507 701 l 1
 400 792 l 1
 293 701 l 1
 275 701 l 1
EndSplineSet
EndChar

StartChar: Odieresis.ss04
Encoding: 65547 -1 131
Width: 800
GlyphClass: 2
Flags: MW
HStem: -16 12<314 486 314 489.5> 652 12<314 486> 740 42<314 326 474 486>
VStem: 80 12<232 416 232 419> 299 42<755 767> 459 42<755 767> 708 12<232 416>
AnchorPoint: "Anchor-7" 400 821 basechar 0
AnchorPoint: "Anchor-6" 482 10 basechar 0
AnchorPoint: "Anchor-5" 400 0 basechar 0
LayerCount: 2
Fore
SplineSet
400 -16 m 0
 222 -16 80 134 80 324 c 0
 80 514 221 664 400 664 c 0
 579 664 720 514 720 324 c 0
 720 134 579 -16 400 -16 c 0
92 324 m 0
 92 140 228 -4 400 -4 c 0
 572 -4 708 140 708 324 c 0
 708 508 572 652 400 652 c 0
 228 652 92 508 92 324 c 0
299 761 m 0
 299 773 308 782 320 782 c 0
 332 782 341 773 341 761 c 0
 341 749 332 740 320 740 c 0
 308 740 299 749 299 761 c 0
459 761 m 0
 459 773 468 782 480 782 c 0
 492 782 501 773 501 761 c 0
 501 749 492 740 480 740 c 0
 468 740 459 749 459 761 c 0
EndSplineSet
EndChar

StartChar: Ograve.ss04
Encoding: 65548 -1 132
Width: 800
GlyphClass: 2
Flags: MW
HStem: -16 12<314 486 314 489.5> 652 12<314 486>
VStem: 80 12<232 416 232 419> 708 12<232 416>
AnchorPoint: "Anchor-7" 400 800 basechar 0
AnchorPoint: "Anchor-6" 482 10 basechar 0
AnchorPoint: "Anchor-5" 400 0 basechar 0
LayerCount: 2
Fore
SplineSet
400 -16 m 0
 222 -16 80 134 80 324 c 0
 80 514 221 664 400 664 c 0
 579 664 720 514 720 324 c 0
 720 134 579 -16 400 -16 c 0
92 324 m 0
 92 140 228 -4 400 -4 c 0
 572 -4 708 140 708 324 c 0
 708 508 572 652 400 652 c 0
 228 652 92 508 92 324 c 0
335 800 m 1
 349 800 l 1
 405 700 l 1
 391 700 l 1
 335 800 l 1
EndSplineSet
EndChar

StartChar: Ohungarumlaut.ss04
Encoding: 65549 -1 133
Width: 800
GlyphClass: 2
Flags: MW
HStem: -16 12<314 486 314 489.5> 652 12<314 486>
VStem: 80 12<232 416 232 419> 708 12<232 416>
AnchorPoint: "Anchor-7" 400 880 basechar 0
AnchorPoint: "Anchor-6" 482 10 basechar 0
AnchorPoint: "Anchor-5" 400 0 basechar 0
LayerCount: 2
Fore
SplineSet
400 -16 m 0
 222 -16 80 134 80 324 c 0
 80 514 221 664 400 664 c 0
 579 664 720 514 720 324 c 0
 720 134 579 -16 400 -16 c 0
92 324 m 0
 92 140 228 -4 400 -4 c 0
 572 -4 708 140 708 324 c 0
 708 508 572 652 400 652 c 0
 228 652 92 508 92 324 c 0
305 700 m 1
 361 880 l 1
 374 880 l 1
 318 700 l 1
 305 700 l 1
486 700 m 1
 542 880 l 1
 555 880 l 1
 499 700 l 1
 486 700 l 1
EndSplineSet
EndChar

StartChar: Omacron.ss04
Encoding: 65550 -1 134
Width: 800
GlyphClass: 2
Flags: MW
HStem: -16 12<314 486 314 489.5> 652 12<314 486> 753 12<235 565 235 565>
VStem: 80 12<232 416 232 419> 708 12<232 416>
AnchorPoint: "Anchor-7" 400 765 basechar 0
AnchorPoint: "Anchor-6" 482 10 basechar 0
AnchorPoint: "Anchor-5" 400 0 basechar 0
LayerCount: 2
Fore
SplineSet
400 -16 m 0
 222 -16 80 134 80 324 c 0
 80 514 221 664 400 664 c 0
 579 664 720 514 720 324 c 0
 720 134 579 -16 400 -16 c 0
92 324 m 0
 92 140 228 -4 400 -4 c 0
 572 -4 708 140 708 324 c 0
 708 508 572 652 400 652 c 0
 228 652 92 508 92 324 c 0
235 753 m 1
 235 765 l 1
 565 765 l 1
 565 753 l 1
 235 753 l 1
EndSplineSet
EndChar

StartChar: Oslash.ss04
Encoding: 65551 -1 135
Width: 820
GlyphClass: 2
Flags: MW
HStem: -16 12<365.5 486 365.5 489.5> 652 12<314 440.5>
VStem: 80 12<271.5 416 271.5 419> 708 12<232 370.5>
AnchorPoint: "Anchor-7" 400 649 basechar 0
AnchorPoint: "Anchor-6" 482 10 basechar 0
AnchorPoint: "Anchor-5" 400 0 basechar 0
LayerCount: 2
Fore
SplineSet
152 0 m 1
 199 58 l 1
 126 120 80 216 80 324 c 0
 80 514 221 664 400 664 c 0
 484 664 559 631 615 577 c 1
 673 649 l 1
 689 649 l 1
 624 568 l 1
 684 507 720 421 720 324 c 0
 720 134 579 -16 400 -16 c 0
 328 -16 262 9 209 50 c 1
 168 0 l 1
 152 0 l 1
92 324 m 0
 92 219 136 127 206 67 c 1
 608 568 l 1
 553 620 481 652 400 652 c 0
 228 652 92 508 92 324 c 0
216 60 m 1
 267 19 331 -4 400 -4 c 0
 572 -4 708 140 708 324 c 0
 708 417 673 500 617 559 c 1
 216 60 l 1
EndSplineSet
EndChar

StartChar: Otilde.ss04
Encoding: 65552 -1 136
Width: 800
GlyphClass: 2
Flags: MW
HStem: -16 12<314 486 314 489.5> 652 12<314 486> 697 12<453 493.5 453 497.5> 792 12<309.5 353>
VStem: 80 12<232 416 232 419> 258 12<700 728.5 700 733> 535 12<769 799> 708 12<232 416>
AnchorPoint: "Anchor-7" 400 799 basechar 0
AnchorPoint: "Anchor-6" 482 10 basechar 0
AnchorPoint: "Anchor-5" 400 0 basechar 0
LayerCount: 2
Fore
SplineSet
400 -16 m 0
 222 -16 80 134 80 324 c 0
 80 514 221 664 400 664 c 0
 579 664 720 514 720 324 c 0
 720 134 579 -16 400 -16 c 0
92 324 m 0
 92 140 228 -4 400 -4 c 0
 572 -4 708 140 708 324 c 0
 708 508 572 652 400 652 c 0
 228 652 92 508 92 324 c 0
258 700 m 1
 258 766 287 804 326 804 c 0
 390 804 427 709 479 709 c 0
 508 709 535 739 535 799 c 1
 547 799 l 1
 547 731 515 697 480 697 c 0
 422 697 380 792 326 792 c 0
 293 792 270 757 270 700 c 1
 258 700 l 1
EndSplineSet
EndChar

StartChar: Q.ss04
Encoding: 65553 -1 137
Width: 800
GlyphClass: 2
Flags: MW
HStem: -16 12<314 440.5 314 442> 652 12<314 486>
VStem: 80 12<232 416 232 419> 708 12<277.5 416>
AnchorPoint: "Anchor-7" 400 650 basechar 0
AnchorPoint: "Anchor-5" 400 0 basechar 0
LayerCount: 2
Fore
SplineSet
687 0 m 1
 617 72 l 1
 560 17 484 -16 400 -16 c 0
 222 -16 80 134 80 324 c 0
 80 514 221 664 400 664 c 0
 579 664 720 514 720 324 c 0
 720 228 684 141 625 80 c 1
 702 0 l 1
 687 0 l 1
92 324 m 0
 92 140 228 -4 400 -4 c 0
 481 -4 554 28 608 81 c 1
 482 210 l 1
 490 219 l 1
 616 89 l 1
 673 148 708 231 708 324 c 0
 708 508 572 652 400 652 c 0
 228 652 92 508 92 324 c 0
EndSplineSet
EndChar

StartChar: O.ss05
Encoding: 65554 -1 138
Width: 998
GlyphClass: 2
Flags: MW
HStem: 0 12<315.5 589 409 589> 637 12<323.5 589 409 589>
VStem: 80 12<240.5 412 240.5 415> 906 12<240.5 412>
AnchorPoint: "Anchor-7" 499 649 basechar 0
AnchorPoint: "Anchor-6" 906 10 basechar 0
AnchorPoint: "Anchor-5" 499 0 basechar 0
LayerCount: 2
Fore
SplineSet
409 0 m 2
 222 0 80 148 80 329 c 0
 80 501 231 649 409 649 c 2
 589 649 l 2
 765 649 918 504 918 329 c 0
 918 146 773 0 589 0 c 2
 409 0 l 2
92 329 m 0
 92 152 232 12 409 12 c 2
 589 12 l 2
 766 12 906 152 906 329 c 0
 906 495 760 637 589 637 c 2
 409 637 l 2
 238 637 92 495 92 329 c 0
EndSplineSet
EndChar

StartChar: Oacute.ss05
Encoding: 65555 -1 139
Width: 998
GlyphClass: 2
Flags: MW
HStem: 0 12<315.5 589 409 589> 637 12<323.5 589 409 589>
VStem: 80 12<240.5 412 240.5 415> 906 12<240.5 412>
AnchorPoint: "Anchor-7" 499 800 basechar 0
AnchorPoint: "Anchor-6" 906 10 basechar 0
AnchorPoint: "Anchor-5" 499 0 basechar 0
LayerCount: 2
Fore
SplineSet
409 0 m 2
 222 0 80 148 80 329 c 0
 80 501 231 649 409 649 c 2
 589 649 l 2
 765 649 918 504 918 329 c 0
 918 146 773 0 589 0 c 2
 409 0 l 2
92 329 m 0
 92 152 232 12 409 12 c 2
 589 12 l 2
 766 12 906 152 906 329 c 0
 906 495 760 637 589 637 c 2
 409 637 l 2
 238 637 92 495 92 329 c 0
494 700 m 1
 550 800 l 1
 564 800 l 1
 508 700 l 1
 494 700 l 1
EndSplineSet
EndChar

StartChar: Ocircumflex.ss05
Encoding: 65556 -1 140
Width: 998
GlyphClass: 2
Flags: MW
HStem: 0 12<315.5 589 409 589> 637 12<323.5 589 409 589> 792 8<499 499>
VStem: 80 12<240.5 412 240.5 415> 906 12<240.5 412>
AnchorPoint: "Anchor-7" 499 800 basechar 0
AnchorPoint: "Anchor-6" 906 10 basechar 0
AnchorPoint: "Anchor-5" 499 0 basechar 0
LayerCount: 2
Fore
SplineSet
409 0 m 2
 222 0 80 148 80 329 c 0
 80 501 231 649 409 649 c 2
 589 649 l 2
 765 649 918 504 918 329 c 0
 918 146 773 0 589 0 c 2
 409 0 l 2
92 329 m 0
 92 152 232 12 409 12 c 2
 589 12 l 2
 766 12 906 152 906 329 c 0
 906 495 760 637 589 637 c 2
 409 637 l 2
 238 637 92 495 92 329 c 0
374 701 m 1
 490 800 l 1
 508 800 l 1
 624 701 l 1
 606 701 l 1
 499 792 l 1
 392 701 l 1
 374 701 l 1
EndSplineSet
EndChar

StartChar: Odieresis.ss05
Encoding: 65557 -1 141
Width: 998
GlyphClass: 2
Flags: MW
HStem: 0 12<315.5 589 409 589> 637 12<323.5 589 409 589> 740 42<413 425 573 585>
VStem: 80 12<240.5 412 240.5 415> 398 42<755 767> 558 42<755 767> 906 12<240.5 412>
AnchorPoint: "Anchor-7" 499 821 basechar 0
AnchorPoint: "Anchor-6" 906 10 basechar 0
AnchorPoint: "Anchor-5" 499 0 basechar 0
LayerCount: 2
Fore
SplineSet
409 0 m 2
 222 0 80 148 80 329 c 0
 80 501 231 649 409 649 c 2
 589 649 l 2
 765 649 918 504 918 329 c 0
 918 146 773 0 589 0 c 2
 409 0 l 2
92 329 m 0
 92 152 232 12 409 12 c 2
 589 12 l 2
 766 12 906 152 906 329 c 0
 906 495 760 637 589 637 c 2
 409 637 l 2
 238 637 92 495 92 329 c 0
398 761 m 0
 398 773 407 782 419 782 c 0
 431 782 440 773 440 761 c 0
 440 749 431 740 419 740 c 0
 407 740 398 749 398 761 c 0
558 761 m 0
 558 773 567 782 579 782 c 0
 591 782 600 773 600 761 c 0
 600 749 591 740 579 740 c 0
 567 740 558 749 558 761 c 0
EndSplineSet
EndChar

StartChar: Ograve.ss05
Encoding: 65558 -1 142
Width: 998
GlyphClass: 2
Flags: MW
HStem: 0 12<315.5 589 409 589> 637 12<323.5 589 409 589>
VStem: 80 12<240.5 412 240.5 415> 906 12<240.5 412>
AnchorPoint: "Anchor-7" 499 800 basechar 0
AnchorPoint: "Anchor-6" 906 10 basechar 0
AnchorPoint: "Anchor-5" 499 0 basechar 0
LayerCount: 2
Fore
SplineSet
409 0 m 2
 222 0 80 148 80 329 c 0
 80 501 231 649 409 649 c 2
 589 649 l 2
 765 649 918 504 918 329 c 0
 918 146 773 0 589 0 c 2
 409 0 l 2
92 329 m 0
 92 152 232 12 409 12 c 2
 589 12 l 2
 766 12 906 152 906 329 c 0
 906 495 760 637 589 637 c 2
 409 637 l 2
 238 637 92 495 92 329 c 0
434 800 m 1
 448 800 l 1
 504 700 l 1
 490 700 l 1
 434 800 l 1
EndSplineSet
EndChar

StartChar: Ohungarumlaut.ss05
Encoding: 65559 -1 143
Width: 998
GlyphClass: 2
Flags: MW
HStem: 0 12<315.5 589 409 589> 637 12<323.5 589 409 589>
VStem: 80 12<240.5 412 240.5 415> 906 12<240.5 412>
AnchorPoint: "Anchor-7" 499 880 basechar 0
AnchorPoint: "Anchor-6" 906 10 basechar 0
AnchorPoint: "Anchor-5" 499 0 basechar 0
LayerCount: 2
Fore
SplineSet
409 0 m 2
 222 0 80 148 80 329 c 0
 80 501 231 649 409 649 c 2
 589 649 l 2
 765 649 918 504 918 329 c 0
 918 146 773 0 589 0 c 2
 409 0 l 2
92 329 m 0
 92 152 232 12 409 12 c 2
 589 12 l 2
 766 12 906 152 906 329 c 0
 906 495 760 637 589 637 c 2
 409 637 l 2
 238 637 92 495 92 329 c 0
404 700 m 1
 460 880 l 1
 473 880 l 1
 417 700 l 1
 404 700 l 1
585 700 m 1
 641 880 l 1
 654 880 l 1
 598 700 l 1
 585 700 l 1
EndSplineSet
EndChar

StartChar: Omacron.ss05
Encoding: 65560 -1 144
Width: 998
GlyphClass: 2
Flags: MW
HStem: 0 12<315.5 589 409 589> 637 12<323.5 589 409 589> 753 12<334 664 334 664>
VStem: 80 12<240.5 412 240.5 415> 906 12<240.5 412>
AnchorPoint: "Anchor-7" 499 765 basechar 0
AnchorPoint: "Anchor-6" 906 10 basechar 0
AnchorPoint: "Anchor-5" 499 0 basechar 0
LayerCount: 2
Fore
SplineSet
409 0 m 2
 222 0 80 148 80 329 c 0
 80 501 231 649 409 649 c 2
 589 649 l 2
 765 649 918 504 918 329 c 0
 918 146 773 0 589 0 c 2
 409 0 l 2
92 329 m 0
 92 152 232 12 409 12 c 2
 589 12 l 2
 766 12 906 152 906 329 c 0
 906 495 760 637 589 637 c 2
 409 637 l 2
 238 637 92 495 92 329 c 0
334 753 m 1
 334 765 l 1
 664 765 l 1
 664 753 l 1
 334 753 l 1
EndSplineSet
EndChar

StartChar: Oslash.ss05
Encoding: 65561 -1 145
Width: 1018
GlyphClass: 2
Flags: MW
HStem: 0 12<379 589 409 589> 637 12<323.5 589 409 589>
VStem: 80 12<270.5 412 270.5 415> 906 12<240.5 381>
AnchorPoint: "Anchor-7" 499 649 basechar 0
AnchorPoint: "Anchor-6" 906 10 basechar 0
AnchorPoint: "Anchor-5" 499 0 basechar 0
LayerCount: 2
Fore
SplineSet
191 0 m 1
 236 48 l 1
 141 105 80 210 80 329 c 0
 80 501 231 649 409 649 c 2
 589 649 l 2
 652 649 712 630 764 598 c 1
 812 649 l 1
 828 649 l 1
 773 592 l 1
 860 534 918 437 918 329 c 0
 918 146 773 0 589 0 c 2
 409 0 l 2
 349 0 294 15 247 42 c 1
 207 0 l 1
 191 0 l 1
92 329 m 0
 92 212 153 112 245 57 c 1
 755 589 l 1
 706 619 649 637 589 637 c 2
 409 637 l 2
 238 637 92 495 92 329 c 0
256 51 m 1
 301 26 353 12 409 12 c 2
 589 12 l 2
 766 12 906 152 906 329 c 0
 906 433 849 527 765 583 c 1
 256 51 l 1
EndSplineSet
EndChar

StartChar: Otilde.ss05
Encoding: 65562 -1 146
Width: 998
GlyphClass: 2
Flags: MW
HStem: 0 12<315.5 589 409 589> 637 12<323.5 589 409 589> 697 12<552 592.5 552 596.5> 792 12<408.5 452>
VStem: 80 12<240.5 412 240.5 415> 357 12<700 728.5 700 733> 634 12<769 799> 906 12<240.5 412>
AnchorPoint: "Anchor-7" 499 799 basechar 0
AnchorPoint: "Anchor-6" 906 10 basechar 0
AnchorPoint: "Anchor-5" 499 0 basechar 0
LayerCount: 2
Fore
SplineSet
409 0 m 2
 222 0 80 148 80 329 c 0
 80 501 231 649 409 649 c 2
 589 649 l 2
 765 649 918 504 918 329 c 0
 918 146 773 0 589 0 c 2
 409 0 l 2
92 329 m 0
 92 152 232 12 409 12 c 2
 589 12 l 2
 766 12 906 152 906 329 c 0
 906 495 760 637 589 637 c 2
 409 637 l 2
 238 637 92 495 92 329 c 0
357 700 m 1
 357 766 386 804 425 804 c 0
 489 804 526 709 578 709 c 0
 607 709 634 739 634 799 c 1
 646 799 l 1
 646 731 614 697 579 697 c 0
 521 697 479 792 425 792 c 0
 392 792 369 757 369 700 c 1
 357 700 l 1
EndSplineSet
EndChar

StartChar: Q.ss05
Encoding: 65563 -1 147
Width: 1008
GlyphClass: 2
Flags: MW
HStem: 0 12<315.5 589 409 589> 637 12<323.5 589 409 589>
VStem: 80 12<240.5 412 240.5 415> 906 12<286.5 412>
AnchorPoint: "Anchor-7" 499 649 basechar 0
AnchorPoint: "Anchor-6" 906 10 basechar 0
AnchorPoint: "Anchor-5" 499 0 basechar 0
LayerCount: 2
Fore
SplineSet
913 0 m 1
 821 94 l 1
 762 36 680 0 589 0 c 2
 409 0 l 2
 222 0 80 148 80 329 c 0
 80 501 231 649 409 649 c 2
 589 649 l 2
 765 649 918 504 918 329 c 0
 918 241 884 161 829 102 c 1
 928 0 l 1
 913 0 l 1
92 329 m 0
 92 152 232 12 409 12 c 2
 589 12 l 2
 677 12 756 46 813 103 c 1
 708 210 l 1
 716 219 l 1
 821 111 l 1
 874 168 906 244 906 329 c 0
 906 495 760 637 589 637 c 2
 409 637 l 2
 238 637 92 495 92 329 c 0
EndSplineSet
EndChar

StartChar: A_O_N.dlig
Encoding: 65564 -1 148
Width: 1950
GlyphClass: 3
Flags: MW
HStem: -16 12<860 1016 844 1019.5> 210 12<142 499 142 503 137 499 516 624 516 516> 311 12<1756 1818 1756 1818 1750 1818> 638 12<289 352 289 289 1447 1447 1447 1509> 652 12<844 1016>
VStem: 610 12<306 416 232 419> 1238 12<232 416> 1435 12<0 638 0 650> 1818 12<0 311 311 311 323 650 0 650>
AnchorPoint: "Anchor-13" 1623 649 baselig 0
AnchorPoint: "Anchor-12" 1813 0 baselig 0
AnchorPoint: "Anchor-11" 1623 0 baselig 0
AnchorPoint: "Anchor-13" 320 650 baselig 1
AnchorPoint: "Anchor-12" 584 10 baselig 1
AnchorPoint: "Anchor-11" 320 0 baselig 1
LayerCount: 2
Fore
SplineSet
930 -16 m 0
 790 -16 672 77 628 210 c 1
 516 210 l 1
 590 0 l 1
 577 0 l 1
 503 210 l 1
 137 210 l 1
 63 0 l 1
 50 0 l 1
 280 650 l 1
 360 650 l 1xf780
 511 222 l 1
 624 222 l 1
 615 254 610 288 610 324 c 0
 610 514 751 664 930 664 c 0
 1109 664 1250 514 1250 324 c 0
 1250 134 1109 -16 930 -16 c 0
142 222 m 1
 499 222 l 1
 352 638 l 1
 289 638 l 1xf780
 142 222 l 1
622 324 m 0
 622 140 758 -4 930 -4 c 0
 1102 -4 1238 140 1238 324 c 0
 1238 508 1102 652 930 652 c 0xef80
 758 652 622 508 622 324 c 0
1435 0 m 1
 1435 650 l 1
 1515 650 l 1
 1756 323 l 1
 1818 323 l 1
 1818 650 l 1
 1830 650 l 1
 1830 0 l 1
 1818 0 l 1
 1818 311 l 1
 1750 311 l 1
 1509 638 l 1
 1447 638 l 1
 1447 0 l 1
 1435 0 l 1
EndSplineSet
Ligature2: "'dlig' Discretionary Ligatures in Latin lookup 7 subtable" A O N
EndChar

StartChar: Eacute_E.dlig
Encoding: 65565 -1 149
Width: 720
GlyphClass: 3
Flags: MW
HStem: 0 12<110 354 366 610 110 354> 318 12<160 354 160 354 366 560> 637 12<110 610 110 354 366 366 366 610>
VStem: 354 12<12 318 12 318 330 637>
LayerCount: 2
Fore
SplineSet
110 637 m 1
 110 649 l 1
 610 649 l 1
 610 637 l 1
 366 637 l 1
 366 330 l 1
 560 330 l 1
 560 318 l 1
 366 318 l 1
 366 12 l 1
 610 12 l 1
 610 0 l 1
 110 0 l 1
 110 12 l 1
 354 12 l 1
 354 318 l 1
 160 318 l 1
 160 330 l 1
 354 330 l 1
 354 637 l 1
 110 637 l 1
354 700 m 1
 410 800 l 1
 424 800 l 1
 368 700 l 1
 354 700 l 1
EndSplineSet
Ligature2: "'dlig' Discretionary Ligatures in Latin lookup 7 subtable" Eacute E
EndChar

StartChar: F_V_E.dlig
Encoding: 65566 -1 150
Width: 1372
GlyphClass: 3
Flags: MW
HStem: 0 12<538 601 538 610 529 601 984 1272> 0 330<984 1222 984 1272 972 1222> 314 12<132 425 132 433> 318 12<984 1222 984 1222> 638 12<132 430 132 132 984 984 984 1272>
VStem: 120 12<0 314 326 638> 972 12<12 318 330 638>
AnchorPoint: "Anchor-13" 260 650 baselig 0
AnchorPoint: "Anchor-11" 260 0 baselig 0
AnchorPoint: "Anchor-11" 1127 0 baselig 1
AnchorPoint: "Anchor-13" 1127 650 baselig 1
AnchorPoint: "Anchor-12" 1255 0 baselig 1
LayerCount: 2
Fore
SplineSet
433 326 m 1xae
 538 12 l 1
 601 12 l 1
 803 649 l 1
 815 649 l 1
 610 0 l 1
 529 0 l 1
 425 314 l 1
 132 314 l 1xae
 132 0 l 1
 120 0 l 1x4e
 120 650 l 1
 430 650 l 1
 430 638 l 1
 132 638 l 1
 132 326 l 1
 433 326 l 1xae
972 0 m 1
 972 650 l 1
 1272 650 l 1
 1272 638 l 1
 984 638 l 1
 984 330 l 1
 1222 330 l 1
 1222 318 l 1
 984 318 l 1x9e
 984 12 l 1
 1272 12 l 1
 1272 0 l 1
 972 0 l 1
EndSplineSet
Ligature2: "'dlig' Discretionary Ligatures in Latin lookup 7 subtable" F V E
EndChar

StartChar: I_E.dlig
Encoding: 65567 -1 151
Width: 520
GlyphClass: 3
Flags: MW
HStem: 0 12<191 420 191 420> 319 12<191 370 191 370> 637 12<236 420> 740 42<179 191>
VStem: 164 42<755 767> 179 12<12 319 331 649>
LayerCount: 2
Fore
SplineSet
179 0 m 1xe4
 179 649 l 1
 191 649 l 1
 191 331 l 1
 370 331 l 1
 370 319 l 1
 191 319 l 1
 191 12 l 1
 420 12 l 1
 420 0 l 1
 179 0 l 1xe4
164 761 m 0xf8
 164 773 173 782 185 782 c 0
 197 782 206 773 206 761 c 0
 206 749 197 740 185 740 c 0
 173 740 164 749 164 761 c 0xf8
236 637 m 1
 236 649 l 1
 420 649 l 1
 420 637 l 1
 236 637 l 1
EndSplineSet
Ligature2: "'dlig' Discretionary Ligatures in Latin lookup 7 subtable" I E
EndChar

StartChar: M_P.dlig
Encoding: 65568 -1 152
Width: 1140
GlyphClass: 3
Flags: MW
HStem: 214 12<686 875 686 875> 311 12<358 421 365 421 365 428> 638 12<112 174 112 112 612 612 612 674 686 686 686 875>
VStem: 100 12<0 638 0 650> 674 12<0 214 226 638> 1078 12<369.5 494.5>
LayerCount: 2
Fore
SplineSet
358 311 m 1
 174 638 l 1
 112 638 l 1
 112 0 l 1
 100 0 l 1
 100 650 l 1
 181 650 l 1
 365 323 l 1
 421 323 l 1
 605 650 l 1
 875 650 l 2
 1004 650 1090 563 1090 432 c 0
 1090 301 1004 214 875 214 c 2
 686 214 l 1
 686 0 l 1
 674 0 l 1
 674 638 l 1
 612 638 l 1
 428 311 l 1
 358 311 l 1
686 226 m 1
 875 226 l 2
 998 226 1078 307 1078 432 c 0
 1078 557 998 638 875 638 c 2
 686 638 l 1
 686 226 l 1
EndSplineSet
Ligature2: "'dlig' Discretionary Ligatures in Latin lookup 7 subtable" M P
EndChar

StartChar: N_E.dlig
Encoding: 65569 -1 153
Width: 835
GlyphClass: 3
Flags: MW
HStem: 0 12<475 735 475 735> 311 12<421 463 421 463 415 463 475 685> 637 12<475 735 475 735> 638 12<132 174 132 132>
VStem: 120 12<0 638 0 650> 463 12<12 311 12 311 12 311 323 637 649 650>
LayerCount: 2
Fore
SplineSet
463 650 m 1xec
 475 650 l 1
 475 649 l 1
 735 649 l 1
 735 637 l 1
 475 637 l 1xec
 475 323 l 1
 685 323 l 1
 685 311 l 1
 475 311 l 1
 475 12 l 1
 735 12 l 1
 735 0 l 1
 463 0 l 1
 463 311 l 1
 415 311 l 1
 174 638 l 1
 132 638 l 1
 132 0 l 1
 120 0 l 1
 120 650 l 1
 180 650 l 1xdc
 421 323 l 1
 463 323 l 1
 463 650 l 1xec
EndSplineSet
Ligature2: "'dlig' Discretionary Ligatures in Latin lookup 7 subtable" N E
EndChar

StartChar: T_E.dlig
Encoding: 65570 -1 154
Width: 945
GlyphClass: 3
Flags: MW
HStem: 0 12<547 845 547 845> 319 12<547 795 547 795> 637 12<50 262 50 845 274 274 274 845>
VStem: 262 12<0 637 0 637> 535 12<12 319 331 592>
LayerCount: 2
Fore
SplineSet
262 0 m 1
 262 637 l 1
 50 637 l 1
 50 649 l 1
 845 649 l 1
 845 637 l 1
 274 637 l 1
 274 0 l 1
 262 0 l 1
535 0 m 1
 535 592 l 1
 547 592 l 1
 547 331 l 1
 795 331 l 1
 795 319 l 1
 547 319 l 1
 547 12 l 1
 845 12 l 1
 845 0 l 1
 535 0 l 1
EndSplineSet
Ligature2: "'dlig' Discretionary Ligatures in Latin lookup 7 subtable" T E
EndChar

StartChar: T_T.liga
Encoding: 65571 -1 155
Width: 940
GlyphClass: 3
Flags: MW
HStem: 637 12<50 890 50 262 274 274 274 667 679 679 679 890>
VStem: 262 12<0 637 0 637> 667 12<0 637 0 637>
LayerCount: 2
Fore
SplineSet
50 637 m 1
 50 649 l 1
 890 649 l 1
 890 637 l 1
 679 637 l 1
 679 0 l 1
 667 0 l 1
 667 637 l 1
 274 637 l 1
 274 0 l 1
 262 0 l 1
 262 637 l 1
 50 637 l 1
EndSplineSet
Ligature2: "'liga' Standard Ligatures in Latin lookup 8 subtable" T T
EndChar

StartChar: V_T_F.dlig
Encoding: 65572 -1 156
Width: 1636
GlyphClass: 3
Flags: MW
HStem: -173 12<389 451 389 460 380 451> 145 12<967 1285 967 1285> 464 12<686 792 686 686 804 955 967 1436 967 967> 637 12<50 792 50 1536 804 804 804 1536>
VStem: 792 12<0 464 0 464 476 637> 955 12<-173 145 157 464>
LayerCount: 2
Fore
SplineSet
792 476 m 1
 792 637 l 1
 50 637 l 1
 50 649 l 1
 1536 649 l 1
 1536 637 l 1
 804 637 l 1
 804 476 l 1
 1436 476 l 1
 1436 464 l 1
 967 464 l 1
 967 157 l 1
 1285 157 l 1
 1285 145 l 1
 967 145 l 1
 967 -173 l 1
 955 -173 l 1
 955 464 l 1
 804 464 l 1
 804 0 l 1
 792 0 l 1
 792 464 l 1
 686 464 l 1
 460 -173 l 1
 380 -173 l 1
 150 476 l 1
 162 476 l 1
 389 -161 l 1
 451 -161 l 1
 678 476 l 1
 792 476 l 1
EndSplineSet
Ligature2: "'dlig' Discretionary Ligatures in Latin lookup 7 subtable" V T F
EndChar

StartChar: a
Encoding: 97 97 157
Width: 540
GlyphClass: 2
Flags: MW
HStem: 0 12<92 448 92 460> 308 12<92 322 92 92> 508 12<80 239 80 239>
VStem: 80 12<12 308 12 320> 448 12<12 260 0 337.5>
AnchorPoint: "Anchor-7" 239 520 basechar 0
AnchorPoint: "Anchor-6" 453 0 basechar 0
AnchorPoint: "Anchor-5" 270 0 basechar 0
LayerCount: 2
Fore
SplineSet
448 260 m 2
 448 415 364 508 239 508 c 2
 80 508 l 1
 80 520 l 1
 239 520 l 2
 367 520 459 427 460 260 c 2
 460 0 l 1
 80 0 l 1
 80 320 l 1
 322 320 l 1
 322 308 l 1
 92 308 l 1
 92 12 l 1
 448 12 l 1
 448 260 l 2
EndSplineSet
EndChar

StartChar: aacute
Encoding: 225 225 158
Width: 540
GlyphClass: 2
Flags: MW
HStem: 0 12<92 448 92 460> 308 12<92 322 92 92> 508 12<80 239 80 239>
VStem: 80 12<12 308 12 320> 448 12<12 260 0 337.5>
AnchorPoint: "Anchor-7" 239 671 basechar 0
AnchorPoint: "Anchor-6" 453 0 basechar 0
AnchorPoint: "Anchor-5" 270 0 basechar 0
LayerCount: 2
Fore
SplineSet
448 260 m 2
 448 415 364 508 239 508 c 2
 80 508 l 1
 80 520 l 1
 239 520 l 2
 367 520 459 427 460 260 c 2
 460 0 l 1
 80 0 l 1
 80 320 l 1
 322 320 l 1
 322 308 l 1
 92 308 l 1
 92 12 l 1
 448 12 l 1
 448 260 l 2
234 571 m 1
 290 671 l 1
 304 671 l 1
 248 571 l 1
 234 571 l 1
EndSplineSet
EndChar

StartChar: abreve
Encoding: 259 259 159
Width: 540
GlyphClass: 2
Flags: MW
HStem: 0 12<92 448 92 460> 308 12<92 322 92 92> 508 12<80 239 80 239> 569 12<212.5 265.5 212.5 268.5>
VStem: 80 12<12 308 12 320> 140 12<643 670 643 670> 326 12<643 670> 448 12<12 260 0 337.5>
AnchorPoint: "Anchor-7" 239 670 basechar 0
AnchorPoint: "Anchor-6" 453 0 basechar 0
AnchorPoint: "Anchor-5" 270 0 basechar 0
LayerCount: 2
Fore
SplineSet
448 260 m 2
 448 415 364 508 239 508 c 2
 80 508 l 1
 80 520 l 1
 239 520 l 2
 367 520 459 427 460 260 c 2
 460 0 l 1
 80 0 l 1
 80 320 l 1
 322 320 l 1
 322 308 l 1
 92 308 l 1
 92 12 l 1
 448 12 l 1
 448 260 l 2
140 670 m 1
 152 670 l 1
 152 616 186 581 239 581 c 0
 292 581 326 616 326 670 c 1
 338 670 l 1
 338 609 298 569 239 569 c 0
 180 569 140 609 140 670 c 1
EndSplineSet
EndChar

StartChar: acircumflex
Encoding: 226 226 160
Width: 540
GlyphClass: 2
Flags: MW
HStem: 0 12<92 448 92 460> 308 12<92 322 92 92> 508 12<80 239 80 239> 663 8<239 239>
VStem: 80 12<12 308 12 320> 448 12<12 260 0 337.5>
AnchorPoint: "Anchor-7" 239 671 basechar 0
AnchorPoint: "Anchor-6" 453 0 basechar 0
AnchorPoint: "Anchor-5" 270 0 basechar 0
LayerCount: 2
Fore
SplineSet
448 260 m 2
 448 415 364 508 239 508 c 2
 80 508 l 1
 80 520 l 1
 239 520 l 2
 367 520 459 427 460 260 c 2
 460 0 l 1
 80 0 l 1
 80 320 l 1
 322 320 l 1
 322 308 l 1
 92 308 l 1
 92 12 l 1
 448 12 l 1
 448 260 l 2
114 572 m 1
 230 671 l 1
 248 671 l 1
 364 572 l 1
 346 572 l 1
 239 663 l 1
 132 572 l 1
 114 572 l 1
EndSplineSet
EndChar

StartChar: adieresis
Encoding: 228 228 161
Width: 540
GlyphClass: 2
Flags: MW
HStem: 0 12<92 448 92 460> 308 12<92 322 92 92> 508 12<80 239 80 239> 611 42<153 165 313 325>
VStem: 80 12<12 308 12 320> 138 42<626 638> 298 42<626 638> 448 12<12 260 0 337.5>
AnchorPoint: "Anchor-7" 239 692 basechar 0
AnchorPoint: "Anchor-6" 453 0 basechar 0
AnchorPoint: "Anchor-5" 270 0 basechar 0
LayerCount: 2
Fore
SplineSet
448 260 m 2
 448 415 364 508 239 508 c 2
 80 508 l 1
 80 520 l 1
 239 520 l 2
 367 520 459 427 460 260 c 2
 460 0 l 1
 80 0 l 1
 80 320 l 1
 322 320 l 1
 322 308 l 1
 92 308 l 1
 92 12 l 1
 448 12 l 1
 448 260 l 2
138 632 m 0
 138 644 147 653 159 653 c 0
 171 653 180 644 180 632 c 0
 180 620 171 611 159 611 c 0
 147 611 138 620 138 632 c 0
298 632 m 0
 298 644 307 653 319 653 c 0
 331 653 340 644 340 632 c 0
 340 620 331 611 319 611 c 0
 307 611 298 620 298 632 c 0
EndSplineSet
EndChar

StartChar: agrave
Encoding: 224 224 162
Width: 540
GlyphClass: 2
Flags: MW
HStem: 0 12<92 448 92 460> 308 12<92 322 92 92> 508 12<80 239 80 239>
VStem: 80 12<12 308 12 320> 448 12<12 260 0 337.5>
AnchorPoint: "Anchor-7" 239 671 basechar 0
AnchorPoint: "Anchor-6" 453 0 basechar 0
AnchorPoint: "Anchor-5" 270 0 basechar 0
LayerCount: 2
Fore
SplineSet
448 260 m 2
 448 415 364 508 239 508 c 2
 80 508 l 1
 80 520 l 1
 239 520 l 2
 367 520 459 427 460 260 c 2
 460 0 l 1
 80 0 l 1
 80 320 l 1
 322 320 l 1
 322 308 l 1
 92 308 l 1
 92 12 l 1
 448 12 l 1
 448 260 l 2
174 671 m 1
 188 671 l 1
 244 571 l 1
 230 571 l 1
 174 671 l 1
EndSplineSet
EndChar

StartChar: amacron
Encoding: 257 257 163
Width: 540
GlyphClass: 2
Flags: MW
HStem: 0 12<92 448 92 460> 308 12<92 322 92 92> 508 12<80 239 80 239> 624 12<74 404 74 404>
VStem: 80 12<12 308 12 320> 448 12<12 260 0 337.5>
AnchorPoint: "Anchor-7" 239 636 basechar 0
AnchorPoint: "Anchor-6" 453 0 basechar 0
AnchorPoint: "Anchor-5" 270 0 basechar 0
LayerCount: 2
Fore
SplineSet
448 260 m 2
 448 415 364 508 239 508 c 2
 80 508 l 1
 80 520 l 1
 239 520 l 2
 367 520 459 427 460 260 c 2
 460 0 l 1
 80 0 l 1
 80 320 l 1
 322 320 l 1
 322 308 l 1
 92 308 l 1
 92 12 l 1
 448 12 l 1
 448 260 l 2
74 624 m 1
 74 636 l 1
 404 636 l 1
 404 624 l 1
 74 624 l 1
EndSplineSet
EndChar

StartChar: aogonek
Encoding: 261 261 164
Width: 540
GlyphClass: 2
Flags: MW
HStem: -200 12<372 557 372 557> 0 12<92 447> 308 12<92 322 92 92> 508 12<80 239 80 239>
VStem: 80 12<12 308 12 320> 448 12<12 260 0 337.5>
AnchorPoint: "Anchor-7" 239 520 basechar 0
AnchorPoint: "Anchor-6" 453 0 basechar 0
AnchorPoint: "Anchor-5" 270 0 basechar 0
LayerCount: 2
Fore
SplineSet
448 260 m 2
 448 415 364 508 239 508 c 2
 80 508 l 1
 80 520 l 1
 239 520 l 2
 367 520 459 427 460 260 c 2
 460 0 l 1
 372 -188 l 1
 557 -188 l 1
 557 -200 l 1
 353 -200 l 1
 447 0 l 1
 80 0 l 1
 80 320 l 1
 322 320 l 1
 322 308 l 1
 92 308 l 1
 92 12 l 1
 448 12 l 1
 448 260 l 2
EndSplineSet
EndChar

StartChar: aring
Encoding: 229 229 165
Width: 540
GlyphClass: 2
Flags: MW
HStem: 0 12<92 448 92 460> 308 12<92 322 92 92> 508 12<80 239 80 239> 569 11<221.5 257 221.5 259.5> 708 11<221.5 257>
VStem: 80 12<12 308 12 320> 164 11<644 644> 302 12<644 644> 448 12<12 260 0 337.5>
AnchorPoint: "Anchor-7" 239 719 basechar 0
AnchorPoint: "Anchor-6" 453 0 basechar 0
AnchorPoint: "Anchor-5" 270 0 basechar 0
LayerCount: 2
Fore
SplineSet
448 260 m 2
 448 415 364 508 239 508 c 2
 80 508 l 1
 80 520 l 1
 239 520 l 2
 367 520 459 427 460 260 c 2
 460 0 l 1
 80 0 l 1
 80 320 l 1
 322 320 l 1
 322 308 l 1
 92 308 l 1
 92 12 l 1
 448 12 l 1
 448 260 l 2
164 644 m 0
 164 686 196 719 239 719 c 0
 280 719 314 686 314 644 c 0
 314 602 280 569 239 569 c 0
 196 569 164 602 164 644 c 0
175 644 m 0
 176 608 204 580 239 580 c 0
 275 580 303 608 302 644 c 0
 303 680 275 708 239 708 c 0
 204 708 176 680 175 644 c 0
EndSplineSet
EndChar

StartChar: atilde
Encoding: 227 227 166
Width: 540
GlyphClass: 2
Flags: MW
HStem: 0 12<92 448 92 460> 308 12<92 322 92 92> 508 12<80 239 80 239> 568 12<292 332.5 292 336.5> 663 12<148.5 192>
VStem: 80 12<12 308 12 320> 97 12<571 599.5 571 604> 374 12<640 670> 448 12<12 260 0 337.5>
AnchorPoint: "Anchor-7" 239 670 basechar 0
AnchorPoint: "Anchor-6" 453 0 basechar 0
AnchorPoint: "Anchor-5" 270 0 basechar 0
LayerCount: 2
Fore
SplineSet
448 260 m 2
 448 415 364 508 239 508 c 2
 80 508 l 1
 80 520 l 1
 239 520 l 2
 367 520 459 427 460 260 c 2
 460 0 l 1
 80 0 l 1
 80 320 l 1
 322 320 l 1
 322 308 l 1
 92 308 l 1
 92 12 l 1
 448 12 l 1
 448 260 l 2
97 571 m 1xfb80
 97 637 126 675 165 675 c 0
 229 675 266 580 318 580 c 0
 347 580 374 610 374 670 c 1
 386 670 l 1
 386 602 354 568 319 568 c 0
 261 568 219 663 165 663 c 0
 132 663 109 628 109 571 c 1
 97 571 l 1xfb80
EndSplineSet
EndChar

StartChar: ae
Encoding: 230 230 167
Width: 790
GlyphClass: 1
Flags: MW
HStem: 0 12<92 179 92 179 609 665> 200 12<526 698 526 710 526 698> 308 12<92 263 92 92> 508 12<80 179 80 179 609 698>
VStem: 80 12<12 308 12 320> 388 12<182.5 337.5> 698 12<212 508 508 508>
LayerCount: 2
Fore
SplineSet
388 260 m 0
 388 415 304 508 179 508 c 2
 80 508 l 1
 80 520 l 1
 179 520 l 2
 288 520 372 452 394 328 c 1
 416 452 500 520 609 520 c 2
 710 520 l 1
 710 200 l 1
 526 200 l 1
 526 212 l 1
 698 212 l 1
 698 508 l 1
 609 508 l 2
 484 508 400 415 400 260 c 0
 400 105 484 12 609 12 c 2
 665 12 l 1
 665 0 l 1
 609 0 l 2
 500 0 416 68 394 192 c 1
 372 68 288 0 179 0 c 2
 80 0 l 1
 80 320 l 1
 263 320 l 1
 263 308 l 1
 92 308 l 1
 92 12 l 1
 179 12 l 2
 304 12 388 105 388 260 c 0
EndSplineSet
EndChar

StartChar: b
Encoding: 98 98 168
Width: 560
GlyphClass: 1
Flags: MW
HStem: 0 12<102 279 102 279> 508 12<102 279 102 279>
VStem: 90 12<12 508 520 720> 488 12<260 260>
LayerCount: 2
Fore
SplineSet
279 12 m 2
 404 12 488 105 488 260 c 0
 488 415 404 508 279 508 c 2
 102 508 l 1
 102 12 l 1
 279 12 l 2
90 0 m 1
 90 720 l 1
 102 720 l 1
 102 520 l 1
 279 520 l 2
 407 520 499 427 500 260 c 0
 499 93 407 0 279 0 c 2
 90 0 l 1
EndSplineSet
EndChar

StartChar: c
Encoding: 99 99 169
Width: 440
GlyphClass: 2
Flags: MW
HStem: 0 12<217 380 281 380> 508 12<218.5 380 281 380>
VStem: 60 12<260 260>
AnchorPoint: "Anchor-7" 281 520 basechar 0
AnchorPoint: "Anchor-5" 281 0 basechar 0
LayerCount: 2
Fore
SplineSet
380 12 m 1
 380 0 l 1
 281 0 l 2
 153 0 61 93 60 260 c 0
 61 427 153 520 281 520 c 2
 380 520 l 1
 380 508 l 1
 281 508 l 2
 156 508 72 415 72 260 c 0
 72 105 156 12 281 12 c 2
 380 12 l 1
EndSplineSet
EndChar

StartChar: cacute
Encoding: 263 263 170
Width: 440
GlyphClass: 2
Flags: MW
HStem: 0 12<217 380 281 380> 508 12<218.5 380 281 380>
VStem: 60 12<260 260>
AnchorPoint: "Anchor-7" 281 671 basechar 0
AnchorPoint: "Anchor-5" 281 0 basechar 0
LayerCount: 2
Fore
SplineSet
380 12 m 1
 380 0 l 1
 281 0 l 2
 153 0 61 93 60 260 c 0
 61 427 153 520 281 520 c 2
 380 520 l 1
 380 508 l 1
 281 508 l 2
 156 508 72 415 72 260 c 0
 72 105 156 12 281 12 c 2
 380 12 l 1
276 571 m 1
 332 671 l 1
 346 671 l 1
 290 571 l 1
 276 571 l 1
EndSplineSet
EndChar

StartChar: ccaron
Encoding: 269 269 171
Width: 440
GlyphClass: 2
Flags: MW
HStem: 0 12<217 380 281 380> 508 12<218.5 380 281 380> 571 8<281 281 281 290>
VStem: 60 12<260 260>
AnchorPoint: "Anchor-7" 281 670 basechar 0
AnchorPoint: "Anchor-5" 281 0 basechar 0
LayerCount: 2
Fore
SplineSet
380 12 m 1
 380 0 l 1
 281 0 l 2
 153 0 61 93 60 260 c 0
 61 427 153 520 281 520 c 2
 380 520 l 1
 380 508 l 1
 281 508 l 2
 156 508 72 415 72 260 c 0
 72 105 156 12 281 12 c 2
 380 12 l 1
156 670 m 1
 174 670 l 1
 281 579 l 1
 388 670 l 1
 406 670 l 1
 290 571 l 1
 272 571 l 1
 156 670 l 1
EndSplineSet
EndChar

StartChar: ccedilla
Encoding: 231 231 172
Width: 440
GlyphClass: 2
Flags: MW
HStem: -229 12<260 287 260 290.5> -43 12<260 287> 0 12<217 380 281 380> 508 12<218.5 380 281 380>
VStem: 60 12<260 260> 349 12<-156.5 -103.5>
AnchorPoint: "Anchor-7" 281 520 basechar 0
AnchorPoint: "Anchor-5" 260 -229 basechar 0
LayerCount: 2
Fore
SplineSet
380 12 m 1
 380 0 l 1
 281 0 l 2
 153 0 61 93 60 260 c 0
 61 427 153 520 281 520 c 2
 380 520 l 1
 380 508 l 1
 281 508 l 2
 156 508 72 415 72 260 c 0
 72 105 156 12 281 12 c 2
 380 12 l 1
260 -229 m 1
 260 -217 l 1
 314 -217 349 -183 349 -130 c 0
 349 -77 314 -43 260 -43 c 1
 260 -31 l 1
 321 -31 361 -71 361 -130 c 0
 361 -189 321 -229 260 -229 c 1
EndSplineSet
EndChar

StartChar: cdotaccent
Encoding: 267 267 173
Width: 440
GlyphClass: 2
Flags: MW
HStem: 0 12<217 380 281 380> 508 12<218.5 380 281 380> 611 42<275 287>
VStem: 60 12<260 260> 260 42<626 638>
AnchorPoint: "Anchor-7" 281 520 basechar 0
AnchorPoint: "Anchor-5" 281 0 basechar 0
LayerCount: 2
Fore
SplineSet
380 12 m 1
 380 0 l 1
 281 0 l 2
 153 0 61 93 60 260 c 0
 61 427 153 520 281 520 c 2
 380 520 l 1
 380 508 l 1
 281 508 l 2
 156 508 72 415 72 260 c 0
 72 105 156 12 281 12 c 2
 380 12 l 1
260 632 m 0
 260 644 269 653 281 653 c 0
 293 653 302 644 302 632 c 0
 302 620 293 611 281 611 c 0
 269 611 260 620 260 632 c 0
EndSplineSet
EndChar

StartChar: d
Encoding: 100 100 174
Width: 560
GlyphClass: 1
Flags: MW
HStem: 0 12<217 458 281 458 281 470> 508 12<218.5 458 281 458>
VStem: 60 12<260 260> 458 12<12 508 508 508 520 720 0 720>
LayerCount: 2
Fore
SplineSet
281 508 m 2
 156 508 72 416 72 260 c 0
 72 105 156 12 281 12 c 2
 458 12 l 1
 458 508 l 1
 281 508 l 2
60 260 m 0
 61 427 153 520 281 520 c 2
 458 520 l 1
 458 720 l 1
 470 720 l 1
 470 0 l 1
 281 0 l 2
 153 0 61 93 60 260 c 0
EndSplineSet
EndChar

StartChar: eth
Encoding: 240 240 175
Width: 595
GlyphClass: 1
Flags: MW
HStem: -5 12<232 362 232 365.5> 481 12<232 327.5 228.5 362> 638 12<92 323 92 330 92 323 344 472 344 344>
VStem: 48 12<179 309 179 312.5> 534 12<179 270 175.5 309>
LayerCount: 2
Fore
SplineSet
472 650 m 1
 472 638 l 1
 344 638 l 1
 502 384 l 2
 530 344 546 296 546 244 c 0
 546 107 434 -5 297 -5 c 0
 160 -5 48 107 48 244 c 0
 48 381 160 493 297 493 c 0
 358 493 414 471 457 434 c 1
 330 638 l 1
 92 638 l 1
 92 650 l 1
 323 650 l 1
 257 755 l 1
 271 755 l 1
 337 650 l 1
 472 650 l 1
60 244 m 0
 60 114 167 7 297 7 c 0
 427 7 534 114 534 244 c 0
 534 374 427 481 297 481 c 0
 167 481 60 374 60 244 c 0
EndSplineSet
EndChar

StartChar: dcaron
Encoding: 271 271 176
Width: 715
GlyphClass: 1
Flags: MW
HStem: 0 12<217 458 281 458 281 470> 508 12<218.5 458 281 458>
VStem: 60 12<260 260> 458 12<12 508 508 508 520 720 0 720> 608 12<596 800 596 800>
LayerCount: 2
Fore
SplineSet
281 508 m 2
 156 508 72 416 72 260 c 0
 72 105 156 12 281 12 c 2
 458 12 l 1
 458 508 l 1
 281 508 l 2
60 260 m 0
 61 427 153 520 281 520 c 2
 458 520 l 1
 458 720 l 1
 470 720 l 1
 470 0 l 1
 281 0 l 2
 153 0 61 93 60 260 c 0
608 596 m 1
 608 800 l 1
 620 800 l 1
 620 596 l 1
 608 596 l 1
EndSplineSet
EndChar

StartChar: dcroat
Encoding: 273 273 177
Width: 565
GlyphClass: 1
Flags: MW
HStem: 0 12<217 458 281 458 281 470> 508 12<218.5 458 281 458> 609 12<165 458 165 458 470 525>
VStem: 60 12<260 260> 458 12<12 508 508 508 520 609 0 609 621 720>
LayerCount: 2
Fore
SplineSet
525 621 m 1
 525 609 l 1
 470 609 l 1
 470 0 l 1
 281 0 l 2
 153 0 61 93 60 260 c 0
 61 427 153 520 281 520 c 2
 458 520 l 1
 458 609 l 1
 165 609 l 1
 165 621 l 1
 458 621 l 1
 458 720 l 1
 470 720 l 1
 470 621 l 1
 525 621 l 1
72 260 m 0
 72 105 156 12 281 12 c 2
 458 12 l 1
 458 508 l 1
 281 508 l 2
 156 508 72 416 72 260 c 0
EndSplineSet
EndChar

StartChar: e
Encoding: 101 101 178
Width: 535
GlyphClass: 2
Flags: MW
HStem: 0 12<217 396 281 396> 200 12<198 443 198 455 198 443> 508 12<218.5 455 281 443>
VStem: 60 12<260 260> 443 12<212 508 508 508>
AnchorPoint: "Anchor-7" 320 520 basechar 0
AnchorPoint: "Anchor-6" 373 0 basechar 0
AnchorPoint: "Anchor-5" 320 0 basechar 0
LayerCount: 2
Fore
SplineSet
60 260 m 0
 61 427 153 520 281 520 c 2
 455 520 l 1
 455 200 l 1
 198 200 l 1
 198 212 l 1
 443 212 l 1
 443 508 l 1
 281 508 l 2
 156 508 72 415 72 260 c 0
 72 105 156 12 281 12 c 2
 396 12 l 1
 396 0 l 1
 281 0 l 2
 153 0 61 93 60 260 c 0
EndSplineSet
EndChar

StartChar: eacute
Encoding: 233 233 179
Width: 535
GlyphClass: 2
Flags: MW
HStem: 0 12<217 396 281 396> 200 12<198 443 198 455 198 443> 508 12<218.5 455 281 443>
VStem: 60 12<260 260> 443 12<212 508 508 508>
AnchorPoint: "Anchor-7" 320 671 basechar 0
AnchorPoint: "Anchor-6" 373 0 basechar 0
AnchorPoint: "Anchor-5" 320 0 basechar 0
LayerCount: 2
Fore
SplineSet
60 260 m 0
 61 427 153 520 281 520 c 2
 455 520 l 1
 455 200 l 1
 198 200 l 1
 198 212 l 1
 443 212 l 1
 443 508 l 1
 281 508 l 2
 156 508 72 415 72 260 c 0
 72 105 156 12 281 12 c 2
 396 12 l 1
 396 0 l 1
 281 0 l 2
 153 0 61 93 60 260 c 0
315 571 m 1
 371 671 l 1
 385 671 l 1
 329 571 l 1
 315 571 l 1
EndSplineSet
EndChar

StartChar: ecaron
Encoding: 283 283 180
Width: 535
GlyphClass: 2
Flags: MW
HStem: 0 12<217 396 281 396> 200 12<198 443 198 455 198 443> 508 12<218.5 455 281 443> 571 8<320 320 320 329>
VStem: 60 12<260 260> 443 12<212 508 508 508>
AnchorPoint: "Anchor-7" 320 670 basechar 0
AnchorPoint: "Anchor-6" 373 0 basechar 0
AnchorPoint: "Anchor-5" 320 0 basechar 0
LayerCount: 2
Fore
SplineSet
60 260 m 0
 61 427 153 520 281 520 c 2
 455 520 l 1
 455 200 l 1
 198 200 l 1
 198 212 l 1
 443 212 l 1
 443 508 l 1
 281 508 l 2
 156 508 72 415 72 260 c 0
 72 105 156 12 281 12 c 2
 396 12 l 1
 396 0 l 1
 281 0 l 2
 153 0 61 93 60 260 c 0
195 670 m 1
 213 670 l 1
 320 579 l 1
 427 670 l 1
 445 670 l 1
 329 571 l 1
 311 571 l 1
 195 670 l 1
EndSplineSet
EndChar

StartChar: ecircumflex
Encoding: 234 234 181
Width: 535
GlyphClass: 2
Flags: MW
HStem: 0 12<217 396 281 396> 200 12<198 443 198 455 198 443> 508 12<218.5 455 281 443> 663 8<320 320>
VStem: 60 12<260 260> 443 12<212 508 508 508>
AnchorPoint: "Anchor-7" 320 671 basechar 0
AnchorPoint: "Anchor-6" 373 0 basechar 0
AnchorPoint: "Anchor-5" 320 0 basechar 0
LayerCount: 2
Fore
SplineSet
60 260 m 0
 61 427 153 520 281 520 c 2
 455 520 l 1
 455 200 l 1
 198 200 l 1
 198 212 l 1
 443 212 l 1
 443 508 l 1
 281 508 l 2
 156 508 72 415 72 260 c 0
 72 105 156 12 281 12 c 2
 396 12 l 1
 396 0 l 1
 281 0 l 2
 153 0 61 93 60 260 c 0
195 572 m 1
 311 671 l 1
 329 671 l 1
 445 572 l 1
 427 572 l 1
 320 663 l 1
 213 572 l 1
 195 572 l 1
EndSplineSet
EndChar

StartChar: edieresis
Encoding: 235 235 182
Width: 535
GlyphClass: 2
Flags: MW
HStem: 0 12<217 396 281 396> 200 12<198 443 198 455 198 443> 508 12<218.5 455 281 443> 611 42<234 246 394 406>
VStem: 60 12<260 260> 219 42<626 638> 379 42<626 638> 443 12<212 508 508 508>
AnchorPoint: "Anchor-7" 320 692 basechar 0
AnchorPoint: "Anchor-6" 373 0 basechar 0
AnchorPoint: "Anchor-5" 320 0 basechar 0
LayerCount: 2
Fore
SplineSet
60 260 m 0
 61 427 153 520 281 520 c 2
 455 520 l 1
 455 200 l 1
 198 200 l 1
 198 212 l 1
 443 212 l 1
 443 508 l 1
 281 508 l 2
 156 508 72 415 72 260 c 0
 72 105 156 12 281 12 c 2
 396 12 l 1
 396 0 l 1
 281 0 l 2
 153 0 61 93 60 260 c 0
219 632 m 0
 219 644 228 653 240 653 c 0
 252 653 261 644 261 632 c 0
 261 620 252 611 240 611 c 0
 228 611 219 620 219 632 c 0
379 632 m 0xff
 379 644 388 653 400 653 c 0
 412 653 421 644 421 632 c 0
 421 620 412 611 400 611 c 0
 388 611 379 620 379 632 c 0xff
EndSplineSet
EndChar

StartChar: edotaccent
Encoding: 279 279 183
Width: 535
GlyphClass: 2
Flags: MW
HStem: 0 12<217 396 281 396> 200 12<198 443 198 455 198 443> 508 12<218.5 455 281 443> 611 42<314 326>
VStem: 60 12<260 260> 299 42<626 638> 443 12<212 508 508 508>
AnchorPoint: "Anchor-7" 320 520 basechar 0
AnchorPoint: "Anchor-6" 373 0 basechar 0
AnchorPoint: "Anchor-5" 320 0 basechar 0
LayerCount: 2
Fore
SplineSet
60 260 m 0
 61 427 153 520 281 520 c 2
 455 520 l 1
 455 200 l 1
 198 200 l 1
 198 212 l 1
 443 212 l 1
 443 508 l 1
 281 508 l 2
 156 508 72 415 72 260 c 0
 72 105 156 12 281 12 c 2
 396 12 l 1
 396 0 l 1
 281 0 l 2
 153 0 61 93 60 260 c 0
299 632 m 0
 299 644 308 653 320 653 c 0
 332 653 341 644 341 632 c 0
 341 620 332 611 320 611 c 0
 308 611 299 620 299 632 c 0
EndSplineSet
EndChar

StartChar: egrave
Encoding: 232 232 184
Width: 535
GlyphClass: 2
Flags: MW
HStem: 0 12<217 396 281 396> 200 12<198 443 198 455 198 443> 508 12<218.5 455 281 443>
VStem: 60 12<260 260> 443 12<212 508 508 508>
AnchorPoint: "Anchor-7" 320 671 basechar 0
AnchorPoint: "Anchor-6" 373 0 basechar 0
AnchorPoint: "Anchor-5" 320 0 basechar 0
LayerCount: 2
Fore
SplineSet
60 260 m 0
 61 427 153 520 281 520 c 2
 455 520 l 1
 455 200 l 1
 198 200 l 1
 198 212 l 1
 443 212 l 1
 443 508 l 1
 281 508 l 2
 156 508 72 415 72 260 c 0
 72 105 156 12 281 12 c 2
 396 12 l 1
 396 0 l 1
 281 0 l 2
 153 0 61 93 60 260 c 0
255 671 m 1
 269 671 l 1
 325 571 l 1
 311 571 l 1
 255 671 l 1
EndSplineSet
EndChar

StartChar: emacron
Encoding: 275 275 185
Width: 535
GlyphClass: 2
Flags: MW
HStem: 0 12<217 396 281 396> 200 12<198 443 198 455 198 443> 508 12<218.5 455 281 443> 624 12<155 485 155 485>
VStem: 60 12<260 260> 443 12<212 508 508 508>
AnchorPoint: "Anchor-7" 320 636 basechar 0
AnchorPoint: "Anchor-6" 373 0 basechar 0
AnchorPoint: "Anchor-5" 320 0 basechar 0
LayerCount: 2
Fore
SplineSet
60 260 m 0
 61 427 153 520 281 520 c 2
 455 520 l 1
 455 200 l 1
 198 200 l 1
 198 212 l 1
 443 212 l 1
 443 508 l 1
 281 508 l 2
 156 508 72 415 72 260 c 0
 72 105 156 12 281 12 c 2
 396 12 l 1
 396 0 l 1
 281 0 l 2
 153 0 61 93 60 260 c 0
155 624 m 1
 155 636 l 1
 485 636 l 1
 485 624 l 1
 155 624 l 1
EndSplineSet
EndChar

StartChar: eogonek
Encoding: 281 281 186
Width: 535
GlyphClass: 2
Flags: MW
HStem: -200 12<292 477 292 477> 0 12<217 396 281 367 380 396 380 380> 200 12<198 443 198 455 198 443> 508 12<218.5 455 281 443>
VStem: 60 12<260 260> 367 29<0 12> 443 12<212 508 508 508>
AnchorPoint: "Anchor-7" 320 520 basechar 0
AnchorPoint: "Anchor-6" 373 0 basechar 0
AnchorPoint: "Anchor-5" 320 0 basechar 0
LayerCount: 2
Fore
SplineSet
60 260 m 0
 61 427 153 520 281 520 c 2
 455 520 l 1
 455 200 l 1
 198 200 l 1
 198 212 l 1
 443 212 l 1
 443 508 l 1
 281 508 l 2
 156 508 72 415 72 260 c 0
 72 105 156 12 281 12 c 2
 396 12 l 1
 396 0 l 1
 380 0 l 1
 292 -188 l 1
 477 -188 l 1
 477 -200 l 1
 273 -200 l 1
 367 0 l 1
 281 0 l 2
 153 0 61 93 60 260 c 0
EndSplineSet
EndChar

StartChar: uni1EBD
Encoding: 7869 7869 187
Width: 535
GlyphClass: 2
Flags: MW
HStem: 0 12<217 396 281 396> 200 12<198 443 198 455 198 443> 508 12<218.5 455 281 443> 568 12<373 413.5 373 417.5> 663 12<229.5 273>
VStem: 60 12<260 260> 178 12<571 599.5 571 604> 443 12<212 508 508 508> 455 12<640 670>
AnchorPoint: "Anchor-7" 320 670 basechar 0
AnchorPoint: "Anchor-6" 373 0 basechar 0
AnchorPoint: "Anchor-5" 320 0 basechar 0
LayerCount: 2
Fore
SplineSet
60 260 m 0xff
 61 427 153 520 281 520 c 2
 455 520 l 1
 455 200 l 1
 198 200 l 1
 198 212 l 1
 443 212 l 1
 443 508 l 1
 281 508 l 2
 156 508 72 415 72 260 c 0
 72 105 156 12 281 12 c 2
 396 12 l 1
 396 0 l 1
 281 0 l 2
 153 0 61 93 60 260 c 0xff
178 571 m 1
 178 637 207 675 246 675 c 0
 310 675 347 580 399 580 c 0
 428 580 455 610 455 670 c 1
 467 670 l 1
 467 602 435 568 400 568 c 0xfe80
 342 568 300 663 246 663 c 0
 213 663 190 628 190 571 c 1
 178 571 l 1
EndSplineSet
EndChar

StartChar: f
Encoding: 102 102 188
Width: 380
GlyphClass: 1
Flags: MW
HStem: 508 12<102 320 102 320> 698 12<102 320 102 102>
VStem: 90 12<0 508 520 698> 90 230<508 520 698 710 508 710 508 710>
LayerCount: 2
Fore
SplineSet
320 698 m 1xd0
 102 698 l 1
 102 520 l 1xe0
 320 520 l 1
 320 508 l 1xd0
 102 508 l 1
 102 0 l 1
 90 0 l 1
 90 710 l 1xe0
 320 710 l 1
 320 698 l 1xd0
EndSplineSet
EndChar

StartChar: g
Encoding: 103 103 189
Width: 610
GlyphClass: 2
Flags: MW
HStem: -175 12<172 381 172 381> 0 12<72 192 204 528 72 192> 150 12<267 339.5 222.5 353> 528 12<222.5 336.5 209 339.5>
VStem: 60 12<307.5 394> 192 12<12 160 12 164 12 164> 490 12<296 345 345 396 411 620> 528 12<-24 0 0 0>
AnchorPoint: "Anchor-7" 281 540 basechar 0
AnchorPoint: "Anchor-5" 280 -175 basechar 0
LayerCount: 2
Fore
SplineSet
72 345 m 0
 72 243 164 162 281 162 c 0
 398 162 490 243 490 345 c 0
 490 447 398 528 281 528 c 0
 164 528 72 447 72 345 c 0
60 345 m 0
 60 443 137 540 281 540 c 0
 392 540 463 482 490 411 c 1
 490 620 l 1
 502 620 l 1
 502 345 l 2xfe
 502 247 425 150 281 150 c 0
 253 150 227 154 204 160 c 1
 204 12 l 1
 540 12 l 1
 540 -24 l 2
 540 -114 476 -175 381 -175 c 2
 172 -175 l 1
 172 -163 l 1
 381 -163 l 2
 469 -163 528 -107 528 -24 c 2
 528 0 l 1xff
 72 0 l 1
 72 12 l 1
 192 12 l 1
 192 164 l 1
 106 195 60 270 60 345 c 0
EndSplineSet
EndChar

StartChar: gbreve
Encoding: 287 287 190
Width: 610
GlyphClass: 2
Flags: MW
HStem: -175 12<172 381 172 381> 0 12<72 192 204 528 72 192> 150 12<267 339.5 222.5 353> 528 12<222.5 336.5 209 339.5> 589 12<254.5 307.5 254.5 310.5>
VStem: 60 12<307.5 394> 182 12<663 690 663 690> 192 12<12 160 12 164 12 164> 368 12<663 690> 490 12<296 345 345 396 411 620> 528 12<-24 0 0 0>
AnchorPoint: "Anchor-7" 281 690 basechar 0
AnchorPoint: "Anchor-5" 280 -175 basechar 0
LayerCount: 2
Fore
SplineSet
72 345 m 0xfdc0
 72 243 164 162 281 162 c 0
 398 162 490 243 490 345 c 0
 490 447 398 528 281 528 c 0
 164 528 72 447 72 345 c 0xfdc0
60 345 m 0
 60 443 137 540 281 540 c 0
 392 540 463 482 490 411 c 1
 490 620 l 1
 502 620 l 1
 502 345 l 2xfdc0
 502 247 425 150 281 150 c 0
 253 150 227 154 204 160 c 1
 204 12 l 1
 540 12 l 1
 540 -24 l 2
 540 -114 476 -175 381 -175 c 2
 172 -175 l 1
 172 -163 l 1
 381 -163 l 2
 469 -163 528 -107 528 -24 c 2
 528 0 l 1xfde0
 72 0 l 1
 72 12 l 1
 192 12 l 1
 192 164 l 1
 106 195 60 270 60 345 c 0
182 690 m 1xfec0
 194 690 l 1
 194 636 228 601 281 601 c 0
 334 601 368 636 368 690 c 1
 380 690 l 1
 380 629 340 589 281 589 c 0
 222 589 182 629 182 690 c 1xfec0
EndSplineSet
EndChar

StartChar: uni0123
Encoding: 291 291 191
Width: 610
GlyphClass: 2
Flags: MW
HStem: -175 12<172 381 172 381> 0 12<72 192 204 528 72 192> 150 12<267 339.5 222.5 353> 528 12<222.5 336.5 209 339.5>
VStem: 60 12<307.5 394> 192 12<12 160 12 164 12 164> 275 12<606 710 606 710> 490 12<296 345 345 396 411 620> 528 12<-24 0 0 0>
AnchorPoint: "Anchor-7" 309 820 basechar 0
AnchorPoint: "Anchor-5" 280 -175 basechar 0
LayerCount: 2
Fore
SplineSet
72 345 m 0
 72 243 164 162 281 162 c 0
 398 162 490 243 490 345 c 0
 490 447 398 528 281 528 c 0
 164 528 72 447 72 345 c 0
60 345 m 0
 60 443 137 540 281 540 c 0
 392 540 463 482 490 411 c 1
 490 620 l 1
 502 620 l 1
 502 345 l 2xff
 502 247 425 150 281 150 c 0
 253 150 227 154 204 160 c 1
 204 12 l 1
 540 12 l 1
 540 -24 l 2
 540 -114 476 -175 381 -175 c 2
 172 -175 l 1
 172 -163 l 1
 381 -163 l 2
 469 -163 528 -107 528 -24 c 2
 528 0 l 1xff80
 72 0 l 1
 72 12 l 1
 192 12 l 1
 192 164 l 1
 106 195 60 270 60 345 c 0
275 606 m 1
 275 710 l 1
 330 820 l 1
 342 820 l 1
 287 710 l 1
 287 606 l 1
 275 606 l 1
EndSplineSet
EndChar

StartChar: gdotaccent
Encoding: 289 289 192
Width: 610
GlyphClass: 2
Flags: MW
HStem: -175 12<172 381 172 381> 0 12<72 192 204 528 72 192> 150 12<267 339.5 222.5 353> 528 12<222.5 336.5 209 339.5> 631 42<275 287>
VStem: 60 12<307.5 394> 192 12<12 160 12 164 12 164> 260 42<646 658> 490 12<296 345 345 396 411 620> 528 12<-24 0 0 0>
AnchorPoint: "Anchor-7" 281 540 basechar 0
AnchorPoint: "Anchor-5" 280 -175 basechar 0
LayerCount: 2
Fore
SplineSet
72 345 m 0
 72 243 164 162 281 162 c 0
 398 162 490 243 490 345 c 0
 490 447 398 528 281 528 c 0
 164 528 72 447 72 345 c 0
60 345 m 0
 60 443 137 540 281 540 c 0
 392 540 463 482 490 411 c 1
 490 620 l 1
 502 620 l 1
 502 345 l 2xf680
 502 247 425 150 281 150 c 0
 253 150 227 154 204 160 c 1
 204 12 l 1
 540 12 l 1
 540 -24 l 2
 540 -114 476 -175 381 -175 c 2
 172 -175 l 1
 172 -163 l 1
 381 -163 l 2
 469 -163 528 -107 528 -24 c 2
 528 0 l 1xf6c0
 72 0 l 1
 72 12 l 1
 192 12 l 1
 192 164 l 1
 106 195 60 270 60 345 c 0
260 652 m 0xff80
 260 664 269 673 281 673 c 0
 293 673 302 664 302 652 c 0
 302 640 293 631 281 631 c 0
 269 631 260 640 260 652 c 0xff80
EndSplineSet
EndChar

StartChar: h
Encoding: 104 104 193
Width: 540
GlyphClass: 1
Flags: MW
HStem: 508 12<102 299 102 299>
VStem: 90 12<0 508 520 710> 438 12<0 361 0 405>
LayerCount: 2
Fore
SplineSet
90 710 m 1
 102 710 l 1
 102 520 l 1
 299 520 l 2
 389 520 450 456 450 361 c 2
 450 0 l 1
 438 0 l 1
 438 361 l 2
 438 449 382 508 299 508 c 2
 102 508 l 1
 102 0 l 1
 90 0 l 1
 90 710 l 1
EndSplineSet
EndChar

StartChar: hbar
Encoding: 295 295 194
Width: 540
GlyphClass: 1
Flags: MW
HStem: 508 12<112 309 112 309> 609 12<50 100 50 100 112 410>
VStem: 100 12<0 508 520 609 621 710> 448 12<0 361 0 405>
LayerCount: 2
Fore
SplineSet
410 621 m 1
 410 609 l 1
 112 609 l 1
 112 520 l 1
 309 520 l 2
 399 520 460 456 460 361 c 2
 460 0 l 1
 448 0 l 1
 448 361 l 2
 448 449 392 508 309 508 c 2
 112 508 l 1
 112 0 l 1
 100 0 l 1
 100 609 l 1
 50 609 l 1
 50 621 l 1
 100 621 l 1
 100 710 l 1
 112 710 l 1
 112 621 l 1
 410 621 l 1
EndSplineSet
EndChar

StartChar: i
Encoding: 105 105 195
Width: 295
GlyphClass: 2
Flags: MW
HStem: 611 42<141 153>
VStem: 126 42<626 638> 141 12<0 520 0 520>
AnchorPoint: "Anchor-7" 147 520 basechar 0
AnchorPoint: "Anchor-6" 146 0 basechar 0
AnchorPoint: "Anchor-5" 147 0 basechar 0
LayerCount: 2
Fore
SplineSet
141 0 m 1xa0
 141 520 l 1
 153 520 l 1
 153 0 l 1
 141 0 l 1xa0
126 632 m 0xc0
 126 644 135 653 147 653 c 0
 159 653 168 644 168 632 c 0
 168 620 159 611 147 611 c 0
 135 611 126 620 126 632 c 0xc0
EndSplineSet
Substitution2: "Single Substitution lookup 14 subtable" dotlessi
Substitution2: "'locl' Localized Forms in Latin lookup 3 subtable" i.loclTRK
Substitution2: "'aalt' Access All Alternates in Latin lookup 0 subtable" i.loclTRK
EndChar

StartChar: dotlessi
Encoding: 305 305 196
Width: 295
GlyphClass: 2
Flags: MW
HStem: 0 520<141 153 141 153>
VStem: 141 12<0 520 0 520>
AnchorPoint: "Anchor-7" 147 520 basechar 0
AnchorPoint: "Anchor-6" 146 0 basechar 0
AnchorPoint: "Anchor-5" 147 0 basechar 0
LayerCount: 2
Fore
SplineSet
141 0 m 1
 141 520 l 1
 153 520 l 1
 153 0 l 1
 141 0 l 1
EndSplineSet
EndChar

StartChar: iacute
Encoding: 237 237 197
Width: 295
GlyphClass: 2
Flags: MW
HStem: 0 671<141 212 141 212>
VStem: 141 12<0 520 0 520>
AnchorPoint: "Anchor-7" 147 671 basechar 0
AnchorPoint: "Anchor-6" 146 0 basechar 0
AnchorPoint: "Anchor-5" 147 0 basechar 0
LayerCount: 2
Fore
SplineSet
141 0 m 1
 141 520 l 1
 153 520 l 1
 153 0 l 1
 141 0 l 1
142 571 m 1
 198 671 l 1
 212 671 l 1
 156 571 l 1
 142 571 l 1
EndSplineSet
EndChar

StartChar: icircumflex
Encoding: 238 238 198
Width: 295
GlyphClass: 2
Flags: MW
HStem: 663 8<147 147>
VStem: 141 12<0 520 0 520>
AnchorPoint: "Anchor-7" 147 671 basechar 0
AnchorPoint: "Anchor-6" 146 0 basechar 0
AnchorPoint: "Anchor-5" 147 0 basechar 0
LayerCount: 2
Fore
SplineSet
141 0 m 1
 141 520 l 1
 153 520 l 1
 153 0 l 1
 141 0 l 1
22 572 m 1
 138 671 l 1
 156 671 l 1
 272 572 l 1
 254 572 l 1
 147 663 l 1
 40 572 l 1
 22 572 l 1
EndSplineSet
EndChar

StartChar: idieresis
Encoding: 239 239 199
Width: 295
GlyphClass: 2
Flags: MW
HStem: 611 42<61 73 221 233>
VStem: 46 42<626 638> 141 12<0 520 0 520> 206 42<626 638>
AnchorPoint: "Anchor-7" 147 692 basechar 0
AnchorPoint: "Anchor-6" 146 0 basechar 0
AnchorPoint: "Anchor-5" 147 0 basechar 0
LayerCount: 2
Fore
SplineSet
141 0 m 1
 141 520 l 1
 153 520 l 1
 153 0 l 1
 141 0 l 1
46 632 m 0
 46 644 55 653 67 653 c 0
 79 653 88 644 88 632 c 0
 88 620 79 611 67 611 c 0
 55 611 46 620 46 632 c 0
206 632 m 0
 206 644 215 653 227 653 c 0
 239 653 248 644 248 632 c 0
 248 620 239 611 227 611 c 0
 215 611 206 620 206 632 c 0
EndSplineSet
EndChar

StartChar: i.loclTRK
Encoding: 65573 -1 200
Width: 295
GlyphClass: 2
Flags: MW
HStem: 611 42<141 153>
VStem: 126 42<626 638> 141 12<0 520 0 520>
AnchorPoint: "Anchor-7" 147 520 basechar 0
AnchorPoint: "Anchor-6" 146 0 basechar 0
AnchorPoint: "Anchor-5" 147 0 basechar 0
LayerCount: 2
Fore
SplineSet
141 0 m 1xa0
 141 520 l 1
 153 520 l 1
 153 0 l 1
 141 0 l 1xa0
126 632 m 0xc0
 126 644 135 653 147 653 c 0
 159 653 168 644 168 632 c 0
 168 620 159 611 147 611 c 0
 135 611 126 620 126 632 c 0xc0
EndSplineSet
EndChar

StartChar: igrave
Encoding: 236 236 201
Width: 295
GlyphClass: 2
Flags: MW
HStem: 0 671<82 141 82 153>
VStem: 141 12<0 520 0 520>
AnchorPoint: "Anchor-7" 147 671 basechar 0
AnchorPoint: "Anchor-6" 146 0 basechar 0
AnchorPoint: "Anchor-5" 147 0 basechar 0
LayerCount: 2
Fore
SplineSet
141 0 m 1
 141 520 l 1
 153 520 l 1
 153 0 l 1
 141 0 l 1
82 671 m 1
 96 671 l 1
 152 571 l 1
 138 571 l 1
 82 671 l 1
EndSplineSet
EndChar

StartChar: imacron
Encoding: 299 299 202
Width: 295
GlyphClass: 2
Flags: MW
HStem: 625 12<12 282 12 282>
VStem: 141 12<0 520 0 520>
AnchorPoint: "Anchor-7" 147 671 basechar 0
AnchorPoint: "Anchor-6" 146 0 basechar 0
AnchorPoint: "Anchor-5" 147 0 basechar 0
LayerCount: 2
Fore
SplineSet
141 0 m 1
 141 520 l 1
 153 520 l 1
 153 0 l 1
 141 0 l 1
12 625 m 1
 12 637 l 1
 282 637 l 1
 282 625 l 1
 12 625 l 1
EndSplineSet
EndChar

StartChar: iogonek
Encoding: 303 303 203
Width: 295
GlyphClass: 2
Flags: MW
HStem: -200 12<65 250 65 250> 611 42<141 153>
VStem: 126 42<626 638> 141 12<2 520 0 520>
AnchorPoint: "Anchor-7" 147 520 basechar 0
AnchorPoint: "Anchor-6" 146 0 basechar 0
AnchorPoint: "Anchor-5" 147 0 basechar 0
LayerCount: 2
Fore
SplineSet
147 611 m 0xe0
 135 611 126 620 126 632 c 0
 126 644 135 653 147 653 c 0
 159 653 168 644 168 632 c 0
 168 620 159 611 147 611 c 0xe0
46 -200 m 1
 141 2 l 1
 141 520 l 1
 153 520 l 1
 153 0 l 1
 65 -188 l 1
 250 -188 l 1
 250 -200 l 1x90
 46 -200 l 1
EndSplineSet
EndChar

StartChar: itilde
Encoding: 297 297 204
Width: 295
GlyphClass: 2
Flags: MW
HStem: 568 12<200 240.5 200 244.5> 663 12<56.5 100>
VStem: 5 12<571 599.5 571 604> 141 12<0 520 0 520> 282 12<640 670>
AnchorPoint: "Anchor-7" 147 670 basechar 0
AnchorPoint: "Anchor-6" 146 0 basechar 0
AnchorPoint: "Anchor-5" 147 0 basechar 0
LayerCount: 2
Fore
SplineSet
141 0 m 1
 141 520 l 1
 153 520 l 1
 153 0 l 1
 141 0 l 1
5 571 m 1
 5 637 34 675 73 675 c 0
 137 675 174 580 226 580 c 0
 255 580 282 610 282 670 c 1
 294 670 l 1
 294 602 262 568 227 568 c 0
 169 568 127 663 73 663 c 0
 40 663 17 628 17 571 c 1
 5 571 l 1
EndSplineSet
EndChar

StartChar: j
Encoding: 106 106 205
Width: 290
GlyphClass: 2
Flags: MW
HStem: -200 12<-16 138 -16 138 -16 150> 601 42<138 150>
VStem: -16 166<-200 -188 -188 -188> 123 42<616 628> 138 12<-188 510 -200 510>
AnchorPoint: "Anchor-7" 144 510 basechar 0
AnchorPoint: "Anchor-5" 144 -200 basechar 0
LayerCount: 2
Fore
SplineSet
-16 -200 m 1xa0
 -16 -188 l 1xa0
 138 -188 l 1
 138 510 l 1
 150 510 l 1
 150 -200 l 1x88
 -16 -200 l 1xa0
123 622 m 0xd0
 123 634 132 643 144 643 c 0
 156 643 165 634 165 622 c 0
 165 610 156 601 144 601 c 0
 132 601 123 610 123 622 c 0xd0
EndSplineSet
Substitution2: "Single Substitution lookup 16 subtable" uni006A0301
Substitution2: "Single Substitution lookup 14 subtable" uni0237
Substitution2: "'aalt' Access All Alternates in Latin lookup 0 subtable" uni006A0301
EndChar

StartChar: uni0237
Encoding: 567 567 206
Width: 290
GlyphClass: 2
Flags: MW
HStem: -200 12<-16 138 -16 138 -16 150>
VStem: -16 166<-200 -188 -188 -188> 138 12<-188 510 -200 510>
AnchorPoint: "Anchor-7" 144 510 basechar 0
AnchorPoint: "Anchor-5" 144 -200 basechar 0
LayerCount: 2
Fore
SplineSet
-16 -200 m 1xc0
 -16 -188 l 1xc0
 138 -188 l 1
 138 510 l 1
 150 510 l 1
 150 -200 l 1xa0
 -16 -200 l 1xc0
EndSplineSet
EndChar

StartChar: uni006A0301
Encoding: 65574 -1 207
Width: 290
GlyphClass: 2
Flags: MW
HStem: -200 12<-16 138 -16 138 -16 150>
VStem: -16 166<-200 -188 -188 -188> 138 12<-188 510 -200 510>
AnchorPoint: "Anchor-7" 144 661 basechar 0
AnchorPoint: "Anchor-5" 144 -200 basechar 0
LayerCount: 2
Fore
SplineSet
-16 -200 m 1xc0
 -16 -188 l 1xc0
 138 -188 l 1
 138 510 l 1
 150 510 l 1
 150 -200 l 1xa0
 -16 -200 l 1xc0
139 561 m 1
 195 661 l 1
 209 661 l 1
 153 561 l 1
 139 561 l 1
EndSplineSet
EndChar

StartChar: k
Encoding: 107 107 208
Width: 565
GlyphClass: 2
Flags: MW
HStem: 249 12<122 368 122 368 122 372>
VStem: 110 12<0 249 261 710>
AnchorPoint: "Anchor-7" 283 710 basechar 0
AnchorPoint: "Anchor-5" 283 0 basechar 0
LayerCount: 2
Fore
SplineSet
122 249 m 1
 122 0 l 1
 110 0 l 1
 110 710 l 1
 122 710 l 1
 122 261 l 1
 368 261 l 1
 492 520 l 1
 505 520 l 1
 380 260 l 1
 505 0 l 1
 492 0 l 1
 372 249 l 1
 122 249 l 1
EndSplineSet
Substitution2: "'ss02' Style Set 2 in Latin lookup 10 subtable" k.ss02
Substitution2: "'aalt' Access All Alternates in Latin lookup 0 subtable" k.ss02
EndChar

StartChar: uni0137
Encoding: 311 311 209
Width: 565
GlyphClass: 2
Flags: MW
HStem: 249 12<122 368 122 368 122 372>
VStem: 110 12<0 249 261 710>
AnchorPoint: "Anchor-7" 283 710 basechar 0
AnchorPoint: "Anchor-5" 243 -200 basechar 0
LayerCount: 2
Fore
SplineSet
122 249 m 1
 122 0 l 1
 110 0 l 1
 110 710 l 1
 122 710 l 1
 122 261 l 1
 368 261 l 1
 492 520 l 1
 505 520 l 1
 380 260 l 1
 505 0 l 1
 492 0 l 1
 372 249 l 1
 122 249 l 1
204 -200 m 1
 276 -46 l 1
 289 -46 l 1
 217 -200 l 1
 204 -200 l 1
EndSplineSet
EndChar

StartChar: l
Encoding: 108 108 210
Width: 390
GlyphClass: 2
Flags: MW
HStem: 0 12<102 320 102 320>
VStem: 90 12<12 710 12 710 12 710>
AnchorPoint: "Anchor-7" 96 710 basechar 0
AnchorPoint: "Anchor-5" 200 0 basechar 0
LayerCount: 2
Fore
SplineSet
320 0 m 1
 90 0 l 1
 90 710 l 1
 102 710 l 1
 102 12 l 1
 320 12 l 1
 320 0 l 1
EndSplineSet
EndChar

StartChar: lacute
Encoding: 314 314 211
Width: 390
GlyphClass: 2
Flags: MW
HStem: 0 12<102 320 102 320>
VStem: 90 12<12 710 12 710 12 710>
AnchorPoint: "Anchor-7" 96 861 basechar 0
AnchorPoint: "Anchor-5" 200 0 basechar 0
LayerCount: 2
Fore
SplineSet
320 0 m 1
 90 0 l 1
 90 710 l 1
 102 710 l 1
 102 12 l 1
 320 12 l 1
 320 0 l 1
91 761 m 1
 147 861 l 1
 161 861 l 1
 105 761 l 1
 91 761 l 1
EndSplineSet
EndChar

StartChar: lcaron
Encoding: 318 318 212
Width: 390
GlyphClass: 2
Flags: MW
HStem: 0 12<102 320 102 320> 761 8<96 96 96 105>
VStem: 90 12<12 710 12 710 12 710>
AnchorPoint: "Anchor-7" 96 860 basechar 0
AnchorPoint: "Anchor-5" 200 0 basechar 0
LayerCount: 2
Fore
SplineSet
320 0 m 1
 90 0 l 1
 90 710 l 1
 102 710 l 1
 102 12 l 1
 320 12 l 1
 320 0 l 1
-29 860 m 1
 -11 860 l 1
 96 769 l 1
 203 860 l 1
 221 860 l 1
 105 761 l 1
 87 761 l 1
 -29 860 l 1
EndSplineSet
EndChar

StartChar: uni013C
Encoding: 316 316 213
Width: 390
GlyphClass: 2
Flags: MW
HStem: 0 12<102 320 102 320>
VStem: 90 12<12 710 12 710 12 710>
AnchorPoint: "Anchor-7" 96 710 basechar 0
AnchorPoint: "Anchor-5" 160 -200 basechar 0
LayerCount: 2
Fore
SplineSet
320 0 m 1
 90 0 l 1
 90 710 l 1
 102 710 l 1
 102 12 l 1
 320 12 l 1
 320 0 l 1
121 -200 m 1
 193 -46 l 1
 206 -46 l 1
 134 -200 l 1
 121 -200 l 1
EndSplineSet
EndChar

StartChar: ldot
Encoding: 320 320 214
Width: 410
GlyphClass: 2
Flags: MW
HStem: 0 12<102 320 102 320> 280 100<321.5 349>
VStem: 90 12<12 710 12 710 12 710> 285 100<316.5 344>
AnchorPoint: "Anchor-7" 96 710 basechar 0
AnchorPoint: "Anchor-5" 200 0 basechar 0
LayerCount: 2
Fore
SplineSet
320 0 m 1
 90 0 l 1
 90 710 l 1
 102 710 l 1
 102 12 l 1
 320 12 l 1
 320 0 l 1
285 330 m 0
 285 358 308 380 335 380 c 0
 363 380 385 358 385 330 c 0
 385 303 363 280 335 280 c 0
 308 280 285 303 285 330 c 0
EndSplineSet
Ligature2: "Ligature Substitution lookup 15 subtable" l periodcentered
EndChar

StartChar: lslash
Encoding: 322 322 215
Width: 386
GlyphClass: 2
Flags: MW
HStem: 0 12<102 320 102 320>
VStem: 90 12<12 210 210 210 235 710>
AnchorPoint: "Anchor-7" 96 710 basechar 0
AnchorPoint: "Anchor-5" 200 0 basechar 0
LayerCount: 2
Fore
SplineSet
50 180 m 1
 50 196 l 1
 90 226 l 1
 90 710 l 1
 102 710 l 1
 102 235 l 1
 285 374 l 1
 285 359 l 1
 102 220 l 1
 102 12 l 1
 320 12 l 1
 320 0 l 1
 90 0 l 1
 90 210 l 1
 50 180 l 1
EndSplineSet
EndChar

StartChar: m
Encoding: 109 109 216
Width: 765
GlyphClass: 1
Flags: MW
HStem: 508 12<102 377 102 102 389 524 389 389>
VStem: 90 12<0 508 0 520> 377 12<0 508 0 508> 663 12<0 361 0 405>
LayerCount: 2
Fore
SplineSet
90 520 m 1
 524 520 l 2
 614 520 675 456 675 361 c 2
 675 0 l 1
 663 0 l 1
 663 361 l 2
 663 449 607 508 524 508 c 2
 389 508 l 1
 389 0 l 1
 377 0 l 1
 377 508 l 1
 102 508 l 1
 102 0 l 1
 90 0 l 1
 90 520 l 1
EndSplineSet
EndChar

StartChar: n
Encoding: 110 110 217
Width: 540
GlyphClass: 2
Flags: MW
HStem: 508 12<102 299 102 102>
VStem: 90 12<0 508 0 520> 438 12<0 361 0 405>
AnchorPoint: "Anchor-7" 270 520 basechar 0
AnchorPoint: "Anchor-5" 280 0 basechar 0
LayerCount: 2
Fore
SplineSet
90 520 m 1
 299 520 l 2
 389 520 450 456 450 361 c 2
 450 0 l 1
 438 0 l 1
 438 361 l 2
 438 449 382 508 299 508 c 2
 102 508 l 1
 102 0 l 1
 90 0 l 1
 90 520 l 1
EndSplineSet
EndChar

StartChar: nacute
Encoding: 324 324 218
Width: 540
GlyphClass: 2
Flags: MW
HStem: 508 12<102 299 102 102>
VStem: 90 12<0 508 0 520> 438 12<0 361 0 405>
AnchorPoint: "Anchor-7" 270 671 basechar 0
AnchorPoint: "Anchor-5" 280 0 basechar 0
LayerCount: 2
Fore
SplineSet
90 520 m 1
 299 520 l 2
 389 520 450 456 450 361 c 2
 450 0 l 1
 438 0 l 1
 438 361 l 2
 438 449 382 508 299 508 c 2
 102 508 l 1
 102 0 l 1
 90 0 l 1
 90 520 l 1
265 571 m 1
 321 671 l 1
 335 671 l 1
 279 571 l 1
 265 571 l 1
EndSplineSet
EndChar

StartChar: ncaron
Encoding: 328 328 219
Width: 540
GlyphClass: 2
Flags: MW
HStem: 508 12<102 299 102 102> 571 8<270 270 270 279>
VStem: 90 12<0 508 0 520> 438 12<0 361 0 405>
AnchorPoint: "Anchor-7" 270 670 basechar 0
AnchorPoint: "Anchor-5" 280 0 basechar 0
LayerCount: 2
Fore
SplineSet
90 520 m 1
 299 520 l 2
 389 520 450 456 450 361 c 2
 450 0 l 1
 438 0 l 1
 438 361 l 2
 438 449 382 508 299 508 c 2
 102 508 l 1
 102 0 l 1
 90 0 l 1
 90 520 l 1
145 670 m 1
 163 670 l 1
 270 579 l 1
 377 670 l 1
 395 670 l 1
 279 571 l 1
 261 571 l 1
 145 670 l 1
EndSplineSet
EndChar

StartChar: uni0146
Encoding: 326 326 220
Width: 540
GlyphClass: 2
Flags: MW
HStem: 508 12<102 299 102 102>
VStem: 90 12<0 508 0 520> 438 12<0 361 0 405>
AnchorPoint: "Anchor-7" 270 520 basechar 0
AnchorPoint: "Anchor-5" 240 -200 basechar 0
LayerCount: 2
Fore
SplineSet
90 520 m 1
 299 520 l 2
 389 520 450 456 450 361 c 2
 450 0 l 1
 438 0 l 1
 438 361 l 2
 438 449 382 508 299 508 c 2
 102 508 l 1
 102 0 l 1
 90 0 l 1
 90 520 l 1
201 -200 m 1
 273 -46 l 1
 286 -46 l 1
 214 -200 l 1
 201 -200 l 1
EndSplineSet
EndChar

StartChar: ntilde
Encoding: 241 241 221
Width: 540
GlyphClass: 2
Flags: MW
HStem: 508 12<102 299 102 102> 568 12<323 363.5 323 367.5> 663 12<179.5 223>
VStem: 90 12<0 508 0 520> 128 12<571 599.5 571 604> 405 12<640 670> 438 12<0 361 0 405>
AnchorPoint: "Anchor-7" 270 670 basechar 0
AnchorPoint: "Anchor-5" 280 0 basechar 0
LayerCount: 2
Fore
SplineSet
90 520 m 1
 299 520 l 2
 389 520 450 456 450 361 c 2
 450 0 l 1
 438 0 l 1
 438 361 l 2
 438 449 382 508 299 508 c 2
 102 508 l 1
 102 0 l 1
 90 0 l 1
 90 520 l 1
128 571 m 1xfe
 128 637 157 675 196 675 c 0
 260 675 297 580 349 580 c 0
 378 580 405 610 405 670 c 1
 417 670 l 1
 417 602 385 568 350 568 c 0
 292 568 250 663 196 663 c 0
 163 663 140 628 140 571 c 1
 128 571 l 1xfe
EndSplineSet
EndChar

StartChar: eng
Encoding: 331 331 222
Width: 540
GlyphClass: 2
Flags: MW
HStem: -200 12<284 438 284 438 284 450> 508 12<102 299 102 102>
VStem: 90 12<0 508 0 520> 438 12<-188 361 -200 405>
AnchorPoint: "Anchor-7" 270 520 basechar 0
AnchorPoint: "Anchor-5" 280 0 basechar 0
LayerCount: 2
Fore
SplineSet
284 -200 m 1
 284 -188 l 1
 438 -188 l 1
 438 361 l 2
 438 449 382 508 299 508 c 2
 102 508 l 1
 102 0 l 1
 90 0 l 1
 90 520 l 1
 299 520 l 2
 389 520 450 456 450 361 c 2
 450 -200 l 1
 284 -200 l 1
EndSplineSet
EndChar

StartChar: o
Encoding: 111 111 223
Width: 650
GlyphClass: 2
Flags: MW
HStem: -5 12<255.5 394.5 255.5 398> 513 12<255.5 394.5>
VStem: 60 12<190.5 329.5 190.5 333> 578 12<190.5 329.5>
AnchorPoint: "Anchor-7" 325 520 basechar 0
AnchorPoint: "Anchor-6" 369 0 basechar 0
AnchorPoint: "Anchor-5" 325 0 basechar 0
LayerCount: 2
Fore
SplineSet
325 7 m 0
 464 7 578 121 578 260 c 0
 578 399 464 513 325 513 c 0
 186 513 72 399 72 260 c 0
 72 121 186 7 325 7 c 0
60 260 m 0
 60 406 179 525 325 525 c 0
 471 525 590 406 590 260 c 0
 590 114 471 -5 325 -5 c 0
 179 -5 60 114 60 260 c 0
EndSplineSet
EndChar

StartChar: oacute
Encoding: 243 243 224
Width: 650
GlyphClass: 2
Flags: MW
HStem: -5 12<255.5 394.5 255.5 398> 513 12<255.5 394.5>
VStem: 60 12<190.5 329.5 190.5 333> 578 12<190.5 329.5>
AnchorPoint: "Anchor-7" 325 671 basechar 0
AnchorPoint: "Anchor-6" 369 0 basechar 0
AnchorPoint: "Anchor-5" 325 0 basechar 0
LayerCount: 2
Fore
SplineSet
325 7 m 0
 464 7 578 121 578 260 c 0
 578 399 464 513 325 513 c 0
 186 513 72 399 72 260 c 0
 72 121 186 7 325 7 c 0
60 260 m 0
 60 406 179 525 325 525 c 0
 471 525 590 406 590 260 c 0
 590 114 471 -5 325 -5 c 0
 179 -5 60 114 60 260 c 0
320 571 m 1
 376 671 l 1
 390 671 l 1
 334 571 l 1
 320 571 l 1
EndSplineSet
EndChar

StartChar: ocircumflex
Encoding: 244 244 225
Width: 650
GlyphClass: 2
Flags: MW
HStem: -5 12<255.5 394.5 255.5 398> 513 12<255.5 394.5> 663 8<325 325>
VStem: 60 12<190.5 329.5 190.5 333> 578 12<190.5 329.5>
AnchorPoint: "Anchor-7" 325 671 basechar 0
AnchorPoint: "Anchor-6" 369 0 basechar 0
AnchorPoint: "Anchor-5" 325 0 basechar 0
LayerCount: 2
Fore
SplineSet
325 7 m 0
 464 7 578 121 578 260 c 0
 578 399 464 513 325 513 c 0
 186 513 72 399 72 260 c 0
 72 121 186 7 325 7 c 0
60 260 m 0
 60 406 179 525 325 525 c 0
 471 525 590 406 590 260 c 0
 590 114 471 -5 325 -5 c 0
 179 -5 60 114 60 260 c 0
200 572 m 1
 316 671 l 1
 334 671 l 1
 450 572 l 1
 432 572 l 1
 325 663 l 1
 218 572 l 1
 200 572 l 1
EndSplineSet
EndChar

StartChar: odieresis
Encoding: 246 246 226
Width: 650
GlyphClass: 2
Flags: MW
HStem: -5 12<255.5 394.5 255.5 398> 513 12<255.5 394.5> 611 42<239 251 399 411>
VStem: 60 12<190.5 329.5 190.5 333> 224 42<626 638> 384 42<626 638> 578 12<190.5 329.5>
AnchorPoint: "Anchor-7" 325 692 basechar 0
AnchorPoint: "Anchor-6" 369 0 basechar 0
AnchorPoint: "Anchor-5" 325 0 basechar 0
LayerCount: 2
Fore
SplineSet
325 7 m 0
 464 7 578 121 578 260 c 0
 578 399 464 513 325 513 c 0
 186 513 72 399 72 260 c 0
 72 121 186 7 325 7 c 0
60 260 m 0
 60 406 179 525 325 525 c 0
 471 525 590 406 590 260 c 0
 590 114 471 -5 325 -5 c 0
 179 -5 60 114 60 260 c 0
224 632 m 0
 224 644 233 653 245 653 c 0
 257 653 266 644 266 632 c 0
 266 620 257 611 245 611 c 0
 233 611 224 620 224 632 c 0
384 632 m 0
 384 644 393 653 405 653 c 0
 417 653 426 644 426 632 c 0
 426 620 417 611 405 611 c 0
 393 611 384 620 384 632 c 0
EndSplineSet
EndChar

StartChar: ograve
Encoding: 242 242 227
Width: 650
GlyphClass: 2
Flags: MW
HStem: -5 12<255.5 394.5 255.5 398> 513 12<255.5 394.5>
VStem: 60 12<190.5 329.5 190.5 333> 578 12<190.5 329.5>
AnchorPoint: "Anchor-7" 325 671 basechar 0
AnchorPoint: "Anchor-6" 369 0 basechar 0
AnchorPoint: "Anchor-5" 325 0 basechar 0
LayerCount: 2
Fore
SplineSet
325 7 m 0
 464 7 578 121 578 260 c 0
 578 399 464 513 325 513 c 0
 186 513 72 399 72 260 c 0
 72 121 186 7 325 7 c 0
60 260 m 0
 60 406 179 525 325 525 c 0
 471 525 590 406 590 260 c 0
 590 114 471 -5 325 -5 c 0
 179 -5 60 114 60 260 c 0
260 671 m 1
 274 671 l 1
 330 571 l 1
 316 571 l 1
 260 671 l 1
EndSplineSet
EndChar

StartChar: ohungarumlaut
Encoding: 337 337 228
Width: 650
GlyphClass: 2
Flags: MW
HStem: -5 12<255.5 394.5 255.5 398> 513 12<255.5 394.5>
VStem: 60 12<190.5 329.5 190.5 333> 578 12<190.5 329.5>
AnchorPoint: "Anchor-7" 325 751 basechar 0
AnchorPoint: "Anchor-6" 369 0 basechar 0
AnchorPoint: "Anchor-5" 325 0 basechar 0
LayerCount: 2
Fore
SplineSet
325 7 m 0
 464 7 578 121 578 260 c 0
 578 399 464 513 325 513 c 0
 186 513 72 399 72 260 c 0
 72 121 186 7 325 7 c 0
60 260 m 0
 60 406 179 525 325 525 c 0
 471 525 590 406 590 260 c 0
 590 114 471 -5 325 -5 c 0
 179 -5 60 114 60 260 c 0
230 571 m 1
 286 751 l 1
 299 751 l 1
 243 571 l 1
 230 571 l 1
411 571 m 1
 467 751 l 1
 480 751 l 1
 424 571 l 1
 411 571 l 1
EndSplineSet
EndChar

StartChar: omacron
Encoding: 333 333 229
Width: 650
GlyphClass: 2
Flags: MW
HStem: -5 12<255.5 394.5 255.5 398> 513 12<255.5 394.5> 624 12<160 490 160 490>
VStem: 60 12<190.5 329.5 190.5 333> 578 12<190.5 329.5>
AnchorPoint: "Anchor-7" 325 636 basechar 0
AnchorPoint: "Anchor-6" 369 0 basechar 0
AnchorPoint: "Anchor-5" 325 0 basechar 0
LayerCount: 2
Fore
SplineSet
325 7 m 0
 464 7 578 121 578 260 c 0
 578 399 464 513 325 513 c 0
 186 513 72 399 72 260 c 0
 72 121 186 7 325 7 c 0
60 260 m 0
 60 406 179 525 325 525 c 0
 471 525 590 406 590 260 c 0
 590 114 471 -5 325 -5 c 0
 179 -5 60 114 60 260 c 0
160 624 m 1
 160 636 l 1
 490 636 l 1
 490 624 l 1
 160 624 l 1
EndSplineSet
EndChar

StartChar: oslash
Encoding: 248 248 230
Width: 650
GlyphClass: 1
Flags: MW
HStem: -5 12<297.5 394.5 297.5 398> 513 12<255.5 353>
VStem: 60 12<220.5 329.5 220.5 333> 578 12<190.5 299.5>
LayerCount: 2
Fore
SplineSet
325 -5 m 0
 267 -5 213 14 169 46 c 1
 134 0 l 1
 119 0 l 1
 160 53 l 1
 99 102 60 176 60 260 c 0
 60 406 179 525 325 525 c 0
 383 525 438 506 482 474 c 1
 517 520 l 1
 532 520 l 1
 491 466 l 1
 551 418 590 343 590 260 c 0
 590 114 471 -5 325 -5 c 0
72 260 m 0
 72 181 109 109 167 63 c 1
 474 464 l 1
 432 495 381 513 325 513 c 0
 186 513 72 399 72 260 c 0
177 56 m 1
 218 25 270 7 325 7 c 0
 464 7 578 121 578 260 c 0
 578 339 541 410 484 457 c 1
 177 56 l 1
EndSplineSet
EndChar

StartChar: otilde
Encoding: 245 245 231
Width: 650
GlyphClass: 2
Flags: MW
HStem: -5 12<255.5 394.5 255.5 398> 513 12<255.5 394.5> 568 12<378 418.5 378 422.5> 663 12<234.5 278>
VStem: 60 12<190.5 329.5 190.5 333> 183 12<571 599.5 571 604> 460 12<640 670> 578 12<190.5 329.5>
AnchorPoint: "Anchor-7" 325 670 basechar 0
AnchorPoint: "Anchor-6" 369 0 basechar 0
AnchorPoint: "Anchor-5" 325 0 basechar 0
LayerCount: 2
Fore
SplineSet
325 7 m 0
 464 7 578 121 578 260 c 0
 578 399 464 513 325 513 c 0
 186 513 72 399 72 260 c 0
 72 121 186 7 325 7 c 0
60 260 m 0
 60 406 179 525 325 525 c 0
 471 525 590 406 590 260 c 0
 590 114 471 -5 325 -5 c 0
 179 -5 60 114 60 260 c 0
183 571 m 1
 183 637 212 675 251 675 c 0
 315 675 352 580 404 580 c 0
 433 580 460 610 460 670 c 1
 472 670 l 1
 472 602 440 568 405 568 c 0
 347 568 305 663 251 663 c 0
 218 663 195 628 195 571 c 1
 183 571 l 1
EndSplineSet
EndChar

StartChar: oe
Encoding: 339 339 232
Width: 881
GlyphClass: 1
Flags: MW
HStem: -5 12<219.5 329> 0 12<645 756 700 756> 200 12<617 789 617 801 617 789> 508 12<637.5 801 700 789> 513 12<219.5 329 216.5 335>
VStem: 60 12<189 331 189 334> 479 12<189 331> 789 12<212 508 508 508>
LayerCount: 2
Fore
SplineSet
278 7 m 0xaf
 392 7 479 118 479 260 c 0
 479 402 392 513 278 513 c 0
 161 513 72 402 72 260 c 0
 72 118 161 7 278 7 c 0xaf
60 260 m 0
 60 408 155 525 278 525 c 0x6f
 380 525 462 441 485 326 c 1
 507 451 590 520 700 520 c 2
 801 520 l 1
 801 200 l 1
 617 200 l 1
 617 212 l 1
 789 212 l 1
 789 508 l 1
 700 508 l 2
 575 508 491 415 491 260 c 0
 491 105 575 12 700 12 c 2
 756 12 l 1
 756 0 l 1
 700 0 l 2x77
 590 0 507 69 485 194 c 1
 462 79 380 -5 278 -5 c 0
 155 -5 60 112 60 260 c 0
EndSplineSet
EndChar

StartChar: p
Encoding: 112 112 233
Width: 560
GlyphClass: 1
Flags: MW
HStem: 0 12<102 279 102 279> 508 12<102 279 102 102>
VStem: 90 12<-200 0 12 508> 488 12<260 260>
LayerCount: 2
Fore
SplineSet
279 12 m 2
 404 12 488 104 488 260 c 0
 488 415 404 508 279 508 c 2
 102 508 l 1
 102 12 l 1
 279 12 l 2
90 -200 m 1
 90 520 l 1
 279 520 l 2
 407 520 499 427 500 260 c 0
 499 93 407 0 279 0 c 2
 102 0 l 1
 102 -200 l 1
 90 -200 l 1
EndSplineSet
EndChar

StartChar: thorn
Encoding: 254 254 234
Width: 560
GlyphClass: 1
Flags: MW
HStem: 0 12<102 279 102 279> 508 12<102 279 102 279>
VStem: 90 12<-200 0 12 508 520 710> 488 12<260 260>
LayerCount: 2
Fore
SplineSet
279 12 m 2
 404 12 488 105 488 260 c 0
 488 415 404 508 279 508 c 2
 102 508 l 1
 102 12 l 1
 279 12 l 2
90 -200 m 1
 90 710 l 1
 102 710 l 1
 102 520 l 1
 279 520 l 2
 407 520 499 427 500 260 c 0
 499 93 407 0 279 0 c 2
 102 0 l 1
 102 -200 l 1
 90 -200 l 1
EndSplineSet
EndChar

StartChar: q
Encoding: 113 113 235
Width: 570
GlyphClass: 1
Flags: MW
HStem: 0 12<227 468 291 468> 508 12<228.5 480 291 468>
VStem: 70 12<260 260> 468 12<-200 0 0 0 12 508 508 508>
LayerCount: 2
Fore
SplineSet
291 508 m 2
 166 508 82 415 82 260 c 0
 82 105 166 12 291 12 c 2
 468 12 l 1
 468 508 l 1
 291 508 l 2
70 260 m 0
 71 427 163 520 291 520 c 2
 480 520 l 1
 480 -200 l 1
 468 -200 l 1
 468 0 l 1
 291 0 l 2
 163 0 71 93 70 260 c 0
EndSplineSet
EndChar

StartChar: r
Encoding: 114 114 236
Width: 380
GlyphClass: 2
Flags: MW
HStem: 508 12<102 320 102 102>
VStem: 90 12<0 508 0 520>
AnchorPoint: "Anchor-7" 200 520 basechar 0
AnchorPoint: "Anchor-5" 96 0 basechar 0
LayerCount: 2
Fore
SplineSet
320 508 m 1
 102 508 l 1
 102 0 l 1
 90 0 l 1
 90 520 l 1
 320 520 l 1
 320 508 l 1
EndSplineSet
EndChar

StartChar: racute
Encoding: 341 341 237
Width: 380
GlyphClass: 2
Flags: MW
HStem: 508 12<102 320 102 102>
VStem: 90 12<0 508 0 520>
AnchorPoint: "Anchor-7" 200 671 basechar 0
AnchorPoint: "Anchor-5" 96 0 basechar 0
LayerCount: 2
Fore
SplineSet
320 508 m 1
 102 508 l 1
 102 0 l 1
 90 0 l 1
 90 520 l 1
 320 520 l 1
 320 508 l 1
195 571 m 1
 251 671 l 1
 265 671 l 1
 209 571 l 1
 195 571 l 1
EndSplineSet
EndChar

StartChar: rcaron
Encoding: 345 345 238
Width: 380
GlyphClass: 2
Flags: MW
HStem: 508 12<102 320 102 102> 571 8<200 200 200 209>
VStem: 90 12<0 508 0 520>
AnchorPoint: "Anchor-7" 200 670 basechar 0
AnchorPoint: "Anchor-5" 96 0 basechar 0
LayerCount: 2
Fore
SplineSet
320 508 m 1
 102 508 l 1
 102 0 l 1
 90 0 l 1
 90 520 l 1
 320 520 l 1
 320 508 l 1
75 670 m 1
 93 670 l 1
 200 579 l 1
 307 670 l 1
 325 670 l 1
 209 571 l 1
 191 571 l 1
 75 670 l 1
EndSplineSet
EndChar

StartChar: uni0157
Encoding: 343 343 239
Width: 380
GlyphClass: 2
Flags: MW
HStem: 508 12<102 320 102 102>
VStem: 90 12<0 508>
AnchorPoint: "Anchor-7" 200 520 basechar 0
AnchorPoint: "Anchor-5" 56 -200 basechar 0
LayerCount: 2
Fore
SplineSet
320 508 m 1
 102 508 l 1
 102 0 l 1
 90 0 l 1
 90 520 l 1
 320 520 l 1
 320 508 l 1
17 -200 m 1
 89 -46 l 1
 102 -46 l 1
 30 -200 l 1
 17 -200 l 1
EndSplineSet
EndChar

StartChar: s
Encoding: 115 115 240
Width: 525
GlyphClass: 2
Flags: MW
HStem: 0 12<85 297 85 297> 180 12<181 265 228 265> 328 12<260 297 260 297> 508 12<184.5 390 228 390>
VStem: 60 12<306 394 306 397.5> 453 12<126 214>
AnchorPoint: "Anchor-7" 259 520 basechar 0
AnchorPoint: "Anchor-5" 259 0 basechar 0
LayerCount: 2
Fore
SplineSet
72 350 m 0
 72 262 141 192 228 192 c 2
 265 192 l 1
 265 180 l 1
 228 180 l 2
 134 180 60 255 60 350 c 0
 60 445 134 520 228 520 c 2
 390 520 l 1
 390 508 l 1
 228 508 l 2
 141 508 72 438 72 350 c 0
85 0 m 1
 85 12 l 1
 297 12 l 2
 384 12 453 82 453 170 c 0
 453 258 384 328 297 328 c 2
 260 328 l 1
 260 340 l 1
 297 340 l 2
 391 340 465 265 465 170 c 0
 465 75 391 0 297 0 c 2
 85 0 l 1
EndSplineSet
EndChar

StartChar: sacute
Encoding: 347 347 241
Width: 525
GlyphClass: 2
Flags: MW
HStem: 0 12<85 297 85 297> 180 12<181 265 228 265> 328 12<260 297 260 297> 508 12<184.5 390 228 390>
VStem: 60 12<306 394 306 397.5> 453 12<126 214>
AnchorPoint: "Anchor-7" 259 671 basechar 0
AnchorPoint: "Anchor-5" 259 0 basechar 0
LayerCount: 2
Fore
SplineSet
72 350 m 0
 72 262 141 192 228 192 c 2
 265 192 l 1
 265 180 l 1
 228 180 l 2
 134 180 60 255 60 350 c 0
 60 445 134 520 228 520 c 2
 390 520 l 1
 390 508 l 1
 228 508 l 2
 141 508 72 438 72 350 c 0
85 0 m 1
 85 12 l 1
 297 12 l 2
 384 12 453 82 453 170 c 0
 453 258 384 328 297 328 c 2
 260 328 l 1
 260 340 l 1
 297 340 l 2
 391 340 465 265 465 170 c 0
 465 75 391 0 297 0 c 2
 85 0 l 1
254 571 m 1
 310 671 l 1
 324 671 l 1
 268 571 l 1
 254 571 l 1
EndSplineSet
EndChar

StartChar: scaron
Encoding: 353 353 242
Width: 525
GlyphClass: 2
Flags: MW
HStem: 0 12<85 297 85 297> 180 12<181 265 228 265> 328 12<260 297 260 297> 508 12<184.5 390 228 390> 571 8<259 259 259 268>
VStem: 60 12<306 394 306 397.5> 453 12<126 214>
AnchorPoint: "Anchor-7" 259 670 basechar 0
AnchorPoint: "Anchor-5" 259 0 basechar 0
LayerCount: 2
Fore
SplineSet
72 350 m 0
 72 262 141 192 228 192 c 2
 265 192 l 1
 265 180 l 1
 228 180 l 2
 134 180 60 255 60 350 c 0
 60 445 134 520 228 520 c 2
 390 520 l 1
 390 508 l 1
 228 508 l 2
 141 508 72 438 72 350 c 0
85 0 m 1
 85 12 l 1
 297 12 l 2
 384 12 453 82 453 170 c 0
 453 258 384 328 297 328 c 2
 260 328 l 1
 260 340 l 1
 297 340 l 2
 391 340 465 265 465 170 c 0
 465 75 391 0 297 0 c 2
 85 0 l 1
134 670 m 1
 152 670 l 1
 259 579 l 1
 366 670 l 1
 384 670 l 1
 268 571 l 1
 250 571 l 1
 134 670 l 1
EndSplineSet
EndChar

StartChar: scedilla
Encoding: 351 351 243
Width: 525
GlyphClass: 2
Flags: MW
HStem: -229 12<238 265 238 268.5> -43 12<238 265> 0 12<85 297 85 297> 180 12<181 265 228 265> 328 12<260 297 260 297> 508 12<184.5 390 228 390>
VStem: 60 12<306 394 306 397.5> 327 12<-156.5 -103.5> 453 12<126 214>
AnchorPoint: "Anchor-7" 259 520 basechar 0
AnchorPoint: "Anchor-5" 238 -229 basechar 0
LayerCount: 2
Fore
SplineSet
72 350 m 0
 72 262 141 192 228 192 c 2
 265 192 l 1
 265 180 l 1
 228 180 l 2
 134 180 60 255 60 350 c 0
 60 445 134 520 228 520 c 2
 390 520 l 1
 390 508 l 1
 228 508 l 2
 141 508 72 438 72 350 c 0
85 0 m 1
 85 12 l 1
 297 12 l 2
 384 12 453 82 453 170 c 0
 453 258 384 328 297 328 c 2
 260 328 l 1
 260 340 l 1
 297 340 l 2
 391 340 465 265 465 170 c 0
 465 75 391 0 297 0 c 2
 85 0 l 1
238 -229 m 1
 238 -217 l 1
 292 -217 327 -183 327 -130 c 0
 327 -77 292 -43 238 -43 c 1
 238 -31 l 1
 299 -31 339 -71 339 -130 c 0
 339 -189 299 -229 238 -229 c 1
EndSplineSet
Substitution2: "'locl' Localized Forms in Latin lookup 4 subtable" uni0219
Substitution2: "'aalt' Access All Alternates in Latin lookup 0 subtable" uni0219
EndChar

StartChar: uni0219
Encoding: 537 537 244
Width: 525
GlyphClass: 2
Flags: MW
HStem: 0 12<85 297 85 297> 180 12<181 265 228 265> 328 12<260 297 260 297> 508 12<184.5 390 228 390>
VStem: 60 12<306 394 306 397.5> 453 12<126 214>
AnchorPoint: "Anchor-7" 259 520 basechar 0
AnchorPoint: "Anchor-5" 219 -200 basechar 0
LayerCount: 2
Fore
SplineSet
72 350 m 0
 72 262 141 192 228 192 c 2
 265 192 l 1
 265 180 l 1
 228 180 l 2
 134 180 60 255 60 350 c 0
 60 445 134 520 228 520 c 2
 390 520 l 1
 390 508 l 1
 228 508 l 2
 141 508 72 438 72 350 c 0
85 0 m 1
 85 12 l 1
 297 12 l 2
 384 12 453 82 453 170 c 0
 453 258 384 328 297 328 c 2
 260 328 l 1
 260 340 l 1
 297 340 l 2
 391 340 465 265 465 170 c 0
 465 75 391 0 297 0 c 2
 85 0 l 1
180 -200 m 1
 252 -46 l 1
 265 -46 l 1
 193 -200 l 1
 180 -200 l 1
EndSplineSet
EndChar

StartChar: germandbls
Encoding: 223 223 245
Width: 690
GlyphClass: 1
Flags: MW
HStem: 0 12<336 394 336 394> 359 12<60 160 60 160> 424 12<404 408> 637 12<172 468 172 172>
VStem: 160 12<0 359 359 359 371 637 0 649> 598 12<160.5 276>
LayerCount: 2
Fore
SplineSet
336 0 m 1
 336 12 l 1
 394 12 l 2
 508 12 598 103 598 218 c 0
 598 334 515 417 404 424 c 1
 359 300 l 1
 346 300 l 1
 468 637 l 1
 172 637 l 1
 172 0 l 1
 160 0 l 1
 160 359 l 1
 60 359 l 1
 60 371 l 1
 160 371 l 1
 160 649 l 1
 485 649 l 1
 408 436 l 1
 525 428 610 334 610 218 c 0
 610 96 515 0 394 0 c 2
 336 0 l 1
EndSplineSet
EndChar

StartChar: t
Encoding: 116 116 246
Width: 490
GlyphClass: 2
Flags: MW
HStem: 0 12<246 410 291 410> 508 12<70 140 70 140 152 410>
VStem: 140 12<159 508 520 650>
AnchorPoint: "Anchor-7" 146 650 basechar 0
AnchorPoint: "Anchor-5" 291 0 basechar 0
LayerCount: 2
Fore
SplineSet
70 520 m 1
 140 520 l 1
 140 650 l 1
 152 650 l 1
 152 520 l 1
 410 520 l 1
 410 508 l 1
 152 508 l 1
 152 159 l 2
 152 71 208 12 291 12 c 2
 410 12 l 1
 410 0 l 1
 291 0 l 2
 201 0 140 64 140 159 c 2
 140 508 l 1
 70 508 l 1
 70 520 l 1
EndSplineSet
EndChar

StartChar: tbar
Encoding: 359 359 247
Width: 500
GlyphClass: 2
Flags: MW
HStem: 0 12<246 410 291 410> 289 12<90 140 90 140 152 400> 508 12<70 140 70 140 152 410>
VStem: 140 12<159 289 301 508 520 650>
AnchorPoint: "Anchor-7" 146 650 basechar 0
AnchorPoint: "Anchor-5" 291 0 basechar 0
LayerCount: 2
Fore
SplineSet
400 301 m 1
 400 289 l 1
 152 289 l 1
 152 159 l 2
 152 71 208 12 291 12 c 2
 410 12 l 1
 410 0 l 1
 291 0 l 2
 201 0 140 64 140 159 c 2
 140 289 l 1
 90 289 l 1
 90 301 l 1
 140 301 l 1
 140 508 l 1
 70 508 l 1
 70 520 l 1
 140 520 l 1
 140 650 l 1
 152 650 l 1
 152 520 l 1
 410 520 l 1
 410 508 l 1
 152 508 l 1
 152 301 l 1
 400 301 l 1
EndSplineSet
EndChar

StartChar: tcaron
Encoding: 357 357 248
Width: 490
GlyphClass: 2
Flags: MW
HStem: 0 12<246 410 291 410> 508 12<70 140 70 140 152 410> 701 8<146 146 146 155>
VStem: 140 12<159 508 520 650>
AnchorPoint: "Anchor-7" 146 800 basechar 0
AnchorPoint: "Anchor-5" 291 0 basechar 0
LayerCount: 2
Fore
SplineSet
70 520 m 1
 140 520 l 1
 140 650 l 1
 152 650 l 1
 152 520 l 1
 410 520 l 1
 410 508 l 1
 152 508 l 1
 152 159 l 2
 152 71 208 12 291 12 c 2
 410 12 l 1
 410 0 l 1
 291 0 l 2
 201 0 140 64 140 159 c 2
 140 508 l 1
 70 508 l 1
 70 520 l 1
21 800 m 1
 39 800 l 1
 146 709 l 1
 253 800 l 1
 271 800 l 1
 155 701 l 1
 137 701 l 1
 21 800 l 1
EndSplineSet
EndChar

StartChar: uni0163
Encoding: 355 355 249
Width: 490
GlyphClass: 2
Flags: MW
HStem: -229 12<270 297 270 300.5> -43 12<270 297> 0 12<246 410 291 410> 508 12<70 140 70 140 152 410>
VStem: 140 12<159 508 520 650> 359 12<-156.5 -103.5>
AnchorPoint: "Anchor-7" 146 650 basechar 0
AnchorPoint: "Anchor-5" 270 -229 basechar 0
LayerCount: 2
Fore
SplineSet
70 520 m 1
 140 520 l 1
 140 650 l 1
 152 650 l 1
 152 520 l 1
 410 520 l 1
 410 508 l 1
 152 508 l 1
 152 159 l 2
 152 71 208 12 291 12 c 2
 410 12 l 1
 410 0 l 1
 291 0 l 2
 201 0 140 64 140 159 c 2
 140 508 l 1
 70 508 l 1
 70 520 l 1
270 -229 m 1
 270 -217 l 1
 324 -217 359 -183 359 -130 c 0
 359 -77 324 -43 270 -43 c 1
 270 -31 l 1
 331 -31 371 -71 371 -130 c 0
 371 -189 331 -229 270 -229 c 1
EndSplineSet
Substitution2: "'locl' Localized Forms in Latin lookup 4 subtable" uni021B
Substitution2: "'aalt' Access All Alternates in Latin lookup 0 subtable" uni021B
EndChar

StartChar: uni021B
Encoding: 539 539 250
Width: 490
GlyphClass: 2
Flags: MW
HStem: 0 12<246 410 291 410> 508 12<70 140 70 140 152 410>
VStem: 140 12<159 508 520 650>
AnchorPoint: "Anchor-7" 146 650 basechar 0
AnchorPoint: "Anchor-5" 251 -200 basechar 0
LayerCount: 2
Fore
SplineSet
70 520 m 1
 140 520 l 1
 140 650 l 1
 152 650 l 1
 152 520 l 1
 410 520 l 1
 410 508 l 1
 152 508 l 1
 152 159 l 2
 152 71 208 12 291 12 c 2
 410 12 l 1
 410 0 l 1
 291 0 l 2
 201 0 140 64 140 159 c 2
 140 508 l 1
 70 508 l 1
 70 520 l 1
212 -200 m 1
 284 -46 l 1
 297 -46 l 1
 225 -200 l 1
 212 -200 l 1
EndSplineSet
EndChar

StartChar: u
Encoding: 117 117 251
Width: 540
GlyphClass: 2
Flags: MW
HStem: 0 12<196 438 241 438 241 450>
VStem: 90 12<159 520> 438 12<12 520>
AnchorPoint: "Anchor-7" 265 510 basechar 0
AnchorPoint: "Anchor-6" 433 0 basechar 0
AnchorPoint: "Anchor-5" 265 0 basechar 0
LayerCount: 2
Fore
SplineSet
450 0 m 1
 241 0 l 2
 151 0 90 64 90 159 c 2
 90 520 l 1
 102 520 l 1
 102 159 l 2
 102 71 158 12 241 12 c 2
 438 12 l 1
 438 520 l 1
 450 520 l 1
 450 0 l 1
EndSplineSet
EndChar

StartChar: uacute
Encoding: 250 250 252
Width: 540
GlyphClass: 2
Flags: MW
HStem: 0 12<196 438 241 438 241 450>
VStem: 90 12<159 520> 438 12<12 520>
AnchorPoint: "Anchor-7" 265 661 basechar 0
AnchorPoint: "Anchor-6" 433 0 basechar 0
AnchorPoint: "Anchor-5" 265 0 basechar 0
LayerCount: 2
Fore
SplineSet
450 0 m 1
 241 0 l 2
 151 0 90 64 90 159 c 2
 90 520 l 1
 102 520 l 1
 102 159 l 2
 102 71 158 12 241 12 c 2
 438 12 l 1
 438 520 l 1
 450 520 l 1
 450 0 l 1
260 561 m 1
 316 661 l 1
 330 661 l 1
 274 561 l 1
 260 561 l 1
EndSplineSet
EndChar

StartChar: ucircumflex
Encoding: 251 251 253
Width: 540
GlyphClass: 2
Flags: MW
HStem: 0 12<196 438 241 438 241 450> 653 8<265 265>
VStem: 90 12<159 520> 438 12<12 520>
AnchorPoint: "Anchor-7" 265 661 basechar 0
AnchorPoint: "Anchor-6" 433 0 basechar 0
AnchorPoint: "Anchor-5" 265 0 basechar 0
LayerCount: 2
Fore
SplineSet
450 0 m 1
 241 0 l 2
 151 0 90 64 90 159 c 2
 90 520 l 1
 102 520 l 1
 102 159 l 2
 102 71 158 12 241 12 c 2
 438 12 l 1
 438 520 l 1
 450 520 l 1
 450 0 l 1
140 562 m 1
 256 661 l 1
 274 661 l 1
 390 562 l 1
 372 562 l 1
 265 653 l 1
 158 562 l 1
 140 562 l 1
EndSplineSet
EndChar

StartChar: udieresis
Encoding: 252 252 254
Width: 540
GlyphClass: 2
Flags: MW
HStem: 0 12<196 438 241 438 241 450> 601 42<179 191 339 351>
VStem: 90 12<159 520> 164 42<616 628> 324 42<616 628> 438 12<12 520>
AnchorPoint: "Anchor-7" 265 682 basechar 0
AnchorPoint: "Anchor-6" 433 0 basechar 0
AnchorPoint: "Anchor-5" 265 0 basechar 0
LayerCount: 2
Fore
SplineSet
450 0 m 1
 241 0 l 2
 151 0 90 64 90 159 c 2
 90 520 l 1
 102 520 l 1
 102 159 l 2
 102 71 158 12 241 12 c 2
 438 12 l 1
 438 520 l 1
 450 520 l 1
 450 0 l 1
164 622 m 0
 164 634 173 643 185 643 c 0
 197 643 206 634 206 622 c 0
 206 610 197 601 185 601 c 0
 173 601 164 610 164 622 c 0
324 622 m 0
 324 634 333 643 345 643 c 0
 357 643 366 634 366 622 c 0
 366 610 357 601 345 601 c 0
 333 601 324 610 324 622 c 0
EndSplineSet
EndChar

StartChar: ugrave
Encoding: 249 249 255
Width: 540
GlyphClass: 2
Flags: MW
HStem: 0 12<196 438 241 438 241 450>
VStem: 90 12<159 520> 438 12<12 520>
AnchorPoint: "Anchor-7" 265 661 basechar 0
AnchorPoint: "Anchor-6" 433 0 basechar 0
AnchorPoint: "Anchor-5" 265 0 basechar 0
LayerCount: 2
Fore
SplineSet
450 0 m 1
 241 0 l 2
 151 0 90 64 90 159 c 2
 90 520 l 1
 102 520 l 1
 102 159 l 2
 102 71 158 12 241 12 c 2
 438 12 l 1
 438 520 l 1
 450 520 l 1
 450 0 l 1
200 661 m 1
 214 661 l 1
 270 561 l 1
 256 561 l 1
 200 661 l 1
EndSplineSet
EndChar

StartChar: uhungarumlaut
Encoding: 369 369 256
Width: 540
GlyphClass: 2
Flags: MW
HStem: 0 12<196 438 241 438 241 450>
VStem: 90 12<159 520> 438 12<12 520>
AnchorPoint: "Anchor-7" 265 741 basechar 0
AnchorPoint: "Anchor-6" 433 0 basechar 0
AnchorPoint: "Anchor-5" 265 0 basechar 0
LayerCount: 2
Fore
SplineSet
450 0 m 1
 241 0 l 2
 151 0 90 64 90 159 c 2
 90 520 l 1
 102 520 l 1
 102 159 l 2
 102 71 158 12 241 12 c 2
 438 12 l 1
 438 520 l 1
 450 520 l 1
 450 0 l 1
170 561 m 1
 226 741 l 1
 239 741 l 1
 183 561 l 1
 170 561 l 1
351 561 m 1
 407 741 l 1
 420 741 l 1
 364 561 l 1
 351 561 l 1
EndSplineSet
EndChar

StartChar: umacron
Encoding: 363 363 257
Width: 540
GlyphClass: 2
Flags: MW
HStem: 0 12<196 438 241 438 241 450> 614 12<100 430 100 430>
VStem: 90 12<159 520> 438 12<12 520>
AnchorPoint: "Anchor-7" 265 626 basechar 0
AnchorPoint: "Anchor-6" 433 0 basechar 0
AnchorPoint: "Anchor-5" 265 0 basechar 0
LayerCount: 2
Fore
SplineSet
450 0 m 1
 241 0 l 2
 151 0 90 64 90 159 c 2
 90 520 l 1
 102 520 l 1
 102 159 l 2
 102 71 158 12 241 12 c 2
 438 12 l 1
 438 520 l 1
 450 520 l 1
 450 0 l 1
100 614 m 1
 100 626 l 1
 430 626 l 1
 430 614 l 1
 100 614 l 1
EndSplineSet
EndChar

StartChar: uogonek
Encoding: 371 371 258
Width: 540
GlyphClass: 2
Flags: MW
HStem: -200 12<352 537 352 537> 0 12<196 438 241 427 241 450 241 440>
VStem: 90 12<159 520> 438 12<12 520>
AnchorPoint: "Anchor-7" 265 510 basechar 0
AnchorPoint: "Anchor-6" 433 0 basechar 0
AnchorPoint: "Anchor-5" 265 0 basechar 0
LayerCount: 2
Fore
SplineSet
450 0 m 1
 440 0 l 1
 352 -188 l 1
 537 -188 l 1
 537 -200 l 1
 333 -200 l 1
 427 0 l 1
 241 0 l 2
 151 0 90 64 90 159 c 2
 90 520 l 1
 102 520 l 1
 102 159 l 2
 102 71 158 12 241 12 c 2
 438 12 l 1
 438 520 l 1
 450 520 l 1
 450 0 l 1
EndSplineSet
EndChar

StartChar: uring
Encoding: 367 367 259
Width: 540
GlyphClass: 2
Flags: MW
HStem: 0 12<196 438 241 438 241 450> 559 11<247.5 283 247.5 285.5> 698 11<247.5 283>
VStem: 90 12<159 520> 190 11<634 634> 328 12<634 634> 438 12<12 520>
AnchorPoint: "Anchor-7" 265 709 basechar 0
AnchorPoint: "Anchor-6" 433 0 basechar 0
AnchorPoint: "Anchor-5" 265 0 basechar 0
LayerCount: 2
Fore
SplineSet
450 0 m 1
 241 0 l 2
 151 0 90 64 90 159 c 2
 90 520 l 1
 102 520 l 1
 102 159 l 2
 102 71 158 12 241 12 c 2
 438 12 l 1
 438 520 l 1
 450 520 l 1
 450 0 l 1
190 634 m 0
 190 676 222 709 265 709 c 0
 306 709 340 676 340 634 c 0
 340 592 306 559 265 559 c 0
 222 559 190 592 190 634 c 0
201 634 m 0
 202 598 230 570 265 570 c 0
 301 570 329 598 328 634 c 0
 329 670 301 698 265 698 c 0
 230 698 202 670 201 634 c 0
EndSplineSet
EndChar

StartChar: utilde
Encoding: 361 361 260
Width: 540
GlyphClass: 2
Flags: MW
HStem: 0 12<196 438 241 438 241 450> 558 12<318 358.5 318 362.5> 653 12<174.5 218>
VStem: 90 12<159 520> 123 12<561 589.5 561 594> 400 12<630 660> 438 12<12 520>
AnchorPoint: "Anchor-7" 265 660 basechar 0
AnchorPoint: "Anchor-6" 433 0 basechar 0
AnchorPoint: "Anchor-5" 265 0 basechar 0
LayerCount: 2
Fore
SplineSet
450 0 m 1
 241 0 l 2
 151 0 90 64 90 159 c 2
 90 520 l 1
 102 520 l 1
 102 159 l 2
 102 71 158 12 241 12 c 2
 438 12 l 1
 438 520 l 1
 450 520 l 1
 450 0 l 1
123 561 m 1xfe
 123 627 152 665 191 665 c 0
 255 665 292 570 344 570 c 0
 373 570 400 600 400 660 c 1
 412 660 l 1
 412 592 380 558 345 558 c 0
 287 558 245 653 191 653 c 0
 158 653 135 618 135 561 c 1
 123 561 l 1xfe
EndSplineSet
EndChar

StartChar: v
Encoding: 118 118 261
Width: 558
GlyphClass: 1
Flags: MW
HStem: 0 12<227 332 227 340 218 332>
VStem: 50 458<520 520>
LayerCount: 2
Fore
SplineSet
496 520 m 1
 508 520 l 1
 340 0 l 1
 218 0 l 1
 50 520 l 1
 62 520 l 1
 227 12 l 1
 332 12 l 1
 496 520 l 1
EndSplineSet
EndChar

StartChar: w
Encoding: 119 119 262
Width: 820
GlyphClass: 2
Flags: MW
HStem: 0 12<200 270 200 281 191 270 550 620> 508 12<381 439 381 381>
VStem: 63 694<520 520>
AnchorPoint: "Anchor-7" 410 520 basechar 0
AnchorPoint: "Anchor-5" 410 0 basechar 0
LayerCount: 2
Fore
SplineSet
63 520 m 1
 75 520 l 1
 200 12 l 1
 270 12 l 1
 370 520 l 1
 450 520 l 1
 550 12 l 1
 620 12 l 1
 745 520 l 1
 757 520 l 1
 629 0 l 1
 539 0 l 1
 439 508 l 1
 381 508 l 1
 281 0 l 1
 191 0 l 1
 63 520 l 1
EndSplineSet
EndChar

StartChar: wacute
Encoding: 7811 7811 263
Width: 820
GlyphClass: 2
Flags: MW
HStem: 0 12<200 270 200 281 191 270 550 620> 508 12<381 439 381 381>
VStem: 63 694<520 520>
AnchorPoint: "Anchor-7" 410 671 basechar 0
AnchorPoint: "Anchor-5" 410 0 basechar 0
LayerCount: 2
Fore
SplineSet
63 520 m 1
 75 520 l 1
 200 12 l 1
 270 12 l 1
 370 520 l 1
 450 520 l 1
 550 12 l 1
 620 12 l 1
 745 520 l 1
 757 520 l 1
 629 0 l 1
 539 0 l 1
 439 508 l 1
 381 508 l 1
 281 0 l 1
 191 0 l 1
 63 520 l 1
405 571 m 1
 461 671 l 1
 475 671 l 1
 419 571 l 1
 405 571 l 1
EndSplineSet
EndChar

StartChar: wcircumflex
Encoding: 373 373 264
Width: 820
GlyphClass: 2
Flags: MW
HStem: 0 12<200 270 200 281 191 270 550 620> 508 12<381 439 381 381> 663 8<410 410>
VStem: 63 694<520 520>
AnchorPoint: "Anchor-7" 410 671 basechar 0
AnchorPoint: "Anchor-5" 410 0 basechar 0
LayerCount: 2
Fore
SplineSet
63 520 m 1
 75 520 l 1
 200 12 l 1
 270 12 l 1
 370 520 l 1
 450 520 l 1
 550 12 l 1
 620 12 l 1
 745 520 l 1
 757 520 l 1
 629 0 l 1
 539 0 l 1
 439 508 l 1
 381 508 l 1
 281 0 l 1
 191 0 l 1
 63 520 l 1
285 572 m 1
 401 671 l 1
 419 671 l 1
 535 572 l 1
 517 572 l 1
 410 663 l 1
 303 572 l 1
 285 572 l 1
EndSplineSet
EndChar

StartChar: wdieresis
Encoding: 7813 7813 265
Width: 820
GlyphClass: 2
Flags: MW
HStem: 0 12<200 270 200 281 191 270 550 620> 508 12<381 439 381 381> 611 42<324 336 484 496>
VStem: 309 42<626 638> 469 42<626 638>
AnchorPoint: "Anchor-7" 410 692 basechar 0
AnchorPoint: "Anchor-5" 410 0 basechar 0
LayerCount: 2
Fore
SplineSet
63 520 m 1
 75 520 l 1
 200 12 l 1
 270 12 l 1
 370 520 l 1
 450 520 l 1
 550 12 l 1
 620 12 l 1
 745 520 l 1
 757 520 l 1
 629 0 l 1
 539 0 l 1
 439 508 l 1
 381 508 l 1
 281 0 l 1
 191 0 l 1
 63 520 l 1
309 632 m 0
 309 644 318 653 330 653 c 0
 342 653 351 644 351 632 c 0
 351 620 342 611 330 611 c 0
 318 611 309 620 309 632 c 0
469 632 m 0
 469 644 478 653 490 653 c 0
 502 653 511 644 511 632 c 0
 511 620 502 611 490 611 c 0
 478 611 469 620 469 632 c 0
EndSplineSet
EndChar

StartChar: wgrave
Encoding: 7809 7809 266
Width: 820
GlyphClass: 2
Flags: MW
HStem: 0 12<200 270 200 281 191 270 550 620> 508 12<381 439 381 381>
VStem: 63 694<520 520>
AnchorPoint: "Anchor-7" 410 671 basechar 0
AnchorPoint: "Anchor-5" 410 0 basechar 0
LayerCount: 2
Fore
SplineSet
63 520 m 1
 75 520 l 1
 200 12 l 1
 270 12 l 1
 370 520 l 1
 450 520 l 1
 550 12 l 1
 620 12 l 1
 745 520 l 1
 757 520 l 1
 629 0 l 1
 539 0 l 1
 439 508 l 1
 381 508 l 1
 281 0 l 1
 191 0 l 1
 63 520 l 1
345 671 m 1
 359 671 l 1
 415 571 l 1
 401 571 l 1
 345 671 l 1
EndSplineSet
EndChar

StartChar: x
Encoding: 120 120 267
Width: 514
GlyphClass: 1
Flags: MW
HStem: 0 520<56 71 56 71 443 458 56 443>
VStem: 56 402<0 0>
LayerCount: 2
Fore
SplineSet
443 520 m 1
 458 520 l 1
 265 260 l 1
 458 0 l 1
 443 0 l 1
 257 251 l 1
 71 0 l 1
 56 0 l 1
 249 260 l 1
 56 520 l 1
 71 520 l 1
 257 269 l 1
 443 520 l 1
EndSplineSet
EndChar

StartChar: y
Encoding: 121 121 268
Width: 558
GlyphClass: 2
Flags: MW
HStem: -200 12<114 269 114 281 114 269>
VStem: 269 12<-188 -10 -200 -10>
AnchorPoint: "Anchor-7" 279 520 basechar 0
AnchorPoint: "Anchor-5" 281 -200 basechar 0
LayerCount: 2
Fore
SplineSet
496 520 m 1
 508 520 l 1
 281 -10 l 1
 281 -200 l 1
 114 -200 l 1
 114 -188 l 1
 269 -188 l 1
 269 -10 l 1
 50 520 l 1
 62 520 l 1
 275 7 l 1
 496 520 l 1
EndSplineSet
EndChar

StartChar: yacute
Encoding: 253 253 269
Width: 558
GlyphClass: 2
Flags: MW
HStem: -200 12<114 269 114 281 114 269>
VStem: 269 12<-188 -10 -200 -10>
AnchorPoint: "Anchor-7" 279 671 basechar 0
AnchorPoint: "Anchor-5" 281 -200 basechar 0
LayerCount: 2
Fore
SplineSet
496 520 m 1
 508 520 l 1
 281 -10 l 1
 281 -200 l 1
 114 -200 l 1
 114 -188 l 1
 269 -188 l 1
 269 -10 l 1
 50 520 l 1
 62 520 l 1
 275 7 l 1
 496 520 l 1
274 571 m 1
 330 671 l 1
 344 671 l 1
 288 571 l 1
 274 571 l 1
EndSplineSet
EndChar

StartChar: ycircumflex
Encoding: 375 375 270
Width: 558
GlyphClass: 2
Flags: MW
HStem: -200 12<114 269 114 281 114 269> 663 8<279 279>
VStem: 269 12<-188 -10 -200 -10>
AnchorPoint: "Anchor-7" 279 671 basechar 0
AnchorPoint: "Anchor-5" 281 -200 basechar 0
LayerCount: 2
Fore
SplineSet
496 520 m 1
 508 520 l 1
 281 -10 l 1
 281 -200 l 1
 114 -200 l 1
 114 -188 l 1
 269 -188 l 1
 269 -10 l 1
 50 520 l 1
 62 520 l 1
 275 7 l 1
 496 520 l 1
154 572 m 1
 270 671 l 1
 288 671 l 1
 404 572 l 1
 386 572 l 1
 279 663 l 1
 172 572 l 1
 154 572 l 1
EndSplineSet
EndChar

StartChar: ydieresis
Encoding: 255 255 271
Width: 558
GlyphClass: 2
Flags: MW
HStem: -200 12<114 269 114 281 114 269> 611 42<193 205 353 365>
VStem: 178 42<626 638> 269 12<-188 -10 -200 -10> 338 42<626 638>
AnchorPoint: "Anchor-7" 279 692 basechar 0
AnchorPoint: "Anchor-5" 281 -200 basechar 0
LayerCount: 2
Fore
SplineSet
496 520 m 1
 508 520 l 1
 281 -10 l 1
 281 -200 l 1
 114 -200 l 1
 114 -188 l 1
 269 -188 l 1
 269 -10 l 1
 50 520 l 1
 62 520 l 1
 275 7 l 1
 496 520 l 1
178 632 m 0
 178 644 187 653 199 653 c 0
 211 653 220 644 220 632 c 0
 220 620 211 611 199 611 c 0
 187 611 178 620 178 632 c 0
338 632 m 0
 338 644 347 653 359 653 c 0
 371 653 380 644 380 632 c 0
 380 620 371 611 359 611 c 0
 347 611 338 620 338 632 c 0
EndSplineSet
EndChar

StartChar: ygrave
Encoding: 7923 7923 272
Width: 558
GlyphClass: 2
Flags: MW
HStem: -200 12<114 269 114 281 114 269>
VStem: 269 12<-188 -10 -200 -10>
AnchorPoint: "Anchor-7" 279 671 basechar 0
AnchorPoint: "Anchor-5" 281 -200 basechar 0
LayerCount: 2
Fore
SplineSet
496 520 m 1
 508 520 l 1
 281 -10 l 1
 281 -200 l 1
 114 -200 l 1
 114 -188 l 1
 269 -188 l 1
 269 -10 l 1
 50 520 l 1
 62 520 l 1
 275 7 l 1
 496 520 l 1
214 671 m 1
 228 671 l 1
 284 571 l 1
 270 571 l 1
 214 671 l 1
EndSplineSet
EndChar

StartChar: uni1EF9
Encoding: 7929 7929 273
Width: 558
GlyphClass: 2
Flags: MW
HStem: -200 12<114 269 114 281 114 269> 568 12<332 372.5 332 376.5> 663 12<188.5 232>
VStem: 137 12<571 599.5 571 604> 269 12<-188 -10 -200 -10> 414 12<640 670>
AnchorPoint: "Anchor-7" 279 670 basechar 0
AnchorPoint: "Anchor-5" 281 -200 basechar 0
LayerCount: 2
Fore
SplineSet
496 520 m 1
 508 520 l 1
 281 -10 l 1
 281 -200 l 1
 114 -200 l 1
 114 -188 l 1
 269 -188 l 1
 269 -10 l 1
 50 520 l 1
 62 520 l 1
 275 7 l 1
 496 520 l 1
137 571 m 1
 137 637 166 675 205 675 c 0
 269 675 306 580 358 580 c 0
 387 580 414 610 414 670 c 1
 426 670 l 1
 426 602 394 568 359 568 c 0
 301 568 259 663 205 663 c 0
 172 663 149 628 149 571 c 1
 137 571 l 1
EndSplineSet
EndChar

StartChar: z
Encoding: 122 122 274
Width: 495
GlyphClass: 2
Flags: MW
HStem: 0 12<83 429 83 429> 508 12<66 412 66 435>
VStem: 60 375
AnchorPoint: "Anchor-7" 248 520 basechar 0
AnchorPoint: "Anchor-5" 248 0 basechar 0
LayerCount: 2
Fore
SplineSet
435 520 m 1
 83 12 l 1
 429 12 l 1
 429 0 l 1
 60 0 l 1
 412 508 l 1
 66 508 l 1
 66 520 l 1
 435 520 l 1
EndSplineSet
EndChar

StartChar: zacute
Encoding: 378 378 275
Width: 495
GlyphClass: 2
Flags: MW
HStem: 0 12<83 429 83 429> 508 12<66 412 66 435>
VStem: 60 375
AnchorPoint: "Anchor-7" 248 671 basechar 0
AnchorPoint: "Anchor-5" 248 0 basechar 0
LayerCount: 2
Fore
SplineSet
435 520 m 1
 83 12 l 1
 429 12 l 1
 429 0 l 1
 60 0 l 1
 412 508 l 1
 66 508 l 1
 66 520 l 1
 435 520 l 1
243 571 m 1
 299 671 l 1
 313 671 l 1
 257 571 l 1
 243 571 l 1
EndSplineSet
EndChar

StartChar: zcaron
Encoding: 382 382 276
Width: 495
GlyphClass: 2
Flags: MW
HStem: 0 12<83 429 83 429> 508 12<66 412 66 435> 508 162<123 141 355 373 66 141> 571 8<248 248 248 257>
VStem: 60 375
AnchorPoint: "Anchor-7" 248 670 basechar 0
AnchorPoint: "Anchor-5" 248 0 basechar 0
LayerCount: 2
Fore
SplineSet
435 520 m 1xc8
 83 12 l 1
 429 12 l 1
 429 0 l 1
 60 0 l 1
 412 508 l 1
 66 508 l 1
 66 520 l 1
 435 520 l 1xc8
123 670 m 1xa8
 141 670 l 1xa8
 248 579 l 1xd8
 355 670 l 1
 373 670 l 1xa8
 257 571 l 1
 239 571 l 1xd8
 123 670 l 1xa8
EndSplineSet
EndChar

StartChar: zdotaccent
Encoding: 380 380 277
Width: 495
GlyphClass: 2
Flags: MW
HStem: 0 12<83 429 83 429> 508 12<66 412 66 435> 611 42<242 254>
VStem: 227 42<626 638>
AnchorPoint: "Anchor-7" 248 520 basechar 0
AnchorPoint: "Anchor-5" 248 0 basechar 0
LayerCount: 2
Fore
SplineSet
435 520 m 1
 83 12 l 1
 429 12 l 1
 429 0 l 1
 60 0 l 1
 412 508 l 1
 66 508 l 1
 66 520 l 1
 435 520 l 1
227 632 m 0
 227 644 236 653 248 653 c 0
 260 653 269 644 269 632 c 0
 269 620 260 611 248 611 c 0
 236 611 227 620 227 632 c 0
EndSplineSet
EndChar

StartChar: k.ss02
Encoding: 65575 -1 278
Width: 585
GlyphClass: 1
Flags: MW
HStem: 250 12<122 361 374 416 122 361> 508 12<446 525 446 446>
VStem: 110 12<0 250 262 710>
LayerCount: 2
Fore
SplineSet
110 0 m 1
 110 710 l 1
 122 710 l 1
 122 262 l 1
 361 262 l 1
 436 520 l 1
 525 520 l 1
 525 508 l 1
 446 508 l 1
 374 262 l 1
 425 262 l 1
 517 0 l 1
 504 0 l 1
 416 250 l 1
 122 250 l 1
 122 0 l 1
 110 0 l 1
EndSplineSet
EndChar

StartChar: a_o_n.dlig
Encoding: 65576 -1 279
Width: 1396
GlyphClass: 3
Flags: MW
HStem: -5 12<552 661.5 546 664.5> 0 12<92 181 92 181> 308 12<92 264 92 92> 508 12<125 181 125 181 958 958 958 1155> 513 12<552 661.5>
VStem: 80 12<12 308 12 320> 390 12<189 331 189 337.5> 809 12<189 331> 946 12<0 508 0 520> 1294 12<0 361 0 405>
LayerCount: 2
Fore
SplineSet
603 -5 m 0xafc0
 501 -5 419 79 396 194 c 1
 374 69 291 0 181 0 c 2
 80 0 l 1
 80 320 l 1
 264 320 l 1
 264 308 l 1
 92 308 l 1
 92 12 l 1
 181 12 l 2
 306 12 390 105 390 260 c 0
 390 415 306 508 181 508 c 2
 125 508 l 1
 125 520 l 1
 181 520 l 2x77c0
 291 520 374 451 396 326 c 1
 419 441 501 525 603 525 c 0
 726 525 821 408 821 260 c 0
 821 112 726 -5 603 -5 c 0xafc0
402 260 m 0
 402 118 489 7 603 7 c 0
 720 7 809 118 809 260 c 0
 809 402 720 513 603 513 c 0
 489 513 402 402 402 260 c 0
946 0 m 1
 946 520 l 1
 1155 520 l 2
 1245 520 1306 456 1306 361 c 2
 1306 0 l 1
 1294 0 l 1
 1294 361 l 2
 1294 449 1238 508 1155 508 c 2
 958 508 l 1x77c0
 958 0 l 1
 946 0 l 1
EndSplineSet
Ligature2: "'dlig' Discretionary Ligatures in Latin lookup 7 subtable" a o n
EndChar

StartChar: eacute_e.dlig
Encoding: 65577 -1 280
Width: 822
GlyphClass: 3
Flags: MW
HStem: 0 12<111 196 111 196 626 711> 200 12<64 279 64 279 543 758> 508 12<64 196 64 64 626 758>
VStem: 52 12<212 508 212 520> 405 12<182.5 337.5> 758 12<212 508 508 508>
LayerCount: 2
Fore
SplineSet
405 260 m 0
 405 415 321 508 196 508 c 2
 64 508 l 1
 64 212 l 1
 279 212 l 1
 279 200 l 1
 52 200 l 1
 52 520 l 1
 196 520 l 2
 305 520 389 452 411 328 c 1
 433 452 517 520 626 520 c 2
 770 520 l 1
 770 200 l 1
 543 200 l 1
 543 212 l 1
 758 212 l 1
 758 508 l 1
 626 508 l 2
 501 508 417 415 417 260 c 0
 417 105 501 12 626 12 c 2
 711 12 l 1
 711 0 l 1
 626 0 l 2
 517 0 433 68 411 192 c 1
 389 68 305 0 196 0 c 2
 111 0 l 1
 111 12 l 1
 196 12 l 2
 321 12 405 105 405 260 c 0
411 571 m 1
 467 671 l 1
 481 671 l 1
 425 571 l 1
 411 571 l 1
EndSplineSet
Ligature2: "'dlig' Discretionary Ligatures in Latin lookup 7 subtable" eacute e
EndChar

StartChar: f_v_e.dlig
Encoding: 65578 -1 281
Width: 1029
GlyphClass: 3
Flags: MW
HStem: 0 12<102 214 102 221 795 890> 200 12<712 937 712 949 712 937> 508 12<102 320 102 320 795 937> 698 12<102 320 102 102>
VStem: 90 12<12 508 520 698> 90 230<508 520 698 710 508 710 508 710> 574 12<260 260> 937 12<212 508 508 508>
LayerCount: 2
Fore
SplineSet
501 520 m 1xfb
 514 520 l 1
 221 0 l 1
 90 0 l 1
 90 710 l 1xfb
 320 710 l 1
 320 698 l 1xf7
 102 698 l 1
 102 520 l 1xfb
 320 520 l 1
 320 508 l 1xf7
 102 508 l 1
 102 12 l 1
 214 12 l 1
 501 520 l 1xfb
574 260 m 0
 575 427 667 520 795 520 c 2
 949 520 l 1
 949 200 l 1
 712 200 l 1
 712 212 l 1
 937 212 l 1
 937 508 l 1
 795 508 l 2
 670 508 586 415 586 260 c 0
 586 105 670 12 795 12 c 2
 890 12 l 1
 890 0 l 1
 795 0 l 2
 667 0 575 93 574 260 c 0
EndSplineSet
Ligature2: "'dlig' Discretionary Ligatures in Latin lookup 7 subtable" f v e
EndChar

StartChar: i_e.dlig
Encoding: 65579 -1 282
Width: 543
GlyphClass: 3
Flags: MW
HStem: 0 12<217 396 281 396> 200 12<198 443 198 443 198 455> 508 12<218.5 398 281 398> 611 42<443 455>
VStem: 60 12<260 260> 428 42<626 638> 443 12<212 520 200 520>
LayerCount: 2
Fore
SplineSet
60 260 m 0xea
 61 427 153 520 281 520 c 2
 398 520 l 1
 398 508 l 1
 281 508 l 2
 156 508 72 415 72 260 c 0
 72 105 156 12 281 12 c 2
 396 12 l 1
 396 0 l 1
 281 0 l 2
 153 0 61 93 60 260 c 0xea
198 200 m 1
 198 212 l 1
 443 212 l 1
 443 520 l 1
 455 520 l 1
 455 200 l 1
 198 200 l 1
428 632 m 0xfc
 428 644 437 653 449 653 c 0
 461 653 470 644 470 632 c 0
 470 620 461 611 449 611 c 0
 437 611 428 620 428 632 c 0xfc
EndSplineSet
Ligature2: "'dlig' Discretionary Ligatures in Latin lookup 7 subtable" i e
EndChar

StartChar: m_p.dlig
Encoding: 65580 -1 283
Width: 1046
GlyphClass: 3
Flags: MW
HStem: 0 12<588 765 588 765> 508 12<102 334 102 102 345 345 345 576 588 588 588 765>
VStem: 90 12<0 508 0 520> 334 11<0 508 0 508> 576 12<-200 0 12 508> 974 12<260 260>
LayerCount: 2
Fore
SplineSet
334 0 m 1
 334 508 l 1
 102 508 l 1
 102 0 l 1
 90 0 l 1
 90 520 l 1
 765 520 l 2
 893 520 985 427 986 260 c 0
 985 93 893 0 765 0 c 2
 588 0 l 1
 588 -200 l 1
 576 -200 l 1
 576 508 l 1
 345 508 l 1
 345 0 l 1
 334 0 l 1
588 12 m 1
 765 12 l 2
 890 12 974 104 974 260 c 0
 974 415 890 508 765 508 c 2
 588 508 l 1
 588 12 l 1
EndSplineSet
Ligature2: "'dlig' Discretionary Ligatures in Latin lookup 7 subtable" m p
EndChar

StartChar: n_e.dlig
Encoding: 65581 -1 284
Width: 830
GlyphClass: 3
Flags: MW
HStem: 0 12<440 690 440 690> 210 12<535 738 535 750 535 738> 508 12<102 289 102 102 470 738>
VStem: 90 12<0 508 0 520> 428 12<12 361 12 361 12 405> 738 12<222 508 508 508>
LayerCount: 2
Fore
SplineSet
90 520 m 1
 289 520 l 2
 379 520 440 456 440 361 c 2
 440 12 l 1
 690 12 l 1
 690 0 l 1
 428 0 l 1
 428 361 l 2
 428 449 372 508 289 508 c 2
 102 508 l 1
 102 0 l 1
 90 0 l 1
 90 520 l 1
470 508 m 1
 470 520 l 1
 750 520 l 1
 750 210 l 1
 535 210 l 1
 535 222 l 1
 738 222 l 1
 738 508 l 1
 470 508 l 1
EndSplineSet
Ligature2: "'dlig' Discretionary Ligatures in Latin lookup 7 subtable" n e
EndChar

StartChar: t_e.dlig
Encoding: 65582 -1 285
Width: 945
GlyphClass: 3
Flags: MW
HStem: 0 12<246 616 291 616 691 806> 200 12<608 853 608 865 608 853> 508 12<70 140 70 140 152 410 691 853>
VStem: 140 12<159 508 520 650> 470 12<260 260> 853 12<212 508 508 508>
LayerCount: 2
Fore
SplineSet
70 520 m 1
 140 520 l 1
 140 650 l 1
 152 650 l 1
 152 520 l 1
 410 520 l 1
 410 508 l 1
 152 508 l 1
 152 159 l 2
 152 71 208 12 291 12 c 2
 616 12 l 1
 529 42 471 128 470 260 c 0
 471 427 563 520 691 520 c 2
 865 520 l 1
 865 200 l 1
 608 200 l 1
 608 212 l 1
 853 212 l 1
 853 508 l 1
 691 508 l 2
 566 508 482 415 482 260 c 0
 482 105 566 12 691 12 c 2
 806 12 l 1
 806 0 l 1
 291 0 l 2
 201 0 140 64 140 159 c 2
 140 508 l 1
 70 508 l 1
 70 520 l 1
EndSplineSet
Ligature2: "'dlig' Discretionary Ligatures in Latin lookup 7 subtable" t e
EndChar

StartChar: uni0410
Encoding: 1040 1040 286
Width: 640
GlyphClass: 2
Flags: MW
HStem: 210 12<142 499 142 503 137 499> 638 12<289 352 289 289>
VStem: 50 540<0 0>
AnchorPoint: "Anchor-4" 320 650 basechar 0
AnchorPoint: "Anchor-3" 584 10 basechar 0
AnchorPoint: "Anchor-2" 320 0 basechar 0
LayerCount: 2
Fore
SplineSet
590 0 m 1
 577 0 l 1
 503 210 l 1
 137 210 l 1
 63 0 l 1
 50 0 l 1
 280 650 l 1
 360 650 l 1
 590 0 l 1
142 222 m 1
 499 222 l 1
 352 638 l 1
 289 638 l 1
 142 222 l 1
EndSplineSet
EndChar

StartChar: uni0411
Encoding: 1041 1041 287
Width: 627
GlyphClass: 1
Flags: MW
HStem: 0 12<132 320 132 320> 424 12<132 320 132 320> 638 12<132 490 132 132>
VStem: 120 12<12 12 12 424 436 638> 525 12<159 277>
LayerCount: 2
Fore
SplineSet
120 650 m 1
 490 650 l 1
 490 638 l 1
 132 638 l 1
 132 436 l 1
 320 436 l 2
 448 436 537 343 537 218 c 0
 537 93 448 0 320 0 c 2
 120 0 l 1
 120 650 l 1
132 12 m 1
 320 12 l 2
 441 12 525 100 525 218 c 0
 525 336 441 424 320 424 c 2
 132 424 l 1
 132 12 l 1
EndSplineSet
EndChar

StartChar: uni0412
Encoding: 1042 1042 288
Width: 592
GlyphClass: 2
Flags: MW
HStem: 0 12<142 325 142 325> 220 12<142 225 142 225> 638 12<142 225 142 142>
VStem: 130 12<12 12 12 220 232 638> 428 12<430.5 496.5> 530 12<159 256 155.5 259.5>
AnchorPoint: "Anchor-4" 328 649 basechar 0
AnchorPoint: "Anchor-3" 125 0 basechar 0
AnchorPoint: "Anchor-2" 328 0 basechar 0
LayerCount: 2
Fore
SplineSet
130 0 m 1
 130 650 l 1
 225 650 l 2
 354 650 440 564 440 435 c 0
 440 426 440 417 439 408 c 1
 508 368 542 294 542 218 c 0
 542 93 453 0 325 0 c 2
 130 0 l 1
142 12 m 1
 325 12 l 2
 446 12 530 100 530 218 c 0
 530 301 488 365 437 395 c 1
 421 289 340 220 225 220 c 2
 142 220 l 1
 142 12 l 1
142 232 m 1
 225 232 l 2
 348 232 428 312 428 435 c 0
 428 558 348 638 225 638 c 2
 142 638 l 1
 142 232 l 1
EndSplineSet
EndChar

StartChar: uni0413
Encoding: 1043 1043 289
Width: 540
GlyphClass: 2
Flags: MW
HStem: 638 12<132 490 132 132>
VStem: 120 12<0 638 0 650>
AnchorPoint: "Anchor-4" 126 649 basechar 0
AnchorPoint: "Anchor-3" 125 0 basechar 0
AnchorPoint: "Anchor-2" 126 0 basechar 0
LayerCount: 2
Fore
SplineSet
120 650 m 1
 490 650 l 1
 490 638 l 1
 132 638 l 1
 132 0 l 1
 120 0 l 1
 120 650 l 1
EndSplineSet
EndChar

StartChar: uni0490
Encoding: 1168 1168 290
Width: 530
GlyphClass: 1
Flags: MW
HStem: 638 12<132 468 120 480 132 132>
VStem: 120 12<0 638 0 650> 468 12<650 750 638 750>
LayerCount: 2
Fore
SplineSet
120 650 m 1
 468 650 l 1
 468 750 l 1
 480 750 l 1
 480 638 l 1
 132 638 l 1
 132 0 l 1
 120 0 l 1
 120 650 l 1
EndSplineSet
EndChar

StartChar: uni0414
Encoding: 1044 1044 291
Width: 780
GlyphClass: 2
Flags: MW
HStem: 0 12<112 172 184 588 600 668 112 112> 638 12<247 588 247 247>
VStem: 100 12<-100 0 -100 12> 588 12<12 638 638 638> 668 12<-100 0 0 0>
AnchorPoint: "Anchor-4" 654 649 basechar 0
AnchorPoint: "Anchor-3" 653 0 basechar 0
AnchorPoint: "Anchor-2" 654 0 basechar 0
LayerCount: 2
Fore
SplineSet
172 12 m 1
 184 38 192 67 195 111 c 2
 236 650 l 1
 600 650 l 1
 600 12 l 1
 680 12 l 1
 680 -100 l 1
 668 -100 l 1
 668 0 l 1
 112 0 l 1
 112 -100 l 1
 100 -100 l 1
 100 12 l 1
 172 12 l 1
184 12 m 1
 588 12 l 1
 588 638 l 1
 247 638 l 1
 207 110 l 2
 204 66 196 38 184 12 c 1
EndSplineSet
EndChar

StartChar: uni0415
Encoding: 1045 1045 292
Width: 520
GlyphClass: 2
Flags: MW
HStem: 0 12<132 420 132 420> 318 12<132 370 132 370> 638 12<132 420 132 132>
VStem: 120 12<12 318 330 638>
AnchorPoint: "Anchor-4" 275 650 basechar 0
AnchorPoint: "Anchor-3" 403 0 basechar 0
AnchorPoint: "Anchor-2" 275 0 basechar 0
LayerCount: 2
Fore
SplineSet
120 650 m 1
 420 650 l 1
 420 638 l 1
 132 638 l 1
 132 330 l 1
 370 330 l 1
 370 318 l 1
 132 318 l 1
 132 12 l 1
 420 12 l 1
 420 0 l 1
 120 0 l 1
 120 650 l 1
EndSplineSet
EndChar

